<?xml version="1.0" encoding="utf-8"?>
<!-- Generator: Adobe Illustrator 16.0.0, SVG Export Plug-In . SVG Version: 6.00 Build 0)  -->
<!DOCTYPE svg PUBLIC "-//W3C//DTD SVG 1.1//EN" "http://www.w3.org/Graphics/SVG/1.1/DTD/svg11.dtd">
<svg version="1.1" id="Layer_1" xmlns="http://www.w3.org/2000/svg" xmlns:xlink="http://www.w3.org/1999/xlink" x="0px" y="0px"
	 width="65px" height="65px" viewBox="0 0 65 65" enable-background="new 0 0 65 65" xml:space="preserve">
<g>
	<rect x="53.991" y="35.06" transform="matrix(0.223 -0.9748 0.9748 0.223 5.1098 82.6443)" width="0.814" height="6.113"/>
	<rect x="53.987" y="25.061" transform="matrix(-0.2207 -0.9753 0.9753 -0.2207 38.976 87.3765)" width="0.814" height="6.114"/>
	<polygon points="28.35,13.12 28.19,13.16 27.74,13.27 27.56,13.31 26.65,9.33 26.81,9.3 27.26,9.19 27.45,9.15 	"/>
	<polygon points="20.09,16.9 19.95,17.01 19.95,17.02 19.58,17.3 19.45,17.41 16.91,14.23 17.04,14.12 17.4,13.83 17.54,13.72 	"/>
	<polygon points="14.28,42.35 10.61,44.12 10.54,43.96 10.44,43.76 10.34,43.55 10.33,43.55 10.26,43.391 13.93,41.609 14.01,41.79 
		14.21,42.2 	"/>
	<polygon points="54.75,22.86 51.07,24.62 50.71,23.89 54.391,22.12 54.471,22.28 54.641,22.64 54.67,22.7 	"/>
	<rect x="32.09" y="7.61" width="0.82" height="6.11"/>
	<rect x="29.754" y="8.768" transform="matrix(0.9928 -0.1194 0.1194 0.9928 -1.0762 3.6585)" width="0.458" height="4.078"/>
	<polygon points="24.191,10.081 24.625,9.926 25.968,13.776 25.537,13.924 	"/>
	<rect x="20.318" y="12.073" transform="matrix(0.8449 -0.535 0.535 0.8449 -4.3619 13.1814)" width="0.46" height="4.078"/>
	<polygon points="19.95,17.02 19.59,17.31 19.58,17.3 	"/>
	<rect x="16.388" y="15.209" transform="matrix(0.705 -0.7092 0.7092 0.705 -7.3297 16.8746)" width="0.46" height="4.077"/>
	<rect x="13.252" y="19.144" transform="matrix(0.5295 -0.8483 0.8483 0.5295 -11.6252 21.4029)" width="0.461" height="4.076"/>
	<polygon points="14.28,23.89 14.2,24.06 14,24.48 13.93,24.63 10.25,22.87 10.33,22.71 10.6,22.13 	"/>
	<rect x="11.073" y="23.675" transform="matrix(0.3267 -0.9451 0.9451 0.3267 -16.6922 27.9928)" width="0.459" height="4.076"/>
	<rect x="9.955" y="28.581" transform="matrix(0.1103 -0.9939 0.9939 0.1103 -21.3706 37.3645)" width="0.46" height="4.077"/>
	<rect x="8" y="32.72" width="4.08" height="0.809"/>
	<rect x="9.956" y="33.606" transform="matrix(-0.1146 -0.9934 0.9934 -0.1146 -24.055 49.8481)" width="0.46" height="4.076"/>
	<polygon points="9.46,41.438 9.307,41.003 13.156,39.663 13.304,40.093 	"/>
	<polygon points="10.44,43.76 10.33,43.55 10.34,43.55 	"/>
	<rect x="13.263" y="43.04" transform="matrix(-0.5369 -0.8437 0.8437 -0.5369 -17.296 80.6626)" width="0.458" height="4.076"/>
	<rect x="16.397" y="46.976" transform="matrix(-0.7092 -0.705 0.705 -0.7092 -6.1342 95.4953)" width="0.46" height="4.073"/>
	<polygon points="20.08,49.33 17.56,52.54 17.42,52.43 17.06,52.141 16.92,52.029 19.45,48.83 19.59,48.95 	"/>
	<polygon points="48.1,52.01 47.96,52.12 47.96,52.13 47.59,52.41 47.46,52.52 44.91,49.34 45.42,48.939 45.55,48.83 	"/>
	<polygon points="47.96,52.13 47.6,52.42 47.59,52.41 	"/>
	<polygon points="49.996,50.284 49.668,50.607 46.793,47.723 47.111,47.396 	"/>
	<polygon points="53.375,45.96 53.127,46.352 49.684,44.177 49.922,43.79 	"/>
	<polygon points="54.75,43.37 54.67,43.54 54.471,43.96 54.4,44.109 50.721,42.35 51.07,41.609 	"/>
	<polygon points="54.68,43.54 54.48,43.96 54.471,43.96 54.67,43.54 	"/>
	<polygon points="55.709,40.995 55.553,41.43 51.711,40.077 51.857,39.646 	"/>
	<polygon points="56.877,35.633 56.823,36.093 52.775,35.629 52.825,35.177 	"/>
	<rect x="52.92" y="32.71" width="4.08" height="0.81"/>
	<polygon points="56.825,30.146 56.875,30.605 52.825,31.055 52.773,30.603 	"/>
	<polygon points="55.551,24.81 55.703,25.248 51.855,26.584 51.703,26.156 	"/>
	<polygon points="54.641,22.64 54.471,22.28 54.48,22.28 	"/>
	<polygon points="53.125,19.889 53.369,20.283 49.916,22.442 49.67,22.059 	"/>
	<polygon points="49.662,15.632 49.986,15.961 47.104,18.835 46.777,18.516 	"/>
	<polygon points="48.09,14.22 45.54,17.41 45.05,17.01 44.91,16.9 47.46,13.71 47.59,13.82 47.96,14.11 	"/>
	<polygon points="45.338,12.252 45.73,12.501 43.559,15.945 43.17,15.707 	"/>
	<polygon points="40.373,9.92 40.811,10.077 39.459,13.917 39.025,13.77 	"/>
	<polygon points="38.34,9.33 37.439,13.3 37.26,13.26 36.82,13.16 36.641,13.12 37.55,9.15 37.73,9.19 38.18,9.29 	"/>
	<polygon points="35.014,8.751 35.473,8.806 35.008,12.851 34.557,12.804 	"/>
	<rect x="49.648" y="44.065" transform="matrix(-0.6232 0.782 -0.782 -0.6232 118.1037 37.342)" width="0.818" height="6.111"/>
	<polygon points="52.7,17.53 47.92,21.34 47.41,20.71 52.189,16.89 	"/>
	<polygon points="43.939,10.31 41.279,15.82 40.55,15.46 43.2,9.96 	"/>
	<polygon points="24.45,15.47 23.71,15.82 21.06,10.31 21.8,9.96 	"/>
	<rect x="14.536" y="16.067" transform="matrix(-0.6232 0.782 -0.782 -0.6232 39.215 19.3543)" width="0.818" height="6.113"/>
	<polygon points="13.67,28.41 13.49,29.2 7.53,27.85 7.71,27.05 	"/>
	<polygon points="13.68,37.84 7.72,39.2 7.54,38.41 13.5,37.04 	"/>
	<rect x="11.883" y="46.719" transform="matrix(-0.7806 0.6251 -0.6251 -0.7806 56.0564 74.5794)" width="6.11" height="0.819"/>
</g>
</svg>
