<?xml version="1.0" encoding="utf-8"?>
<!-- Generator: Adobe Illustrator 16.0.0, SVG Export Plug-In . SVG Version: 6.00 Build 0)  -->
<!DOCTYPE svg PUBLIC "-//W3C//DTD SVG 1.1//EN" "http://www.w3.org/Graphics/SVG/1.1/DTD/svg11.dtd">
<svg version="1.1" id="Layer_1" xmlns="http://www.w3.org/2000/svg" xmlns:xlink="http://www.w3.org/1999/xlink" x="0px" y="0px"
	 width="65px" height="65px" viewBox="-3.154 -3.154 65 65" enable-background="new -3.154 -3.154 65 65" xml:space="preserve">
<g id="Layer_2_1_" display="none">
	<circle display="inline" fill="#FFFFFF" cx="97.93" cy="29.68" r="26.583"/>
</g>
<path d="M42.707,5.496c0.159,0.09,0.319,0.18,0.47,0.28c0.18,0.09,0.34,0.18,0.5,0.29C43.356,5.866,43.037,5.677,42.707,5.496z
	 M37.486,3.237c0.41,0.13,0.82,0.26,1.221,0.42c-0.24-0.09-0.48-0.17-0.721-0.25C37.827,3.346,37.656,3.286,37.486,3.237z
	 M33.196,2.277c0.28,0.03,0.561,0.07,0.841,0.13c-0.15-0.03-0.29-0.05-0.44-0.07C33.467,2.317,33.337,2.297,33.196,2.277z"/>
<path d="M49.287,48.016c0.119-0.13,0.229-0.25,0.35-0.37c-0.3,0.36-0.63,0.7-0.96,1.03c-0.3,0.31-0.62,0.62-0.95,0.91
	c-0.26,0.24-0.53,0.47-0.8,0.689c-0.09,0.08-0.17,0.15-0.26,0.23c-0.311,0.26-0.641,0.51-0.971,0.75c-0.33,0.25-0.659,0.49-1,0.71
	c-0.04,0.03-0.08,0.06-0.13,0.09c-0.109,0.08-0.22,0.15-0.34,0.21c-0.18,0.13-0.36,0.25-0.55,0.36c-0.13,0.09-0.26,0.17-0.4,0.239
	c-0.189,0.12-0.38,0.23-0.569,0.33c-0.29,0.17-0.58,0.33-0.88,0.471c-0.07,0.05-0.15,0.09-0.221,0.12
	c-0.38,0.199-0.77,0.38-1.16,0.55c-0.02,0.01-0.04,0.02-0.06,0.029c-0.4,0.181-0.82,0.351-1.23,0.511
	c-0.029,0.01-0.06,0.02-0.09,0.029c-0.27,0.101-0.54,0.2-0.819,0.29c-0.021,0.011-0.051,0.021-0.07,0.021
	c-0.1,0.04-0.2,0.08-0.3,0.11c-0.05,0.02-0.101,0.039-0.15,0.05c-0.05,0.02-0.11,0.04-0.16,0.05s-0.1,0.02-0.149,0.04
	c-0.2,0.06-0.4,0.12-0.601,0.18c-0.069,0.021-0.14,0.04-0.21,0.061c-0.069,0.029-0.13,0.04-0.2,0.06
	c-0.06,0.021-0.109,0.03-0.17,0.04c-0.04,0.01-0.08,0.021-0.12,0.03c-0.359,0.109-0.729,0.189-1.09,0.26
	c-0.41,0.09-0.819,0.17-1.229,0.23c-0.141,0.02-0.271,0.05-0.41,0.06c-0.34,0.06-0.69,0.11-1.03,0.14
	c-0.06,0.011-0.12,0.021-0.17,0.021c-0.939,0.1-1.88,0.149-2.84,0.149c-2.32,0-4.56-0.29-6.71-0.84c-0.31-0.08-0.61-0.16-0.92-0.25
	c-0.54-0.16-1.07-0.33-1.6-0.52c-0.52-0.19-1.04-0.391-1.55-0.61c-0.26-0.11-0.51-0.229-0.76-0.34c-0.5-0.24-1-0.49-1.48-0.75
	c-0.77-0.41-1.53-0.87-2.26-1.37c-0.23-0.15-0.45-0.31-0.68-0.47c-0.89-0.641-1.74-1.34-2.54-2.08c-0.4-0.37-0.79-0.75-1.17-1.15
	c-0.38-0.39-0.75-0.79-1.11-1.21v-0.01c-0.35-0.41-0.7-0.84-1.03-1.27c-0.33-0.44-0.65-0.881-0.95-1.341
	c-0.15-0.229-0.3-0.46-0.45-0.699c-0.29-0.471-0.57-0.94-0.83-1.421c-0.13-0.239-0.26-0.489-0.38-0.729
	c-0.5-0.99-0.94-2.01-1.32-3.06c-0.09-0.261-0.18-0.53-0.27-0.79c-0.87-2.66-1.34-5.5-1.34-8.44c0-2.65,0.38-5.21,1.09-7.64
	c0,0-0.01,0,0-0.01c0.16-0.54,0.33-1.07,0.52-1.59c0,0,0,0,0-0.01c0.19-0.52,0.4-1.03,0.61-1.54c0.11-0.25,0.22-0.51,0.34-0.77
	c0.24-0.5,0.49-0.99,0.75-1.47c0.21-0.39,0.43-0.77,0.66-1.15c0.46-0.75,0.95-1.48,1.48-2.18c0.79-1.05,1.65-2.04,2.58-2.97
	c4.95-4.96,11.78-8.02,19.32-8.02c0.96,0,1.91,0.05,2.85,0.15c0.12,0.01,0.23,0.02,0.341,0.04c0.22,0.02,0.439,0.05,0.659,0.09
	c0.28,0.03,0.561,0.07,0.841,0.13c0.25,0.04,0.5,0.08,0.75,0.14c0.069,0.01,0.13,0.03,0.199,0.04c0.181,0.04,0.351,0.07,0.521,0.12
	c0.22,0.04,0.439,0.1,0.649,0.16c0.28,0.06,0.561,0.14,0.841,0.23c0.17,0.05,0.33,0.09,0.489,0.14c0.41,0.13,0.82,0.26,1.221,0.42
	c0.12,0.04,0.239,0.09,0.359,0.13c0.37,0.14,0.73,0.29,1.09,0.44c0.15,0.06,0.311,0.13,0.45,0.21c0.221,0.09,0.44,0.19,0.65,0.31
	c0.18,0.08,0.359,0.17,0.54,0.26c0.31,0.16,0.609,0.32,0.91,0.49c0.33,0.18,0.649,0.37,0.97,0.57c0.03,0.01,0.05,0.03,0.07,0.04
	c0.22,0.14,0.439,0.27,0.649,0.42c0.16,0.1,0.311,0.2,0.46,0.31c0.24,0.16,0.471,0.32,0.7,0.5c0.12,0.09,0.25,0.18,0.37,0.28
	c0.09,0.07,0.189,0.14,0.28,0.21c0.12,0.09,0.25,0.19,0.37,0.3c0.14,0.11,0.279,0.23,0.42,0.35c0.09,0.07,0.18,0.14,0.27,0.22
	c0.16,0.13,0.311,0.27,0.46,0.41c0.18,0.16,0.36,0.32,0.53,0.5c0.14,0.13,0.28,0.27,0.42,0.41c0.189,0.18,0.37,0.37,0.54,0.56
	c-2.32,2.68-4.09,5.72-5.28,9.04c-0.21,0.6-0.39,1.16-0.55,1.71c-0.72,2.56-1.1,5.22-1.1,7.92
	C42.287,36.196,44.766,42.816,49.287,48.016z"/>
<path fill="#FFFFFF" d="M49.287,48.016c0.119-0.13,0.229-0.25,0.35-0.37c-0.3,0.36-0.63,0.7-0.96,1.03
	c-0.3,0.31-0.62,0.62-0.95,0.91c-0.26,0.24-0.53,0.47-0.8,0.689c-0.09,0.08-0.17,0.15-0.26,0.23c-0.311,0.26-0.641,0.51-0.971,0.75
	c-0.33,0.25-0.659,0.49-1,0.71c-0.04,0.03-0.08,0.06-0.13,0.09c-0.109,0.08-0.22,0.15-0.34,0.21c-0.18,0.13-0.36,0.25-0.55,0.36
	c-0.13,0.09-0.26,0.17-0.4,0.239c-0.189,0.12-0.38,0.23-0.569,0.33c-0.29,0.17-0.58,0.33-0.88,0.471
	c-0.07,0.05-0.15,0.09-0.221,0.12c-0.38,0.199-0.77,0.38-1.16,0.55c-0.02,0.01-0.04,0.02-0.06,0.029
	c-0.4,0.181-0.82,0.351-1.23,0.511c-0.029,0.01-0.06,0.02-0.09,0.029c-0.27,0.101-0.54,0.2-0.819,0.29
	c-0.021,0.011-0.051,0.021-0.07,0.021c-0.1,0.04-0.2,0.08-0.3,0.11c-0.05,0.02-0.101,0.039-0.15,0.05
	c-0.05,0.02-0.11,0.04-0.16,0.05s-0.1,0.02-0.149,0.04c-0.2,0.06-0.4,0.12-0.601,0.18c-0.069,0.021-0.14,0.04-0.21,0.061
	c-0.069,0.029-0.13,0.04-0.2,0.06c-0.06,0.021-0.109,0.03-0.17,0.04c-0.04,0.01-0.08,0.021-0.12,0.03
	c-0.359,0.109-0.729,0.189-1.09,0.26c-0.41,0.09-0.819,0.17-1.229,0.23c-0.141,0.02-0.271,0.05-0.41,0.06
	c-0.34,0.06-0.69,0.11-1.03,0.14c-0.06,0.011-0.12,0.021-0.17,0.021c-0.939,0.1-1.88,0.149-2.84,0.149c-2.32,0-4.56-0.29-6.71-0.84
	c-0.31-0.08-0.61-0.16-0.92-0.25c-0.54-0.16-1.07-0.33-1.6-0.52c-0.52-0.19-1.04-0.391-1.55-0.61c-0.26-0.11-0.51-0.229-0.76-0.34
	c-0.5-0.24-1-0.49-1.48-0.75c-0.77-0.41-1.53-0.87-2.26-1.37c-0.23-0.15-0.45-0.31-0.68-0.47c-0.89-0.641-1.74-1.34-2.54-2.08
	c-0.4-0.37-0.79-0.75-1.17-1.15c-0.38-0.39-0.75-0.79-1.11-1.21v-0.01c-0.35-0.41-0.7-0.84-1.03-1.27
	c-0.33-0.44-0.65-0.881-0.95-1.341c-0.15-0.229-0.3-0.46-0.45-0.699c-0.29-0.471-0.57-0.94-0.83-1.421
	c-0.13-0.239-0.26-0.489-0.38-0.729c-0.5-0.99-0.94-2.01-1.32-3.06c-0.09-0.261-0.18-0.53-0.27-0.79c-0.87-2.66-1.34-5.5-1.34-8.44
	c0-2.65,0.38-5.21,1.09-7.64c0,0-0.01,0,0-0.01c0.16-0.54,0.33-1.07,0.52-1.59c0,0,0,0,0-0.01c0.19-0.52,0.4-1.03,0.61-1.54
	c0.11-0.25,0.22-0.51,0.34-0.77c0.24-0.5,0.49-0.99,0.75-1.47c0.21-0.39,0.43-0.77,0.66-1.15c0.46-0.75,0.95-1.48,1.48-2.18
	c0.79-1.05,1.65-2.04,2.58-2.97c4.95-4.96,11.78-8.02,19.32-8.02c0.96,0,1.91,0.05,2.85,0.15c0.12,0.01,0.23,0.02,0.341,0.04
	c0.22,0.02,0.439,0.05,0.659,0.09c0.28,0.03,0.561,0.07,0.841,0.13c0.25,0.04,0.5,0.08,0.75,0.14c0.069,0.01,0.13,0.03,0.199,0.04
	c0.181,0.04,0.351,0.07,0.521,0.12c0.22,0.04,0.439,0.1,0.649,0.16c0.28,0.06,0.561,0.14,0.841,0.23c0.17,0.05,0.33,0.09,0.489,0.14
	c0.41,0.13,0.82,0.26,1.221,0.42c0.12,0.04,0.239,0.09,0.359,0.13c0.37,0.14,0.73,0.29,1.09,0.44c0.15,0.06,0.311,0.13,0.45,0.21
	c0.221,0.09,0.44,0.19,0.65,0.31c0.18,0.08,0.359,0.17,0.54,0.26c0.31,0.16,0.609,0.32,0.91,0.49c0.33,0.18,0.649,0.37,0.97,0.57
	c0.03,0.01,0.05,0.03,0.07,0.04c0.22,0.14,0.439,0.27,0.649,0.42c0.16,0.1,0.311,0.2,0.46,0.31c0.24,0.16,0.471,0.32,0.7,0.5
	c0.12,0.09,0.25,0.18,0.37,0.28c0.09,0.07,0.189,0.14,0.28,0.21c0.12,0.09,0.25,0.19,0.37,0.3c0.14,0.11,0.279,0.23,0.42,0.35
	c0.09,0.07,0.18,0.14,0.27,0.22c0.16,0.13,0.311,0.27,0.46,0.41c0.18,0.16,0.36,0.32,0.53,0.5c0.14,0.13,0.28,0.27,0.42,0.41
	c0.189,0.18,0.37,0.37,0.54,0.56c-2.32,2.68-4.09,5.72-5.28,9.04c-0.21,0.6-0.39,1.16-0.55,1.71c-0.72,2.56-1.1,5.22-1.1,7.92
	C42.287,36.196,44.766,42.816,49.287,48.016z"/>
<g display="none">
	<polygon display="inline" points="25.758,5.77 25.625,8.795 25.29,5.288 25.476,2.656 	"/>
	<polygon display="inline" points="25.46,5.85 21.589,5.531 25.469,5.187 28.778,5.518 	"/>
</g>
<path d="M33.185,43.087c-2.854-2.881,1.002-2.982,0-6.076C35.638,39.839,32.179,40.101,33.185,43.087z"/>
<path d="M36.126,48.751c-2.036-1.962,0.716-2.033,0-4.139C37.875,46.54,35.41,46.718,36.126,48.751z"/>
<path d="M23.487,45.367c3.045-2.689-1.074-2.787,0-5.673C20.866,42.333,24.559,42.58,23.487,45.367z"/>
<path display="none" d="M43.593,23.392c-0.142,0.564-0.262,1.144-0.352,1.727l-32.945-7.508l0.164-0.741L43.593,23.392z"/>
<path d="M51.156,45.827c0,0.01-0.01,0.02-0.029,0.029c-0.101,0.16-0.221,0.311-0.351,0.46c-0.06,0.08-0.13,0.16-0.199,0.24
	c-0.19,0.24-0.391,0.47-0.601,0.71c-4.32-5-6.68-11.36-6.68-18.02c0-2.6,0.359-5.17,1.069-7.65c0.141-0.53,0.311-1.07,0.521-1.64
	c1.12-3.18,2.81-6.08,5.01-8.64c0.19,0.21,0.37,0.43,0.55,0.64c0.23,0.28,0.46,0.58,0.67,0.87c-1.939,2.31-3.489,4.96-4.52,7.86
	c-0.18,0.5-0.34,1.01-0.48,1.53c-0.649,2.25-0.989,4.62-0.989,7.08C45.127,35.596,47.386,41.366,51.156,45.827z"/>
<path fill="#FFFFFF" d="M51.156,45.827c0,0.01-0.01,0.02-0.029,0.029c-0.101,0.16-0.221,0.311-0.351,0.46
	c-0.06,0.08-0.13,0.16-0.199,0.24c-0.19,0.24-0.391,0.47-0.601,0.71c-4.32-5-6.68-11.36-6.68-18.02c0-2.6,0.359-5.17,1.069-7.65
	c0.141-0.53,0.311-1.07,0.521-1.64c1.12-3.18,2.81-6.08,5.01-8.64c0.19,0.21,0.37,0.43,0.55,0.64c0.23,0.28,0.46,0.58,0.67,0.87
	c-1.939,2.31-3.489,4.96-4.52,7.86c-0.18,0.5-0.34,1.01-0.48,1.53c-0.649,2.25-0.989,4.62-0.989,7.08
	C45.127,35.596,47.386,41.366,51.156,45.827z"/>
<g id="Layer_1_1_">
	<g>
		<rect x="5.162" y="28.749" fill="#010101" width="11.72" height="1.189"/>
	</g>
	<path fill="none" d="M13.11,32.687c-0.04-0.23-0.07-0.46-0.09-0.689"/>
	<path fill="#010101" d="M13.11,32.687l-7.45,0.1c-0.04-0.229-0.07-0.449-0.09-0.68l7.45-0.109
		C13.04,32.227,13.07,32.457,13.11,32.687z"/>
	<g>
		<path fill="#010101" d="M14.031,35.878l-0.3,0.062l-7.59,0.2L6.08,35.958c-0.066-0.22-0.13-0.45-0.188-0.7l-0.08-0.3l7.938-0.22
			l0.04,0.21c0.05,0.21,0.104,0.42,0.16,0.63L14.031,35.878z"/>
	</g>
	<path fill="#010101" d="M14.76,38.677l-7.34,0.289c-0.1-0.219-0.188-0.445-0.29-0.688l7.354-0.29
		C14.57,38.216,14.66,38.447,14.76,38.677z"/>
	<g>
		<path fill="#010101" d="M16.721,41.878l-7.812,0.41l-0.08-0.13c-0.146-0.221-0.29-0.46-0.41-0.7l-0.18-0.34l7.79-0.41l0.07,0.144
			c0.12,0.229,0.25,0.446,0.39,0.656L16.721,41.878z"/>
	</g>
	<path fill="#010101" d="M18.36,44.597l-7.07,0.46c-0.2-0.224-0.38-0.44-0.56-0.675l7.1-0.459C18,44.157,18.18,44.376,18.36,44.597z
		"/>
	<g>
		<path fill="#010101" d="M21.841,47.677l-7.446,0.58h-0.104l-0.066-0.05c-0.25-0.18-0.514-0.396-0.79-0.66l-0.42-0.38l7.536-0.606
			l0.094,0.08c0.236,0.25,0.47,0.46,0.696,0.641L21.841,47.677z"/>
	</g>
	<path fill="#010101" d="M13.11,26.007c-0.04,0.224-0.07,0.45-0.09,0.684l-7.45-0.104c0.02-0.229,0.05-0.446,0.09-0.68L13.11,26.007
		z"/>
	<g>
		<path fill="#010101" d="M14.042,22.758l-0.08,0.304c-0.06,0.25-0.12,0.46-0.17,0.688l-0.04,0.2l-7.938-0.21l0.08-0.3
			c0.06-0.25,0.12-0.48,0.188-0.71l0.062-0.184L14.042,22.758z"/>
	</g>
	<path fill="#010101" d="M14.76,20.017c-0.1,0.22-0.188,0.446-0.27,0.68l-7.35-0.29c0.09-0.23,0.18-0.46,0.276-0.68L14.76,20.017z"
		/>
	<g>
		<path fill="#010101" d="M16.721,16.818l-0.23,0.356c-0.13,0.214-0.27,0.434-0.38,0.66l-0.07,0.15l-7.8-0.41l0.18-0.35
			c0.12-0.23,0.264-0.474,0.41-0.7l0.08-0.12L16.721,16.818z"/>
	</g>
	<path fill="#010101" d="M18.36,14.097c-0.18,0.22-0.36,0.438-0.53,0.67l-7.1-0.46c0.18-0.23,0.356-0.45,0.56-0.67L18.36,14.097z"/>
	<g>
		<path fill="#010101" d="M21.841,11.019l-0.5,0.39c-0.21,0.17-0.43,0.38-0.71,0.64l-0.08,0.08l-7.536-0.6l0.42-0.39
			c0.276-0.25,0.54-0.474,0.8-0.66l0.066-0.062L21.841,11.019z"/>
	</g>
	<path fill="#010101" d="M36.564,8.987l-3.354-3.68c-0.06-0.07-0.14-0.11-0.229-0.11h-7.28c-0.08,0-0.16,0.04-0.22,0.11l-3.354,3.68
		c-0.078,0.1-0.091,0.229-0.051,0.35c0.012,0.021,0.021,0.054,0.051,0.07l0.062,0.07l7.147,8.02l7.148-8.02l0.07-0.07
		c0.02-0.02,0.025-0.05,0.04-0.07C36.654,9.217,36.633,9.087,36.564,8.987z M32.634,5.837l-0.521,2.66l-2.12-2.66H32.634z
		 M31.644,8.876h-4.59l2.289-2.81L31.644,8.876z M28.704,5.837l-2.12,2.67l-0.52-2.67H28.704z M25.534,6.167l0.53,2.71h-3.09
		L25.534,6.167z M23.064,9.527h3.16l2.26,6.02L23.064,9.527z M26.844,9.527h5.01l-2.51,6.5L26.844,9.527z M30.213,15.527l2.265-6
		h3.146L30.213,15.527z M32.634,8.876l0.529-2.71l2.55,2.71H32.634z"/>
	<path d="M50.577,46.556c0.069-0.08,0.14-0.16,0.199-0.24c0.13-0.149,0.25-0.3,0.351-0.46
		C50.946,46.087,50.766,46.327,50.577,46.556z M33.797,56.327c0.41-0.061,0.819-0.141,1.229-0.23c0.29-0.06,0.58-0.13,0.86-0.21
		C35.196,56.056,34.507,56.207,33.797,56.327z M38.247,55.196c0.279-0.09,0.55-0.189,0.819-0.29c0.03-0.01,0.061-0.02,0.09-0.029
		c0.41-0.16,0.83-0.33,1.23-0.511c0.02-0.01,0.04-0.02,0.06-0.029c0.391-0.17,0.78-0.351,1.16-0.55c0.07-0.03,0.15-0.07,0.221-0.12
		c0.3-0.141,0.59-0.301,0.88-0.471c0.189-0.1,0.38-0.21,0.569-0.33c0.141-0.069,0.271-0.149,0.4-0.239
		c0.189-0.11,0.37-0.23,0.55-0.36C42.366,53.467,40.366,54.467,38.247,55.196z M44.226,52.266c0.12-0.06,0.23-0.13,0.34-0.21
		c0.05-0.03,0.09-0.06,0.13-0.09c0.341-0.22,0.67-0.46,1-0.71c0.33-0.24,0.66-0.49,0.971-0.75c0.09-0.08,0.17-0.15,0.26-0.23
		c0.27-0.22,0.54-0.449,0.8-0.689c0.33-0.29,0.65-0.601,0.95-0.91c0.2-0.2,0.39-0.43,0.59-0.64
		C47.766,49.636,46.066,51.056,44.226,52.266z M36.236,55.806c0.061-0.01,0.11-0.02,0.17-0.04c0.07-0.02,0.131-0.03,0.2-0.06
		C36.486,55.736,36.356,55.776,36.236,55.806z M37.417,55.467c0.05-0.021,0.1-0.03,0.149-0.04s0.11-0.03,0.16-0.05
		c0.05-0.011,0.101-0.03,0.15-0.05c0.1-0.03,0.2-0.07,0.3-0.11C37.927,55.306,37.667,55.386,37.417,55.467z M48.677,10.016
		c-0.14-0.14-0.28-0.28-0.42-0.41c0.33,0.32,0.649,0.64,0.96,0.97C49.047,10.386,48.866,10.197,48.677,10.016z M47.726,9.106
		c-0.149-0.14-0.3-0.28-0.46-0.41c0.34,0.3,0.67,0.6,0.99,0.91C48.087,9.427,47.906,9.266,47.726,9.106z M29.356,56.686
		c-2.32,0-4.57-0.29-6.72-0.83c2.15,0.55,4.39,0.84,6.71,0.84c0.96,0,1.9-0.05,2.84-0.149
		C31.257,56.636,30.316,56.686,29.356,56.686z M3.087,21.706c-0.71,2.43-1.09,4.99-1.09,7.64c0,2.94,0.47,5.78,1.34,8.44
		c-0.86-2.66-1.33-5.5-1.33-8.44C2.007,26.697,2.386,24.136,3.087,21.706z M10.846,49.467c0.8,0.74,1.65,1.439,2.54,2.08
		C12.496,50.896,11.656,50.207,10.846,49.467z"/>
	<path d="M60.266-1.564c-0.13-0.12-0.26-0.24-0.39-0.35c-0.13-0.11-0.271-0.22-0.41-0.31c-0.29-0.19-0.601-0.37-0.92-0.5
		c-0.49-0.2-1.01-0.34-1.55-0.4c-0.181-0.01-0.37-0.02-0.551-0.02c-0.189,0-0.38,0.01-0.56,0.02c0.18-0.02,0.37-0.03,0.56-0.03
		H2.237c0.19,0,0.38,0.01,0.56,0.03c-0.18-0.01-0.37-0.02-0.56-0.02s-0.36,0.01-0.55,0.02c-0.54,0.06-1.06,0.2-1.54,0.4
		c-0.32,0.13-0.63,0.31-0.92,0.5c-0.14,0.09-0.28,0.2-0.41,0.31c-0.13,0.11-0.26,0.23-0.39,0.35c-0.98,0.98-1.58,2.32-1.58,3.8
		v54.22c0,1.479,0.6,2.819,1.58,3.8c0.13,0.12,0.26,0.24,0.39,0.35c0.13,0.11,0.27,0.221,0.41,0.311c0.29,0.189,0.6,0.37,0.92,0.5
		c0.48,0.21,1,0.34,1.54,0.399c0.19,0.011,0.36,0.021,0.55,0.021s0.38-0.01,0.56-0.021c-0.18,0.021-0.37,0.03-0.56,0.03h54.209
		c2.99,0,5.4-2.41,5.4-5.4V2.237C61.846,0.757,61.247-0.584,60.266-1.564z M48.677,48.677c-0.3,0.31-0.62,0.62-0.95,0.91
		c-0.26,0.24-0.53,0.47-0.8,0.689c-0.09,0.08-0.17,0.15-0.26,0.23c-0.311,0.26-0.641,0.51-0.971,0.75c-0.33,0.25-0.659,0.49-1,0.71
		c-0.04,0.03-0.08,0.06-0.13,0.09c-0.109,0.08-0.22,0.15-0.34,0.21c-0.18,0.13-0.36,0.25-0.55,0.36c-0.13,0.09-0.26,0.17-0.4,0.239
		c-0.189,0.12-0.38,0.23-0.569,0.33c-0.29,0.17-0.58,0.33-0.88,0.471c-0.07,0.05-0.15,0.09-0.221,0.12
		c-0.38,0.199-0.77,0.38-1.16,0.55c-0.02,0.01-0.04,0.02-0.06,0.029c-0.4,0.181-0.82,0.351-1.23,0.511
		c-0.029,0.01-0.06,0.02-0.09,0.029c-0.39,0.15-0.79,0.301-1.189,0.421c-0.05,0.02-0.101,0.039-0.15,0.05
		c-0.05,0.02-0.11,0.04-0.16,0.05c-0.319,0.11-0.64,0.2-0.96,0.28c-0.069,0.029-0.13,0.04-0.2,0.06
		c-0.06,0.021-0.109,0.03-0.17,0.04c-0.04,0.01-0.08,0.021-0.12,0.03c-0.359,0.109-0.729,0.189-1.09,0.26
		c-0.41,0.09-0.819,0.17-1.229,0.23c-0.141,0.02-0.271,0.05-0.41,0.06c-0.34,0.06-0.69,0.11-1.03,0.14
		c-0.06,0.011-0.12,0.021-0.17,0.021c-0.939,0.1-1.88,0.149-2.84,0.149c-2.32,0-4.56-0.29-6.71-0.84c-0.31-0.08-0.61-0.16-0.92-0.25
		c-0.54-0.149-1.07-0.33-1.6-0.52c-0.52-0.19-1.04-0.391-1.55-0.61c-0.26-0.11-0.51-0.229-0.76-0.34c-0.5-0.23-1-0.49-1.48-0.75
		c-0.77-0.41-1.53-0.87-2.26-1.37c-0.23-0.15-0.45-0.31-0.68-0.47c-0.89-0.641-1.74-1.34-2.54-2.08c-0.4-0.37-0.79-0.75-1.17-1.15
		c-0.38-0.38-0.75-0.79-1.11-1.21v-0.01c-0.36-0.41-0.7-0.83-1.03-1.27c-0.33-0.44-0.65-0.881-0.95-1.341
		c-0.15-0.229-0.3-0.46-0.45-0.699c-0.29-0.471-0.57-0.94-0.83-1.421c-0.13-0.239-0.26-0.489-0.38-0.729
		c-0.5-0.99-0.94-2.01-1.32-3.06c-0.09-0.261-0.18-0.53-0.27-0.79c-0.87-2.66-1.34-5.5-1.34-8.44c0-2.65,0.38-5.21,1.09-7.64
		c0,0-0.01,0,0-0.01c0.15-0.53,0.32-1.06,0.52-1.59c0,0,0,0,0-0.01c0.18-0.52,0.39-1.03,0.61-1.54c0.11-0.25,0.22-0.51,0.34-0.77
		c0.23-0.5,0.49-0.99,0.75-1.47c0.21-0.39,0.43-0.77,0.66-1.15c0.46-0.75,0.95-1.48,1.48-2.18c0.79-1.05,1.65-2.04,2.58-2.97
		c4.95-4.96,11.78-8.02,19.32-8.02c0.96,0,1.91,0.05,2.85,0.15c0.12,0.01,0.23,0.02,0.341,0.04c0.22,0.02,0.439,0.05,0.659,0.09
		c0.28,0.03,0.561,0.07,0.841,0.13c0.25,0.04,0.5,0.08,0.75,0.14c0.069,0.01,0.13,0.03,0.199,0.04c0.181,0.04,0.351,0.07,0.521,0.12
		c0.22,0.04,0.439,0.1,0.649,0.16c0.28,0.06,0.561,0.14,0.841,0.23c0.17,0.05,0.33,0.09,0.489,0.14c0.41,0.13,0.82,0.26,1.221,0.42
		c0.12,0.04,0.239,0.09,0.359,0.13c0.37,0.14,0.73,0.29,1.09,0.44c0.15,0.06,0.311,0.13,0.45,0.21c0.221,0.09,0.44,0.19,0.65,0.31
		c0.18,0.08,0.359,0.17,0.54,0.26c0.31,0.16,0.609,0.32,0.91,0.49c0.33,0.18,0.649,0.37,0.97,0.57c0.03,0.01,0.05,0.03,0.07,0.04
		c0.22,0.14,0.439,0.27,0.649,0.42c0.16,0.1,0.311,0.2,0.46,0.31c0.24,0.16,0.471,0.32,0.7,0.5c0.12,0.09,0.25,0.18,0.37,0.28
		c0.09,0.07,0.189,0.14,0.28,0.21c0.12,0.09,0.25,0.19,0.37,0.3c0.14,0.11,0.279,0.23,0.42,0.35c0.09,0.07,0.18,0.14,0.27,0.22
		c0.16,0.13,0.311,0.27,0.46,0.41c0.18,0.16,0.36,0.32,0.53,0.5c0.14,0.13,0.28,0.27,0.42,0.41c0.189,0.18,0.37,0.37,0.54,0.56
		c-2.32,2.68-4.09,5.72-5.28,9.04c-0.21,0.6-0.39,1.16-0.55,1.71c-0.72,2.56-1.1,5.22-1.1,7.92c0,6.95,2.479,13.57,7,18.77
		c0.119-0.13,0.229-0.25,0.35-0.37C49.337,48.007,49.007,48.346,48.677,48.677z M51.127,45.856c-0.101,0.16-0.221,0.311-0.351,0.46
		c-0.06,0.08-0.13,0.16-0.199,0.24c-0.19,0.24-0.381,0.48-0.601,0.71c-4.32-5-6.68-11.36-6.68-18.02c0-2.6,0.359-5.17,1.069-7.65
		c0.141-0.53,0.311-1.07,0.521-1.64c1.12-3.18,2.81-6.08,5.01-8.64c0.19,0.21,0.37,0.43,0.55,0.64c0.23,0.28,0.46,0.58,0.67,0.87
		c-1.939,2.31-3.489,4.96-4.52,7.86c-0.18,0.5-0.34,1.01-0.48,1.53c-0.649,2.25-0.989,4.62-0.989,7.08
		c0,6.3,2.26,12.069,6.029,16.53C51.156,45.837,51.146,45.846,51.127,45.856z"/>
	<path fill="#FFFFFF" d="M51.156,45.827c0,0.01-0.01,0.02-0.029,0.029c-0.181,0.23-0.36,0.471-0.55,0.7
		c-0.19,0.24-0.391,0.47-0.601,0.71c-4.32-5-6.68-11.36-6.68-18.02c0-2.6,0.359-5.17,1.069-7.65c0.141-0.53,0.311-1.07,0.521-1.64
		c1.12-3.18,2.81-6.08,5.01-8.64c0.19,0.21,0.37,0.43,0.55,0.64c0.23,0.28,0.46,0.58,0.67,0.87c-1.939,2.31-3.489,4.96-4.52,7.86
		c-0.18,0.5-0.34,1.01-0.48,1.53c-0.649,2.25-0.989,4.62-0.989,7.08C45.127,35.596,47.386,41.366,51.156,45.827z"/>
	<path d="M34.06,53.717H24.63c-1.24,0-2.256-1.019-2.256-2.271c0-1.01,0.688-1.88,1.618-2.151c-0.078-0.224-0.119-0.46-0.119-0.702
		c0-0.964,0.653-1.774,1.54-2.021c-0.074-0.219-0.108-0.447-0.108-0.676c0-0.958,0.641-1.771,1.521-2.016
		c-0.062-0.454,0.037-1.021,0.407-1.553c0.146-0.21,0.217-0.39,0.192-0.527c-0.018-0.096-0.073-0.15-0.074-0.15l-0.099-0.104
		c-0.082-0.125-0.14-0.342-0.027-0.541c0.105-0.203,0.335-0.306,0.671-0.306c0.101,0,0.225,0.009,0.377,0.03
		c1.185,0.2,3.461,1.424,3.744,3.396c0.937,0.218,1.604,1.043,1.604,2.034c0,0.124-0.011,0.246-0.03,0.365
		c0.812,0.288,1.359,1.058,1.359,1.967c0,0.288-0.059,0.568-0.17,0.825c0.891,0.299,1.527,1.143,1.527,2.128
		C36.315,52.699,35.303,53.717,34.06,53.717z M32.242,47.429c-0.641,0.625-3.139,2.346-6.973,2.509l-0.697,0.02
		c-0.796,0.021-1.444,0.689-1.444,1.489c0,0.839,0.68,1.521,1.506,1.521h9.431c0.83,0,1.505-0.682,1.505-1.521
		c0-0.79-0.614-1.445-1.399-1.49c0,0-4.434,0.979-5.229,0.979c2.03-0.203,4.812-1.471,4.966-1.599s0.306-0.526,0.306-0.845
		c0-0.679-0.476-1.236-1.132-1.325l-0.486-0.062l0.192-0.452c0.064-0.151,0.097-0.315,0.097-0.488c0-0.705-0.527-1.279-1.231-1.335
		l-0.341-0.03l-0.016-0.335c-0.059-1.764-2.233-2.842-3.137-2.989c-0.017-0.007-0.033-0.009-0.05-0.011
		c0.021,0.064,0.046,0.14,0.06,0.219c0.06,0.344-0.053,0.707-0.318,1.082c-0.356,0.511-0.327,1.131-0.21,1.253
		c0.392,0.404,1.599,0.158,1.599,0.158c-0.641,0.24-1.917,0.385-1.917,0.385c-0.71,0.029-1.267,0.615-1.267,1.335
		c0,0.266,0.078,0.529,0.232,0.771c0,0,2.873-0.142,4.467-1.282c-0.238,0.651-3.008,1.728-4.777,1.861
		c-0.781,0.062-1.354,0.605-1.354,1.351c0,0.278,0.084,0.55,0.243,0.773C24.87,49.368,29.023,49.367,32.242,47.429z"/>
</g>
<path fill="#FFFFFF" d="M56.467,0.427c1,0,1.8,0.8,1.8,1.8c0,0.99-0.8,1.79-1.8,1.79c-0.99,0-1.79-0.8-1.79-1.79
	C54.677,1.226,55.476,0.427,56.467,0.427z"/>
<path fill="#FFFFFF" d="M2.226,0.427c0.99,0,1.79,0.8,1.79,1.8c0,0.99-0.8,1.79-1.79,1.79c-1,0-1.8-0.8-1.8-1.79
	C0.427,1.226,1.226,0.427,2.226,0.427z"/>
<path fill="#FFFFFF" d="M2.226,58.266c-1,0-1.8-0.8-1.8-1.8c0-0.99,0.8-1.79,1.8-1.79c0.99,0,1.79,0.8,1.79,1.79
	C4.016,57.467,3.217,58.266,2.226,58.266z"/>
<path fill="#FFFFFF" d="M56.467,58.266c-0.99,0-1.79-0.8-1.79-1.8c0-0.99,0.8-1.79,1.79-1.79c1,0,1.8,0.8,1.8,1.79
	C58.266,57.467,57.467,58.266,56.467,58.266z"/>
<path fill="#FFFFFF" d="M4.016,2.226c0,0.99-0.8,1.79-1.79,1.79c-1,0-1.8-0.8-1.8-1.79c0-1,0.8-1.8,1.8-1.8
	C3.217,0.427,4.016,1.226,4.016,2.226z"/>
<path fill="#FFFFFF" d="M58.266,2.226c0,0.99-0.8,1.79-1.8,1.79c-0.99,0-1.79-0.8-1.79-1.79c0-1,0.8-1.8,1.79-1.8
	C57.467,0.427,58.266,1.226,58.266,2.226z"/>
<path fill="#FFFFFF" d="M58.266,56.467c0,1-0.8,1.8-1.8,1.8c-0.99,0-1.79-0.8-1.79-1.8c0-0.99,0.8-1.79,1.79-1.79
	C57.467,54.677,58.266,55.476,58.266,56.467z"/>
<path fill="#FFFFFF" d="M4.016,56.467c0,1-0.8,1.8-1.79,1.8c-1,0-1.8-0.8-1.8-1.8c0-0.99,0.8-1.79,1.8-1.79
	C3.217,54.677,4.016,55.476,4.016,56.467z"/>
</svg>
