<?xml version="1.0" encoding="utf-8"?>
<!-- Generator: Adobe Illustrator 16.0.0, SVG Export Plug-In . SVG Version: 6.00 Build 0)  -->
<!DOCTYPE svg PUBLIC "-//W3C//DTD SVG 1.1//EN" "http://www.w3.org/Graphics/SVG/1.1/DTD/svg11.dtd">
<svg version="1.1" id="Layer_1" xmlns="http://www.w3.org/2000/svg" xmlns:xlink="http://www.w3.org/1999/xlink" x="0px" y="0px"
	 width="65px" height="65px" viewBox="-3.149 -3.149 65 65" enable-background="new -3.149 -3.149 65 65" xml:space="preserve">
<path display="none" fill="#FFFFFF" d="M58.521,29.43c0,16.093-12.998,29.091-29.091,29.091c-16.251,0-29.249-12.998-29.249-29.091
	c0-16.251,12.998-29.249,29.249-29.249C45.522,0.181,58.521,13.179,58.521,29.43z"/>
<g id="Layer_1_1_" display="none">
	<path display="inline" d="M37.99,3.411c1.311,0.44,2.58,0.97,3.811,1.6C40.581,4.38,39.301,3.841,37.99,3.411z M34.99,2.591
		c0.681,0.14,1.351,0.31,2.011,0.51C36.341,2.911,35.671,2.73,34.99,2.591z"/>
	
		<rect x="19.199" y="6.063" transform="matrix(-0.9014 0.433 -0.433 -0.9014 41.2289 8.8473)" display="inline" width="0.816" height="6.112"/>
	
		<rect x="11.385" y="12.295" transform="matrix(-0.6232 0.7821 -0.7821 -0.6232 31.1491 15.6936)" display="inline" width="0.817" height="6.113"/>
	
		<rect x="7.049" y="21.301" transform="matrix(-0.2218 0.9751 -0.9751 -0.2218 32.8607 22.4886)" display="inline" width="0.815" height="6.113"/>
	
		<rect x="7.053" y="31.294" transform="matrix(0.223 0.9748 -0.9748 0.223 39.2821 19.418)" display="inline" width="0.814" height="6.113"/>
	
		<rect x="11.385" y="40.3" transform="matrix(0.6254 0.7803 -0.7803 0.6254 38.2511 7.0409)" display="inline" width="0.816" height="6.113"/>
	
		<rect x="46.505" y="40.294" transform="matrix(0.625 -0.7806 0.7806 0.625 -16.2474 52.8783)" display="inline" width="0.816" height="6.11"/>
	
		<rect x="50.837" y="31.29" transform="matrix(0.2228 -0.9749 0.9749 0.2228 6.3466 76.6527)" display="inline" width="0.815" height="6.113"/>
	
		<rect x="50.839" y="21.292" transform="matrix(-0.2207 -0.9753 0.9753 -0.2207 38.8098 79.7046)" display="inline" width="0.814" height="6.113"/>
	
		<rect x="46.499" y="12.29" transform="matrix(-0.6238 -0.7816 0.7816 -0.6238 64.1726 61.5807)" display="inline" width="0.814" height="6.113"/>
	<polygon display="inline" points="38.134,12.047 37.401,11.693 40.05,6.186 40.789,6.54 	"/>
	
		<rect x="33.945" y="49.207" transform="matrix(0.9744 -0.2248 0.2248 0.9744 -10.6394 9.033)" display="inline" width="0.817" height="4.077"/>
	
		<rect x="23.945" y="5.42" transform="matrix(-0.975 0.2221 -0.2221 -0.975 49.753 9.3206)" display="inline" width="0.816" height="4.075"/>
	
		<rect x="14.941" y="9.756" transform="matrix(-0.7806 0.625 -0.625 -0.7806 34.7018 11.4079)" display="inline" width="0.816" height="4.076"/>
	
		<rect x="8.709" y="17.571" transform="matrix(-0.4309 0.9024 -0.9024 -0.4309 30.7421 19.8313)" display="inline" width="0.816" height="4.078"/>
	<rect x="4.856" y="28.946" display="inline" width="4.078" height="0.816"/>
	
		<rect x="8.714" y="37.058" transform="matrix(0.4357 0.9001 -0.9001 0.4357 40.3384 13.8523)" display="inline" width="0.816" height="4.078"/>
	
		<rect x="14.946" y="44.873" transform="matrix(0.7853 0.6191 -0.6191 0.7853 32.3408 0.5669)" display="inline" width="0.814" height="4.079"/>
	
		<rect x="23.953" y="49.209" transform="matrix(0.9748 0.2229 -0.2229 0.9748 12.0356 -4.1406)" display="inline" width="0.815" height="4.078"/>
	<rect x="28.948" y="48.755" display="inline" width="0.815" height="6.113"/>
	
		<rect x="38.691" y="46.529" transform="matrix(0.9015 -0.4328 0.4328 0.9015 -17.6092 21.8073)" display="inline" width="0.817" height="6.113"/>
	
		<rect x="19.207" y="46.532" transform="matrix(0.9006 0.4347 -0.4347 0.9006 23.5049 -3.5958)" display="inline" width="0.813" height="6.112"/>
	
		<rect x="42.951" y="44.869" transform="matrix(0.7806 -0.625 0.625 0.7806 -19.8051 37.3882)" display="inline" width="0.816" height="4.075"/>
	
		<rect x="49.179" y="37.048" transform="matrix(0.4309 -0.9024 0.9024 0.4309 -7.0516 66.9949)" display="inline" width="0.816" height="4.079"/>
	<rect x="49.772" y="28.938" display="inline" width="4.078" height="0.816"/>
	<polygon display="inline" points="47.925,20.853 47.567,20.118 51.246,18.353 51.597,19.085 	"/>
	<polygon display="inline" points="42.397,13.636 41.759,13.129 44.306,9.941 44.938,10.45 	"/>
	<polygon display="inline" points="34.289,9.532 33.494,9.352 34.405,5.376 35.194,5.56 	"/>
	<rect x="28.942" y="3.837" display="inline" width="0.815" height="6.113"/>
	<rect x="29.12" y="4.856" display="inline" width="0.459" height="4.078"/>
	
		<rect x="26.605" y="4.998" transform="matrix(0.9929 -0.1193 0.1193 0.9929 -0.6479 3.2519)" display="inline" width="0.458" height="4.078"/>
	
		<rect x="24.122" y="5.421" transform="matrix(0.9737 -0.2277 0.2277 0.9737 -1.059 5.7416)" display="inline" width="0.459" height="4.078"/>
	<polygon display="inline" points="21.043,6.31 21.477,6.155 22.82,10.006 22.389,10.154 	"/>
	
		<rect x="19.377" y="7.083" transform="matrix(0.8982 -0.4395 0.4395 0.8982 -2.0141 9.5459)" display="inline" width="0.459" height="4.078"/>
	
		<rect x="17.171" y="8.303" transform="matrix(0.8449 -0.535 0.535 0.8449 -2.833 10.9129)" display="inline" width="0.46" height="4.077"/>
	
		<rect x="15.118" y="9.762" transform="matrix(0.7807 -0.625 0.625 0.7807 -4.0077 12.18)" display="inline" width="0.461" height="4.076"/>
	
		<rect x="13.24" y="11.439" transform="matrix(0.705 -0.7092 0.7092 0.705 -5.5845 13.5291)" display="inline" width="0.46" height="4.077"/>
	
		<rect x="11.562" y="13.319" transform="matrix(0.62 -0.7846 0.7846 0.62 -7.5683 15.0872)" display="inline" width="0.46" height="4.077"/>
	
		<rect x="10.104" y="15.373" transform="matrix(0.5295 -0.8483 0.8483 0.5295 -9.908 16.9587)" display="inline" width="0.461" height="4.076"/>
	
		<rect x="8.888" y="17.578" transform="matrix(0.4331 -0.9013 0.9013 0.4331 -12.5118 19.3382)" display="inline" width="0.46" height="4.077"/>
	
		<rect x="7.925" y="19.906" transform="matrix(0.3277 -0.9448 0.9448 0.3277 -15.2495 22.4563)" display="inline" width="0.459" height="4.075"/>
	
		<rect x="7.228" y="22.325" transform="matrix(0.221 -0.9753 0.9753 0.221 -17.9517 26.2529)" display="inline" width="0.46" height="4.077"/>
	
		<rect x="6.806" y="24.81" transform="matrix(0.1103 -0.9939 0.9939 0.1103 -20.4237 30.8798)" display="inline" width="0.46" height="4.077"/>
	<polygon display="inline" points="4.859,29.591 4.857,29.13 8.934,29.134 8.934,29.589 	"/>
	
		<rect x="6.809" y="29.837" transform="matrix(-0.1146 -0.9934 0.9934 -0.1146 -23.8195 42.5208)" display="inline" width="0.46" height="4.076"/>
	
		<rect x="7.233" y="32.322" transform="matrix(-0.2255 -0.9742 0.9742 -0.2255 -24.33 49.3776)" display="inline" width="0.459" height="4.076"/>
	<polygon display="inline" points="6.312,37.667 6.158,37.233 10.008,35.892 10.156,36.322 	"/>
	<polygon display="inline" points="7.387,40.194 7.186,39.781 10.861,38.019 11.059,38.427 	"/>
	
		<rect x="10.112" y="39.273" transform="matrix(-0.5369 -0.8437 0.8437 -0.5369 -18.9604 72.2158)" display="inline" width="0.458" height="4.077"/>
	
		<rect x="11.574" y="41.329" transform="matrix(-0.6273 -0.7788 0.7788 -0.6273 -14.5671 79.7619)" display="inline" width="0.458" height="4.076"/>
	
		<rect x="13.25" y="43.205" transform="matrix(-0.7092 -0.705 0.705 -0.7092 -8.8553 86.8319)" display="inline" width="0.46" height="4.073"/>
	
		<rect x="15.129" y="44.886" transform="matrix(-0.7834 -0.6216 0.6216 -0.7834 -1.7766 93.2265)" display="inline" width="0.459" height="4.074"/>
	<polygon display="inline" points="16.521,50.222 16.131,49.978 18.305,46.533 18.689,46.771 	"/>
	<polygon display="inline" points="18.939,51.528 18.523,51.33 20.299,47.662 20.707,47.856 	"/>
	
		<rect x="21.716" y="48.523" transform="matrix(-0.9436 -0.3312 0.3312 -0.9436 25.9105 105.5358)" display="inline" width="0.46" height="4.074"/>
	<polygon display="inline" points="24.135,53.291 23.686,53.188 24.6,49.218 25.041,49.315 	"/>
	<polygon display="inline" points="26.848,53.726 26.389,53.673 26.854,49.626 27.305,49.673 	"/>
	<polygon display="inline" points="29.592,53.853 29.131,53.853 29.139,49.778 29.592,49.776 	"/>
	<polygon display="inline" points="32.333,53.673 31.875,53.724 31.427,49.675 31.876,49.623 	"/>
	<polygon display="inline" points="35.037,53.187 34.587,53.289 33.688,49.315 34.13,49.212 	"/>
	<polygon display="inline" points="37.669,52.399 37.233,52.552 35.896,48.705 36.324,48.552 	"/>
	<polygon display="inline" points="40.199,51.326 39.783,51.524 38.021,47.851 38.431,47.651 	"/>
	<polygon display="inline" points="42.589,49.974 42.199,50.218 40.039,46.765 40.421,46.521 	"/>
	<polygon display="inline" points="44.815,48.362 44.455,48.649 41.921,45.458 42.274,45.173 	"/>
	<polygon display="inline" points="46.847,46.513 46.519,46.837 43.644,43.951 43.964,43.626 	"/>
	<polygon display="inline" points="48.658,44.447 48.369,44.806 45.188,42.259 45.47,41.901 	"/>
	<polygon display="inline" points="50.226,42.19 49.979,42.58 46.535,40.406 46.774,40.019 	"/>
	<polygon display="inline" points="51.533,39.772 51.332,40.187 47.664,38.414 47.858,38.001 	"/>
	<polygon display="inline" points="52.56,37.224 52.405,37.658 48.562,36.306 48.71,35.875 	"/>
	<polygon display="inline" points="53.296,34.576 53.188,35.024 49.22,34.112 49.319,33.667 	"/>
	<polygon display="inline" points="53.729,31.862 53.675,32.322 49.628,31.858 49.677,31.406 	"/>
	<rect x="49.782" y="29.116" display="inline" width="4.074" height="0.461"/>
	<polygon display="inline" points="53.677,26.376 53.726,26.835 49.677,27.284 49.625,26.832 	"/>
	<polygon display="inline" points="53.19,23.672 53.291,24.123 49.317,25.022 49.214,24.579 	"/>
	<polygon display="inline" points="52.403,21.039 52.554,21.477 48.708,22.814 48.554,22.386 	"/>
	<polygon display="inline" points="51.328,18.511 51.526,18.929 47.854,20.688 47.653,20.279 	"/>
	<polygon display="inline" points="49.976,16.118 50.22,16.512 46.767,18.672 46.522,18.288 	"/>
	<polygon display="inline" points="48.365,13.894 48.649,14.257 45.462,16.79 45.175,16.436 	"/>
	<polygon display="inline" points="46.513,11.862 46.839,12.191 43.955,15.065 43.63,14.745 	"/>
	<polygon display="inline" points="44.446,10.051 44.808,10.342 42.263,13.521 41.903,13.239 	"/>
	<polygon display="inline" points="42.19,8.482 42.582,8.731 40.41,12.175 40.021,11.936 	"/>
	<polygon display="inline" points="39.772,7.177 40.188,7.381 38.416,11.046 38.003,10.851 	"/>
	<polygon display="inline" points="37.224,6.15 37.662,6.306 36.31,10.146 35.878,9.999 	"/>
	<polygon display="inline" points="34.578,5.415 35.028,5.521 34.115,9.488 33.669,9.391 	"/>
	<polygon display="inline" points="31.865,4.981 32.324,5.035 31.86,9.08 31.408,9.033 	"/>
	<path display="inline" d="M49.49,10.851c-0.26-0.28-0.529-0.56-0.81-0.83c0.31,0.31,0.61,0.63,0.91,0.95
		C49.561,10.931,49.53,10.891,49.49,10.851z"/>
</g>
<g id="Layer_2">
	<g>
		<path d="M24.486,41.597c0.436,1.586-0.498,3.228-2.076,3.662l-0.051,0.012c0.942-0.522,1.441-1.646,1.143-2.737
			c-0.354-1.287-1.684-2.054-2.971-1.699c-1.072,0.293-1.778,1.272-1.784,2.342c-0.437-1.588,0.501-3.221,2.087-3.655
			C22.411,39.085,24.051,40.009,24.486,41.597z"/>
		<polygon points="33.556,18.373 37.701,14.118 36.16,19.854 		"/>
		<rect x="28.367" y="17.283" transform="matrix(-0.8692 -0.4945 0.4945 -0.8692 38.9578 70.0364)" width="0.751" height="25.164"/>
	</g>
	<path display="none" d="M33.308,27.066c1.26,2.183,0.51,4.984-1.674,6.244c-2.181,1.26-4.972,0.504-6.234-1.678
		c-1.068-1.854-0.688-4.153,0.791-5.573L15.969,6.374l0.174-0.1L28.078,24.97C30.056,24.395,32.237,25.214,33.308,27.066z"/>
</g>
<path display="none" d="M2.23,54.681c-1,0-1.8,0.8-1.8,1.79c0,1,0.8,1.8,1.8,1.8c0.99,0,1.79-0.8,1.79-1.8
	C4.021,55.48,3.221,54.681,2.23,54.681z M2.23,0.431c-1,0-1.8,0.8-1.8,1.8c0,0.99,0.8,1.79,1.8,1.79c0.99,0,1.79-0.8,1.79-1.79
	C4.021,1.23,3.221,0.431,2.23,0.431z M56.471,54.681c-0.99,0-1.79,0.8-1.79,1.79c0,1,0.8,1.8,1.79,1.8c1,0,1.8-0.8,1.8-1.8
	C58.271,55.48,57.471,54.681,56.471,54.681z M56.471,0.431c-0.99,0-1.79,0.8-1.79,1.8c0,0.99,0.8,1.79,1.79,1.79
	c1,0,1.8-0.8,1.8-1.79C58.271,1.23,57.471,0.431,56.471,0.431z"/>
<g display="none">
	<path display="inline" d="M60.271-1.56c-0.13-0.12-0.26-0.24-0.39-0.35c-0.13-0.11-0.271-0.22-0.41-0.31
		c-0.29-0.19-0.601-0.37-0.92-0.5c-0.49-0.2-1.01-0.34-1.55-0.4c-0.181-0.01-0.37-0.02-0.551-0.02c-0.189,0-0.38,0.01-0.56,0.02
		c0.18-0.02,0.37-0.03,0.56-0.03H2.241c0.19,0,0.38,0.01,0.56,0.03c-0.18-0.01-0.37-0.02-0.56-0.02s-0.36,0.01-0.55,0.02
		c-0.54,0.06-1.06,0.2-1.54,0.4c-0.32,0.13-0.63,0.31-0.92,0.5c-0.14,0.09-0.28,0.2-0.41,0.31c-0.13,0.11-0.26,0.23-0.39,0.35
		c-0.98,0.98-1.58,2.32-1.58,3.8v54.22c0,1.479,0.6,2.819,1.58,3.8c0.13,0.12,0.26,0.24,0.39,0.35c0.13,0.11,0.27,0.221,0.41,0.311
		c0.29,0.189,0.6,0.37,0.92,0.5c0.48,0.21,1,0.34,1.54,0.399c0.19,0.011,0.36,0.021,0.55,0.021s0.38-0.01,0.56-0.021
		c-0.18,0.021-0.37,0.03-0.56,0.03H56.45c2.99,0,5.4-2.41,5.4-5.4V2.241C61.851,0.761,61.251-0.58,60.271-1.56z M2.23,0.431
		c0.99,0,1.79,0.8,1.79,1.8c0,0.99-0.8,1.79-1.79,1.79c-1,0-1.8-0.8-1.8-1.79C0.431,1.23,1.23,0.431,2.23,0.431z M2.23,58.271
		c-1,0-1.8-0.8-1.8-1.8c0-0.99,0.8-1.79,1.8-1.79c0.99,0,1.79,0.8,1.79,1.79C4.021,57.471,3.221,58.271,2.23,58.271z M54.291,40.561
		c-0.12,0.28-0.25,0.56-0.391,0.83c-0.069,0.15-0.149,0.31-0.24,0.46c-0.109,0.23-0.229,0.46-0.359,0.69
		c-0.181,0.329-0.37,0.659-0.57,0.979c-0.22,0.37-0.46,0.74-0.71,1.11c-0.24,0.359-0.49,0.72-0.76,1.069
		c-0.15,0.21-0.311,0.42-0.48,0.62c-0.649,0.83-1.359,1.62-2.1,2.36c-0.3,0.31-0.62,0.62-0.95,0.91c-0.26,0.24-0.53,0.47-0.8,0.689
		c-0.09,0.08-0.17,0.15-0.26,0.23c-0.311,0.26-0.641,0.51-0.971,0.75c-0.33,0.25-0.659,0.49-1,0.71c-0.04,0.03-0.08,0.06-0.13,0.09
		c-0.29,0.2-0.59,0.39-0.89,0.57c-0.13,0.09-0.26,0.17-0.4,0.239c-0.189,0.12-0.38,0.23-0.569,0.33c-0.29,0.17-0.58,0.33-0.88,0.471
		c-0.07,0.05-0.15,0.09-0.221,0.12c-0.38,0.199-0.77,0.38-1.16,0.55c-0.02,0.01-0.04,0.02-0.06,0.029
		c-0.4,0.181-0.82,0.351-1.23,0.511c-0.029,0.01-0.06,0.02-0.09,0.029c-0.39,0.15-0.79,0.301-1.189,0.421
		c-0.05,0.02-0.101,0.039-0.15,0.05c-0.439,0.149-0.88,0.279-1.32,0.39c-0.46,0.13-0.92,0.24-1.38,0.33
		c-0.41,0.09-0.819,0.17-1.229,0.23c-1.45,0.25-2.94,0.369-4.45,0.369C14.271,56.7,2,44.431,2,29.351S14.271,2,29.351,2
		c0.96,0,1.91,0.05,2.85,0.15c0.471,0.05,0.94,0.11,1.4,0.19c0.47,0.06,0.93,0.15,1.39,0.25c0.681,0.14,1.351,0.31,2.011,0.51
		c0.33,0.09,0.659,0.19,0.989,0.31c1.311,0.43,2.591,0.97,3.811,1.6c0.31,0.16,0.609,0.32,0.91,0.49
		c0.159,0.09,0.319,0.18,0.47,0.28c0.2,0.1,0.39,0.21,0.57,0.33c0.22,0.14,0.439,0.27,0.649,0.42c0.16,0.1,0.311,0.2,0.46,0.31
		c0.24,0.16,0.471,0.32,0.7,0.5c0.12,0.09,0.25,0.18,0.37,0.28c0.22,0.16,0.439,0.32,0.65,0.51c0.14,0.11,0.279,0.23,0.42,0.35
		c0.25,0.19,0.489,0.41,0.729,0.63c0.33,0.29,0.65,0.6,0.95,0.91c0.28,0.27,0.55,0.55,0.81,0.83c0.04,0.04,0.07,0.08,0.101,0.12
		c0.3,0.32,0.58,0.65,0.859,0.99c0.28,0.34,0.551,0.69,0.811,1.04c0.27,0.35,0.52,0.71,0.76,1.07c0.26,0.37,0.49,0.74,0.71,1.11
		c0.23,0.36,0.43,0.72,0.62,1.08c0.04,0.06,0.07,0.11,0.09,0.16c0.19,0.34,0.37,0.68,0.53,1.02c0.149,0.32,0.3,0.63,0.43,0.95
		c0.12,0.25,0.22,0.5,0.32,0.75c0.08,0.19,0.149,0.38,0.22,0.57c0.07,0.17,0.13,0.35,0.19,0.52c0.1,0.26,0.189,0.52,0.27,0.78
		c0.04,0.14,0.09,0.27,0.13,0.41c0.07,0.24,0.141,0.48,0.2,0.73c0.08,0.27,0.15,0.54,0.21,0.82c0.09,0.34,0.16,0.68,0.23,1.02
		c0.06,0.31,0.12,0.63,0.17,0.95c0.06,0.34,0.109,0.68,0.14,1.02c0.04,0.25,0.07,0.5,0.09,0.76c0.04,0.4,0.07,0.81,0.09,1.22
		c0.03,0.47,0.04,0.94,0.04,1.41s-0.01,0.94-0.04,1.41c-0.02,0.39-0.04,0.79-0.09,1.18c-0.01,0.21-0.029,0.41-0.06,0.61
		c-0.03,0.3-0.07,0.6-0.12,0.899c-0.01,0.091-0.03,0.19-0.05,0.28c-0.04,0.28-0.09,0.561-0.15,0.851
		c-0.05,0.289-0.109,0.579-0.18,0.869c-0.021,0.091-0.04,0.17-0.061,0.261c-0.069,0.31-0.149,0.609-0.239,0.909
		c-0.04,0.171-0.091,0.341-0.141,0.511c-0.06,0.189-0.12,0.39-0.18,0.58c-0.07,0.229-0.15,0.46-0.24,0.689
		c-0.069,0.22-0.149,0.44-0.229,0.66c-0.04,0.11-0.09,0.23-0.141,0.34c-0.109,0.311-0.239,0.601-0.37,0.9
		C54.37,40.391,54.341,40.471,54.291,40.561z M56.471,58.271c-0.99,0-1.79-0.8-1.79-1.8c0-0.99,0.8-1.79,1.79-1.79
		c1,0,1.8,0.8,1.8,1.79C58.271,57.471,57.471,58.271,56.471,58.271z M56.471,4.021c-0.99,0-1.79-0.8-1.79-1.79c0-1,0.8-1.8,1.79-1.8
		c1,0,1.8,0.8,1.8,1.8C58.271,3.221,57.471,4.021,56.471,4.021z"/>
	<path display="inline" fill="#FFFFFF" d="M4.021,2.23c0,0.99-0.8,1.79-1.79,1.79c-1,0-1.8-0.8-1.8-1.79c0-1,0.8-1.8,1.8-1.8
		C3.221,0.431,4.021,1.23,4.021,2.23z"/>
	<path display="inline" fill="#FFFFFF" d="M58.271,2.23c0,0.99-0.8,1.79-1.8,1.79c-0.99,0-1.79-0.8-1.79-1.79c0-1,0.8-1.8,1.79-1.8
		C57.471,0.431,58.271,1.23,58.271,2.23z"/>
	<path display="inline" fill="#FFFFFF" d="M58.271,56.471c0,1-0.8,1.8-1.8,1.8c-0.99,0-1.79-0.8-1.79-1.8c0-0.99,0.8-1.79,1.79-1.79
		C57.471,54.681,58.271,55.48,58.271,56.471z"/>
	<path display="inline" fill="#FFFFFF" d="M4.021,56.471c0,1-0.8,1.8-1.79,1.8c-1,0-1.8-0.8-1.8-1.8c0-0.99,0.8-1.79,1.8-1.79
		C3.221,54.681,4.021,55.48,4.021,56.471z"/>
</g>
</svg>
