<?xml version="1.0" encoding="utf-8"?>
<!-- Generator: Adobe Illustrator 16.0.0, SVG Export Plug-In . SVG Version: 6.00 Build 0)  -->
<!DOCTYPE svg PUBLIC "-//W3C//DTD SVG 1.1//EN" "http://www.w3.org/Graphics/SVG/1.1/DTD/svg11.dtd">
<svg version="1.1" id="Layer_1" xmlns="http://www.w3.org/2000/svg" xmlns:xlink="http://www.w3.org/1999/xlink" x="0px" y="0px"
	 width="7.189px" height="5.771px" viewBox="21.589 2.946 7.189 5.771" enable-background="new 21.589 2.946 7.189 5.771"
	 xml:space="preserve">
<g id="Layer_1_1_" display="none">
	<g display="inline">
		<rect x="5.162" y="28.749" fill="#010101" width="11.72" height="1.189"/>
	</g>
	<path display="inline" fill="none" d="M13.11,32.687c-0.04-0.23-0.07-0.46-0.09-0.689"/>
	<path display="inline" fill="#010101" d="M13.11,32.687l-7.45,0.1c-0.04-0.229-0.07-0.449-0.09-0.68l7.45-0.109
		C13.04,32.227,13.07,32.457,13.11,32.687z"/>
	<g display="inline">
		<path fill="#010101" d="M14.031,35.878l-0.3,0.061l-7.59,0.2l-0.061-0.181c-0.07-0.22-0.13-0.45-0.189-0.7l-0.08-0.3l7.939-0.22
			l0.04,0.21c0.05,0.21,0.101,0.42,0.16,0.63L14.031,35.878z"/>
	</g>
	<path display="inline" fill="#010101" d="M14.76,38.677l-7.34,0.289c-0.1-0.219-0.189-0.448-0.29-0.688l7.351-0.29
		C14.57,38.216,14.66,38.447,14.76,38.677z"/>
	<g display="inline">
		<path fill="#010101" d="M16.721,41.878l-7.811,0.41l-0.08-0.13c-0.149-0.221-0.29-0.46-0.41-0.7l-0.18-0.34l7.79-0.41l0.07,0.141
			c0.12,0.229,0.25,0.449,0.39,0.659L16.721,41.878z"/>
	</g>
	<path display="inline" fill="#010101" d="M18.36,44.597l-7.07,0.46c-0.2-0.221-0.38-0.44-0.56-0.672l7.1-0.459
		C18,44.157,18.18,44.376,18.36,44.597z"/>
	<g display="inline">
		<path fill="#010101" d="M21.841,47.678l-7.449,0.579h-0.101l-0.069-0.05c-0.25-0.18-0.511-0.399-0.79-0.66l-0.421-0.38l7.54-0.609
			l0.091,0.08c0.239,0.25,0.47,0.46,0.699,0.641L21.841,47.678z"/>
	</g>
	<path display="inline" fill="#010101" d="M13.11,26.007c-0.04,0.221-0.07,0.45-0.09,0.681l-7.45-0.101
		c0.02-0.229,0.05-0.449,0.09-0.68L13.11,26.007z"/>
	<g display="inline">
		<path fill="#010101" d="M14.042,22.758l-0.08,0.301c-0.06,0.25-0.12,0.46-0.17,0.689l-0.04,0.2l-7.939-0.21l0.08-0.3
			c0.06-0.25,0.12-0.48,0.189-0.71l0.061-0.181L14.042,22.758z"/>
	</g>
	<path display="inline" fill="#010101" d="M14.76,20.017c-0.1,0.22-0.189,0.449-0.27,0.68l-7.35-0.29
		c0.09-0.23,0.18-0.46,0.279-0.68L14.76,20.017z"/>
	<g display="inline">
		<path fill="#010101" d="M16.721,16.818l-0.23,0.36c-0.13,0.21-0.27,0.43-0.38,0.659l-0.07,0.15l-7.8-0.41l0.18-0.35
			c0.12-0.23,0.261-0.471,0.41-0.7l0.08-0.12L16.721,16.818z"/>
	</g>
	<path display="inline" fill="#010101" d="M18.36,14.097c-0.18,0.22-0.36,0.439-0.53,0.67l-7.1-0.46c0.18-0.23,0.359-0.45,0.56-0.67
		L18.36,14.097z"/>
	<g display="inline">
		<path fill="#010101" d="M21.841,11.019l-0.5,0.39c-0.21,0.17-0.43,0.38-0.71,0.64l-0.08,0.08l-7.54-0.6l0.421-0.39
			c0.279-0.25,0.54-0.471,0.8-0.66l0.069-0.061L21.841,11.019z"/>
	</g>
	<path display="inline" fill="#010101" d="M36.564,8.987l-3.352-3.68c-0.06-0.07-0.14-0.11-0.229-0.11h-7.28
		c-0.08,0-0.16,0.04-0.22,0.11l-3.351,3.68c-0.079,0.1-0.091,0.229-0.051,0.35c0.011,0.021,0.021,0.051,0.051,0.07l0.061,0.07
		l7.149,8.02l7.149-8.02l0.07-0.07c0.02-0.02,0.028-0.05,0.04-0.07C36.654,9.217,36.633,9.087,36.564,8.987z M32.634,5.837
		l-0.521,2.66l-2.12-2.66H32.634z M31.644,8.876h-4.59l2.289-2.81L31.644,8.876z M28.704,5.837l-2.12,2.67l-0.52-2.67H28.704z
		 M25.534,6.167l0.53,2.71h-3.09L25.534,6.167z M23.064,9.527h3.16l2.26,6.02L23.064,9.527z M26.844,9.527h5.011l-2.511,6.5
		L26.844,9.527z M30.213,15.527l2.262-6h3.148L30.213,15.527z M32.634,8.876l0.529-2.71l2.55,2.71H32.634z"/>
	<path display="inline" d="M58.662,28.068c-0.01-0.24-0.03-0.47-0.05-0.71c-0.021-0.2-0.04-0.41-0.062-0.61
		c-1.29-14.97-13.898-26.75-29.199-26.75c-16.19,0-29.351,13.17-29.351,29.351s13.16,29.34,29.351,29.34
		c14.859,0,27.169-11.101,29.06-25.46c0-0.011,0-0.011,0-0.021c0.04-0.26,0.069-0.51,0.1-0.771c0.011-0.04,0.011-0.09,0.011-0.13
		c0.011-0.011,0.011-0.029,0.011-0.04c0.02-0.08,0.02-0.17,0.02-0.271c0.021-0.149,0.03-0.3,0.051-0.45
		c0.029-0.229,0.04-0.46,0.051-0.688c0.01-0.051,0.01-0.091,0.01-0.142c0.01-0.199,0.021-0.398,0.021-0.59v-0.069
		c0.01-0.229,0.01-0.449,0.01-0.67v-0.091C58.691,28.888,58.681,28.479,58.662,28.068z M29.352,56.688
		c-15.08,0-27.351-12.26-27.351-27.34S14.272,1.998,29.352,1.998c7.819,0,14.879,3.3,19.859,8.58c-2.319,2.68-4.09,5.72-5.271,9.04
		c-0.22,0.6-0.399,1.16-0.55,1.71c-0.729,2.561-1.101,5.22-1.101,7.92c0,6.95,2.479,13.57,7,18.771
		C44.311,53.348,37.211,56.688,29.352,56.688z M43.292,29.249c0-2.6,0.36-5.17,1.07-7.649c0.14-0.53,0.31-1.07,0.52-1.641
		c1.12-3.18,2.811-6.08,5.011-8.64c0.431,0.49,0.84,0.99,1.221,1.51c-1.94,2.311-3.49,4.96-4.521,7.86
		c-0.18,0.5-0.34,1.01-0.479,1.529c-0.65,2.25-0.99,4.62-0.99,7.08c0,6.301,2.26,12.07,6.03,16.53
		c-0.381,0.49-0.771,0.97-1.181,1.439C45.652,42.268,43.292,35.909,43.292,29.249z"/>
	<path display="inline" d="M34.06,53.717h-9.428c-1.243,0-2.256-1.019-2.256-2.271c0-1.01,0.688-1.88,1.618-2.151
		c-0.078-0.224-0.119-0.46-0.119-0.702c0-0.964,0.653-1.777,1.54-2.023c-0.074-0.219-0.111-0.447-0.111-0.676
		c0-0.958,0.641-1.77,1.523-2.013c-0.062-0.454,0.037-1.021,0.407-1.553c0.149-0.21,0.217-0.39,0.194-0.527
		c-0.017-0.096-0.075-0.153-0.076-0.153l-0.096-0.101c-0.082-0.125-0.14-0.342-0.03-0.541c0.108-0.202,0.335-0.306,0.671-0.306
		c0.101,0,0.225,0.009,0.377,0.03c1.185,0.2,3.461,1.424,3.744,3.396c0.937,0.218,1.607,1.043,1.607,2.034
		c0,0.124-0.011,0.246-0.031,0.365c0.81,0.288,1.36,1.058,1.36,1.967c0,0.288-0.059,0.568-0.17,0.825
		c0.891,0.299,1.527,1.143,1.527,2.128C36.315,52.699,35.303,53.717,34.06,53.717z M32.242,47.429
		c-0.641,0.625-3.139,2.346-6.973,2.509l-0.697,0.02c-0.796,0.021-1.444,0.689-1.444,1.489c0,0.839,0.677,1.521,1.506,1.521h9.428
		c0.83,0,1.505-0.682,1.505-1.521c0-0.79-0.614-1.445-1.399-1.49c0,0-4.434,0.978-5.229,0.978c2.03-0.203,4.813-1.468,4.966-1.596
		s0.306-0.529,0.306-0.845c0-0.679-0.476-1.236-1.132-1.325l-0.487-0.065l0.193-0.452c0.064-0.151,0.097-0.315,0.097-0.488
		c0-0.705-0.53-1.279-1.234-1.335L31.309,44.8l-0.013-0.335c-0.059-1.764-2.236-2.842-3.137-2.992
		c-0.017-0.004-0.033-0.006-0.05-0.008c0.024,0.064,0.046,0.137,0.06,0.216c0.057,0.344-0.053,0.707-0.321,1.082
		c-0.356,0.511-0.327,1.131-0.21,1.253c0.392,0.407,1.599,0.161,1.599,0.161c-0.641,0.24-1.917,0.382-1.917,0.382
		c-0.71,0.032-1.267,0.618-1.267,1.335c0,0.266,0.081,0.532,0.235,0.771c0,0,2.873-0.142,4.467-1.282
		c-0.241,0.651-3.008,1.725-4.78,1.861c-0.781,0.062-1.351,0.605-1.351,1.35c0,0.279,0.084,0.548,0.243,0.774
		C24.87,49.368,29.023,49.367,32.242,47.429z"/>
</g>
<path display="none" d="M32.811,43.087c-1.859-2.881,0.654-2.985,0-6.076C34.409,39.839,32.156,40.101,32.811,43.087z"/>
<path display="none" d="M35.837,48.751c-1.267-1.962,0.445-2.033,0-4.139C36.925,46.54,35.391,46.718,35.837,48.751z"/>
<path display="none" d="M23.979,45.367c1.735-2.688-0.611-2.787,0-5.673C22.488,42.333,24.59,42.58,23.979,45.367z"/>
<path display="none" d="M43.593,23.392c-0.142,0.567-0.262,1.144-0.352,1.727l-32.945-7.508l0.164-0.741L43.593,23.392z"/>
<path display="none" d="M44.747,28.126c-0.029,0.584-0.035,1.172-0.011,1.762L10.96,28.916l0.018-0.759L44.747,28.126z"/>
<g>
	<polygon points="25.46,5.85 21.589,5.531 25.469,5.187 28.778,5.518 	"/>
	<polygon points="25.258,5.533 25.514,2.946 25.79,5.54 25.524,8.717 	"/>
</g>
</svg>
