<?xml version="1.0" encoding="utf-8"?>
<!-- Generator: Adobe Illustrator 16.0.0, SVG Export Plug-In . SVG Version: 6.00 Build 0)  -->
<!DOCTYPE svg PUBLIC "-//W3C//DTD SVG 1.1//EN" "http://www.w3.org/Graphics/SVG/1.1/DTD/svg11.dtd">
<svg version="1.1" id="Layer_1" xmlns="http://www.w3.org/2000/svg" xmlns:xlink="http://www.w3.org/1999/xlink" x="0px" y="0px"
	 width="65px" height="65px" viewBox="0 0 65 65" enable-background="new 0 0 65 65" xml:space="preserve">
<path d="M63.42,1.59c-0.13-0.12-0.26-0.24-0.39-0.35c-0.13-0.11-0.271-0.22-0.41-0.31c-0.29-0.19-0.601-0.37-0.92-0.5
	c-0.49-0.2-1.01-0.34-1.55-0.4C59.97,0.02,59.78,0.01,59.6,0.01c-0.189,0-0.38,0.01-0.56,0.02C59.22,0.01,59.41,0,59.6,0H5.39
	c0.19,0,0.38,0.01,0.56,0.03C5.77,0.02,5.58,0.01,5.39,0.01S5.03,0.02,4.84,0.03C4.3,0.09,3.78,0.23,3.3,0.43
	c-0.32,0.13-0.63,0.31-0.92,0.5C2.24,1.02,2.1,1.13,1.97,1.24C1.84,1.35,1.71,1.47,1.58,1.59C0.6,2.57,0,3.91,0,5.39v54.22
	c0,1.479,0.6,2.819,1.58,3.8c0.13,0.12,0.26,0.24,0.39,0.35c0.13,0.11,0.27,0.221,0.41,0.311c0.29,0.189,0.6,0.37,0.92,0.5
	c0.48,0.21,1,0.34,1.54,0.399C5.03,64.98,5.2,64.99,5.39,64.99s0.38-0.01,0.56-0.021C5.77,64.99,5.58,65,5.39,65H59.6
	c2.99,0,5.4-2.41,5.4-5.4V5.39C65,3.91,64.4,2.57,63.42,1.59z M5.38,3.58c0.99,0,1.79,0.8,1.79,1.8c0,0.99-0.8,1.79-1.79,1.79
	c-1,0-1.8-0.8-1.8-1.79C3.58,4.38,4.38,3.58,5.38,3.58z M5.38,61.42c-1,0-1.8-0.8-1.8-1.8c0-0.99,0.8-1.79,1.8-1.79
	c0.99,0,1.79,0.8,1.79,1.79C7.17,60.62,6.37,61.42,5.38,61.42z M57.44,43.71c-0.12,0.28-0.25,0.56-0.391,0.83
	C56.98,44.69,56.9,44.85,56.81,45c-0.109,0.23-0.229,0.46-0.359,0.69c-0.181,0.329-0.37,0.659-0.57,0.979
	c-0.22,0.37-0.46,0.74-0.71,1.11c-0.24,0.359-0.49,0.72-0.76,1.069c-0.15,0.21-0.311,0.42-0.48,0.62
	c-0.649,0.83-1.359,1.62-2.1,2.36c-0.3,0.31-0.62,0.62-0.95,0.91c-0.26,0.24-0.53,0.47-0.8,0.689c-0.09,0.08-0.17,0.15-0.26,0.23
	c-0.311,0.26-0.641,0.51-0.971,0.75c-0.33,0.25-0.659,0.49-1,0.71c-0.04,0.03-0.08,0.06-0.13,0.09c-0.29,0.2-0.59,0.39-0.89,0.57
	c-0.13,0.09-0.26,0.17-0.4,0.239c-0.189,0.12-0.38,0.23-0.569,0.33c-0.29,0.17-0.58,0.33-0.88,0.471
	c-0.07,0.05-0.15,0.09-0.221,0.12c-0.38,0.199-0.77,0.38-1.16,0.55c-0.02,0.01-0.04,0.02-0.06,0.029
	c-0.4,0.181-0.82,0.351-1.23,0.511c-0.029,0.01-0.06,0.02-0.09,0.029c-0.39,0.15-0.79,0.301-1.189,0.421
	c-0.05,0.02-0.101,0.039-0.15,0.05C40.44,58.68,40,58.81,39.56,58.92c-0.46,0.13-0.92,0.24-1.38,0.33
	c-0.41,0.09-0.819,0.17-1.229,0.23c-1.45,0.25-2.94,0.369-4.45,0.369c-15.08,0-27.35-12.27-27.35-27.35S17.42,5.15,32.5,5.15
	c0.96,0,1.91,0.05,2.85,0.15c0.471,0.05,0.94,0.11,1.4,0.19c0.47,0.06,0.93,0.15,1.39,0.25c0.681,0.14,1.351,0.31,2.011,0.51
	c0.33,0.09,0.659,0.19,0.989,0.31c1.311,0.43,2.591,0.97,3.811,1.6c0.31,0.16,0.609,0.32,0.91,0.49c0.159,0.09,0.319,0.18,0.47,0.28
	c0.2,0.1,0.39,0.21,0.57,0.33c0.22,0.14,0.439,0.27,0.649,0.42c0.16,0.1,0.311,0.2,0.46,0.31c0.24,0.16,0.471,0.32,0.7,0.5
	c0.12,0.09,0.25,0.18,0.37,0.28c0.22,0.16,0.439,0.32,0.65,0.51c0.14,0.11,0.279,0.23,0.42,0.35c0.25,0.19,0.489,0.41,0.729,0.63
	c0.33,0.29,0.65,0.6,0.95,0.91c0.28,0.27,0.55,0.55,0.81,0.83c0.04,0.04,0.07,0.08,0.101,0.12c0.3,0.32,0.58,0.65,0.859,0.99
	c0.28,0.34,0.551,0.69,0.811,1.04c0.27,0.35,0.52,0.71,0.76,1.07c0.26,0.37,0.49,0.74,0.71,1.11c0.23,0.36,0.43,0.72,0.62,1.08
	c0.04,0.06,0.07,0.11,0.09,0.16c0.19,0.34,0.37,0.68,0.53,1.02c0.149,0.32,0.3,0.63,0.43,0.95c0.12,0.25,0.22,0.5,0.32,0.75
	c0.08,0.19,0.149,0.38,0.22,0.57c0.07,0.17,0.13,0.35,0.19,0.52c0.1,0.26,0.189,0.52,0.27,0.78c0.04,0.14,0.09,0.27,0.13,0.41
	c0.07,0.24,0.141,0.48,0.2,0.73c0.08,0.27,0.15,0.54,0.21,0.82c0.09,0.34,0.16,0.68,0.23,1.02c0.06,0.31,0.12,0.63,0.17,0.95
	c0.06,0.34,0.109,0.68,0.14,1.02c0.04,0.25,0.07,0.5,0.09,0.76c0.04,0.4,0.07,0.81,0.09,1.22c0.03,0.47,0.04,0.94,0.04,1.41
	s-0.01,0.94-0.04,1.41c-0.02,0.39-0.04,0.79-0.09,1.18c-0.01,0.21-0.029,0.41-0.06,0.61c-0.03,0.3-0.07,0.6-0.12,0.899
	c-0.01,0.091-0.03,0.19-0.05,0.28c-0.04,0.28-0.09,0.561-0.15,0.851c-0.05,0.289-0.109,0.579-0.18,0.869
	c-0.021,0.091-0.04,0.17-0.061,0.261c-0.069,0.31-0.149,0.609-0.239,0.909c-0.04,0.171-0.091,0.341-0.141,0.511
	c-0.06,0.189-0.12,0.39-0.18,0.58c-0.07,0.229-0.15,0.46-0.24,0.689c-0.069,0.22-0.149,0.44-0.229,0.66
	c-0.04,0.11-0.09,0.23-0.141,0.34c-0.109,0.311-0.239,0.601-0.37,0.9C57.52,43.54,57.49,43.62,57.44,43.71z M59.62,61.42
	c-0.99,0-1.79-0.8-1.79-1.8c0-0.99,0.8-1.79,1.79-1.79c1,0,1.8,0.8,1.8,1.79C61.42,60.62,60.62,61.42,59.62,61.42z M59.62,7.17
	c-0.99,0-1.79-0.8-1.79-1.79c0-1,0.8-1.8,1.79-1.8c1,0,1.8,0.8,1.8,1.8C61.42,6.37,60.62,7.17,59.62,7.17z"/>
<path fill="#FFFFFF" d="M7.171,5.38c0,0.99-0.8,1.79-1.79,1.79c-1,0-1.8-0.8-1.8-1.79c0-1,0.8-1.8,1.8-1.8
	C6.371,3.581,7.171,4.38,7.171,5.38z"/>
<path fill="#FFFFFF" d="M61.421,5.38c0,0.99-0.801,1.79-1.801,1.79c-0.99,0-1.789-0.8-1.789-1.79c0-1,0.799-1.8,1.789-1.8
	C60.62,3.581,61.421,4.38,61.421,5.38z"/>
<path fill="#FFFFFF" d="M61.421,59.621c0,1-0.801,1.801-1.801,1.801c-0.99,0-1.789-0.801-1.789-1.801
	c0-0.99,0.799-1.789,1.789-1.789C60.62,57.832,61.421,58.631,61.421,59.621z"/>
<path fill="#FFFFFF" d="M7.171,59.621c0,1-0.8,1.801-1.79,1.801c-1,0-1.8-0.801-1.8-1.801c0-0.99,0.8-1.789,1.8-1.789
	C6.371,57.832,7.171,58.631,7.171,59.621z"/>
</svg>
