<?xml version="1.0" encoding="utf-8"?>
<!-- Generator: Adobe Illustrator 16.0.0, SVG Export Plug-In . SVG Version: 6.00 Build 0)  -->
<!DOCTYPE svg PUBLIC "-//W3C//DTD SVG 1.1//EN" "http://www.w3.org/Graphics/SVG/1.1/DTD/svg11.dtd">
<svg version="1.1" id="Layer_1" xmlns="http://www.w3.org/2000/svg" xmlns:xlink="http://www.w3.org/1999/xlink" x="0px" y="0px"
	 width="65px" height="65px" viewBox="-3.15 -3.156 65 65" enable-background="new -3.15 -3.156 65 65" xml:space="preserve">
<path fill="#FFFFFF" d="M58.145,29.344c0,15.823-12.972,28.795-28.795,28.795c-15.813,0-28.795-12.972-28.795-28.795
	C0.555,13.531,13.537,0.55,29.35,0.55C45.173,0.55,58.145,13.531,58.145,29.344z"/>
<path d="M30.77,29.344c0,0.78-0.64,1.42-1.42,1.42c-0.78,0-1.42-0.64-1.42-1.42c0-0.78,0.64-1.42,1.42-1.42
	C30.13,27.925,30.77,28.565,30.77,29.344z"/>
<path d="M29.35,0C13.17,0,0,13.16,0,29.35c0,16.181,13.17,29.34,29.35,29.34c16.18,0,29.35-13.159,29.35-29.34
	C58.7,13.16,45.53,0,29.35,0z M29.75,2.01c2.1,0.021,4.14,0.29,6.1,0.771l-0.641,2.39c-0.069,0.271,0.09,0.54,0.357,0.61
	c0.04,0.01,0.08,0.02,0.133,0.02c0.219,0,0.42-0.147,0.479-0.367l0.64-2.393c2,0.57,3.899,1.353,5.681,2.34L41.27,7.51
	c-0.141,0.24-0.061,0.54,0.18,0.683c0.08,0.05,0.17,0.067,0.25,0.067c0.18,0,0.34-0.09,0.44-0.25l1.22-2.13
	c1.77,1.053,3.41,2.303,4.891,3.73l-1.729,1.729l-1.37,1.36c-0.188,0.2-0.188,0.51,0,0.71c0.101,0.1,0.229,0.14,0.36,0.14
	c0.117,0,0.25-0.04,0.35-0.14l3.102-3.1c1.432,1.46,2.688,3.09,3.762,4.85l-2.133,1.23c-0.237,0.14-0.317,0.447-0.18,0.688
	c0.09,0.16,0.26,0.25,0.43,0.25c0.093,0,0.173-0.03,0.25-0.07l2.133-1.229c1,1.77,1.8,3.67,2.38,5.66l-2.38,0.64
	c-0.271,0.07-0.421,0.353-0.352,0.61c0.062,0.229,0.26,0.37,0.479,0.37c0.04,0,0.09,0,0.13-0.013l2.393-0.64
	c0.5,1.96,0.777,3.99,0.811,6.09H47.7C47.39,18.82,39.491,10.81,29.75,10.6V2.01z M29.75,11.6c9.19,0.21,16.641,7.77,16.95,17.147
	h-9.209c-0.291-4.188-3.621-7.53-7.741-7.729V11.6z M46.7,29.75C46.5,39.14,39.11,46.77,29.95,47.09v-9.43
	c4.09-0.311,7.36-3.71,7.551-7.91H46.7z M2.01,28.939C2.03,26.85,2.3,24.81,2.79,22.85l2.38,0.64C5.22,23.5,5.26,23.5,5.3,23.5
	c0.23,0,0.43-0.14,0.49-0.37c0.07-0.26-0.09-0.54-0.36-0.607L3.04,21.88c0.57-2,1.35-3.897,2.34-5.68l2.13,1.23
	C7.59,17.469,7.68,17.5,7.76,17.5c0.18,0,0.35-0.09,0.44-0.25c0.14-0.24,0.05-0.55-0.19-0.688l-2.13-1.23
	c1.05-1.77,2.31-3.397,3.73-4.88l0.51,0.51l2.59,2.59c0.09,0.093,0.22,0.143,0.35,0.143s0.26-0.05,0.35-0.143
	c0.2-0.197,0.2-0.52,0-0.71l-3.1-3.1c1.47-1.43,3.1-2.7,4.86-3.76l1.23,2.13c0.09,0.16,0.26,0.25,0.43,0.25
	c0.09,0,0.17-0.03,0.25-0.07c0.24-0.14,0.32-0.45,0.19-0.68l-1.23-2.143c1.77-1,3.67-1.8,5.66-2.38l0.64,2.393
	c0.06,0.22,0.26,0.37,0.48,0.37c0.04,0,0.09-0.013,0.13-0.021c0.27-0.07,0.43-0.35,0.35-0.609l-0.64-2.391c1.96-0.5,4-0.78,6.1-0.81
	v8.58C19.04,10.92,11.2,18.99,11,28.95H2.01V28.939z M28.76,11.6v9.43c-4.1,0.3-7.37,3.71-7.56,7.92H12
	C12.2,19.54,19.59,11.92,28.76,11.6z M28.95,56.68c-2.09-0.021-4.13-0.29-6.09-0.771l0.63-2.391c0.08-0.263-0.08-0.54-0.35-0.609
	c-0.27-0.07-0.54,0.09-0.61,0.35l-0.64,2.393c-2-0.562-3.9-1.353-5.68-2.34l1.23-2.13c0.13-0.24,0.05-0.54-0.19-0.683
	c-0.24-0.14-0.54-0.061-0.68,0.183l-1.23,2.13c-1.77-1.053-3.4-2.303-4.88-3.723L13.55,46c0.2-0.2,0.2-0.521,0-0.71
	c-0.2-0.2-0.51-0.2-0.71,0l-1.36,1.359l-1.73,1.729c-1.44-1.46-2.7-3.09-3.77-4.85l2.13-1.23c0.24-0.14,0.33-0.438,0.19-0.68
	c-0.14-0.241-0.45-0.33-0.69-0.188l-2.13,1.229C4.47,40.89,3.67,38.99,3.1,37l2.39-0.64c0.26-0.07,0.42-0.341,0.35-0.61
	c-0.07-0.271-0.35-0.42-0.61-0.357l-2.4,0.647c-0.5-1.96-0.78-3.99-0.81-6.09v-0.011l4.39,0.011H11
	c0.31,9.92,8.21,17.93,17.95,18.14V56.68z M28.95,47.09C19.76,46.88,12.31,39.32,12,29.95h9.21c0.29,4.18,3.62,7.52,7.74,7.72V47.09
	z M29.45,34.719c-0.28,0-0.5,0.223-0.5,0.5v1.44c-3.57-0.2-6.45-3.08-6.73-6.71h1.26c0.28,0,0.5-0.23,0.5-0.5
	c0-0.28-0.22-0.5-0.5-0.5h-1.27c0.18-3.66,3-6.62,6.55-6.91v1.44c0,0.277,0.22,0.5,0.5,0.5c0.27,0,0.49-0.223,0.49-0.5v-1.45
	c3.57,0.2,6.45,3.09,6.73,6.72h-1.26c-0.271,0-0.5,0.22-0.5,0.5s0.229,0.5,0.5,0.5h1.271c-0.181,3.649-3,6.603-6.541,6.899v-1.433
	C29.95,34.939,29.73,34.719,29.45,34.719z M53.27,36.17l2.391,0.643c-0.561,2-1.351,3.897-2.341,5.681l-2.13-1.229
	c-0.24-0.132-0.55-0.052-0.68,0.188c-0.141,0.239-0.061,0.54,0.18,0.68l2.13,1.23c-1.05,1.77-2.3,3.396-3.729,4.88l-1.729-1.729
	L46,45.149c-0.201-0.199-0.51-0.199-0.711,0c-0.188,0.188-0.188,0.511,0,0.711l1.358,1.356l1.729,1.73
	c-1.461,1.438-3.09,2.699-4.852,3.76l-1.229-2.12c-0.131-0.25-0.438-0.33-0.68-0.188c-0.24,0.141-0.32,0.45-0.182,0.688l1.229,2.12
	c-1.771,1-3.67,1.8-5.66,2.38l-0.641-2.38c-0.08-0.26-0.351-0.42-0.619-0.35c-0.262,0.066-0.42,0.35-0.352,0.606l0.641,2.394
	c-1.959,0.5-3.99,0.778-6.091,0.81v-8.58c9.711-0.317,17.552-8.397,17.75-18.34h8.99c-0.021,2.103-0.29,4.13-0.771,6.09l-2.392-0.63
	c-0.271-0.067-0.54,0.08-0.608,0.353C52.85,35.83,53,36.1,53.27,36.17z"/>
</svg>
