<?xml version="1.0" encoding="utf-8"?>
<!-- Generator: Adobe Illustrator 16.0.0, SVG Export Plug-In . SVG Version: 6.00 Build 0)  -->
<!DOCTYPE svg PUBLIC "-//W3C//DTD SVG 1.1//EN" "http://www.w3.org/Graphics/SVG/1.1/DTD/svg11.dtd">
<svg version="1.1" id="Layer_1" xmlns="http://www.w3.org/2000/svg" xmlns:xlink="http://www.w3.org/1999/xlink" x="0px" y="0px"
	 width="65px" height="65px" viewBox="-3.155 -3.155 65 65" enable-background="new -3.155 -3.155 65 65" xml:space="preserve">
<path display="none" d="M54.796,39.336c0,0.02-0.01,0.04-0.021,0.06c-0.05,0.15-0.109,0.311-0.18,0.45
	c-0.06,0.14-0.12,0.28-0.18,0.42l0.93,0.39l0.39-0.93l-0.93-0.39H54.796z M54.796,19.345l0.93-0.38l-0.38-0.93l-0.93,0.39
	c0.109,0.24,0.21,0.47,0.3,0.71C54.746,19.205,54.775,19.276,54.796,19.345z M48.676,48.676c-0.11,0.12-0.23,0.24-0.35,0.35
	l0.72,0.721l0.71-0.71l-0.72-0.721L48.676,48.676z M48.676,10.026c0.13,0.11,0.24,0.23,0.35,0.35l0.721-0.72l-0.71-0.7l-0.71,0.71
	c0.119,0.11,0.239,0.23,0.35,0.35V10.026z M39.775,54.626c-0.14,0.06-0.279,0.12-0.42,0.17l0.391,0.93l0.92-0.38l-0.391-0.93
	C40.115,54.485,39.945,54.555,39.775,54.626z M39.985,4.156c0.101,0.04,0.2,0.08,0.29,0.12l0.38-0.92l-0.92-0.39l-0.39,0.93
	c0.19,0.08,0.39,0.15,0.58,0.23C39.945,4.135,39.966,4.145,39.985,4.156z M18.046,55.345l0.92,0.38l0.38-0.93
	c-0.31-0.12-0.62-0.24-0.92-0.38L18.046,55.345z M18.035,3.355l0.38,0.92c0.31-0.13,0.61-0.26,0.93-0.38l-0.38-0.92L18.035,3.355z
	 M8.955,49.046l0.71,0.7l0.72-0.721c-0.24-0.22-0.48-0.46-0.71-0.699L8.955,49.046z M10.015,10.026c0.11-0.12,0.24-0.24,0.36-0.35
	l-0.72-0.72l-0.7,0.71l0.71,0.71C9.776,10.256,9.885,10.145,10.015,10.026z M2.966,18.966l0.93,0.38c0.12-0.31,0.24-0.62,0.38-0.92
	l-0.92-0.38L2.966,18.966z M2.975,39.735l0.38,0.931l0.92-0.38c-0.13-0.311-0.26-0.61-0.38-0.931L2.975,39.735z"/>
<path display="none" fill="#FFFFFF" d="M4.015,56.466c0,1-0.8,1.8-1.79,1.8c-1,0-1.8-0.8-1.8-1.8c0-0.99,0.8-1.79,1.8-1.79
	C3.216,54.676,4.015,55.475,4.015,56.466z"/>
<path display="none" fill="#FFFFFF" d="M4.015,2.225c0,0.99-0.8,1.79-1.79,1.79c-1,0-1.8-0.8-1.8-1.79c0-1,0.8-1.8,1.8-1.8
	C3.216,0.426,4.015,1.225,4.015,2.225z"/>
<g>
	<g>
		
			<ellipse transform="matrix(-0.7071 -0.7071 0.7071 -0.7071 29.3395 70.8452)" display="none" fill="none" stroke="#000000" stroke-miterlimit="10" cx="29.342" cy="29.346" rx="22.124" ry="21.649"/>
		<line display="none" fill="none" stroke="#000000" stroke-miterlimit="10" x1="40.191" y1="3.156" x2="37.646" y2="9.306"/>
		<line display="none" fill="none" stroke="#000000" stroke-miterlimit="10" x1="29.345" y1="0.999" x2="29.348" y2="7.655"/>
		<line display="none" fill="none" stroke="#000000" stroke-miterlimit="10" x1="18.499" y1="3.158" x2="21.048" y2="9.306"/>
		<line display="none" fill="none" stroke="#000000" stroke-miterlimit="10" x1="3.159" y1="18.5" x2="9.31" y2="21.044"/>
		<line display="none" fill="none" stroke="#000000" stroke-miterlimit="10" x1="1.003" y1="29.348" x2="7.66" y2="29.346"/>
		<line display="none" fill="none" stroke="#000000" stroke-miterlimit="10" x1="3.163" y1="40.195" x2="9.311" y2="37.644"/>
		<line display="none" fill="none" stroke="#000000" stroke-miterlimit="10" x1="18.505" y1="55.535" x2="21.05" y2="49.383"/>
		<line display="none" fill="none" stroke="#000000" stroke-miterlimit="10" x1="29.353" y1="57.689" x2="29.35" y2="51.035"/>
		<line display="none" fill="none" stroke="#000000" stroke-miterlimit="10" x1="40.201" y1="55.531" x2="37.648" y2="49.383"/>
		<line display="none" fill="none" stroke="#000000" stroke-miterlimit="10" x1="55.537" y1="40.187" x2="49.386" y2="37.644"/>
		<line display="none" fill="none" stroke="#000000" stroke-miterlimit="10" x1="57.695" y1="29.341" x2="51.039" y2="29.346"/>
		<line display="none" fill="none" stroke="#000000" stroke-miterlimit="10" x1="55.535" y1="18.494" x2="49.386" y2="21.045"/>
		
			<circle display="none" fill="none" stroke="#000000" stroke-width="2" stroke-miterlimit="10" cx="29.343" cy="29.346" r="28.345"/>
		
			<line display="none" fill="none" stroke="#000000" stroke-linecap="round" stroke-miterlimit="10" x1="13.699" y1="13.698" x2="44.994" y2="44.992"/>
		
			<line display="none" fill="none" stroke="#000000" stroke-linecap="round" stroke-miterlimit="10" x1="14.036" y1="44.656" x2="44.656" y2="14.035"/>
		<path d="M24.559,29.337l4.794,19.403l4.785-19.382L29.352,9.949L24.559,29.337z M29.353,45.701L25.45,29.395h7.805L29.353,45.701z
			"/>
		<g>
			<polygon fill="#FFFFFF" points="33.256,29.395 25.45,29.395 29.353,45.701 			"/>
		</g>
		<g display="none">
			<path display="inline" d="M9.22,11.636l0.73-0.73l2.353,0.448l-1.4-1.4l0.737-0.737l2.531,2.531l-0.737,0.738l-2.338-0.445
				l1.39,1.39l-0.735,0.735L9.22,11.636z"/>
		</g>
		<g display="none">
			<path display="inline" d="M12.371,49.867l-0.742-0.742l1.149-1.686l-1.808,1.025l-0.74-0.74l1.022-1.807L9.57,47.064L8.83,46.326
				l3.088-1.975l0.767,0.768l-1.15,2.037l2.036-1.15l0.767,0.768L12.371,49.867z"/>
		</g>
		<g display="none">
			<path display="inline" d="M47.73,45.414l-0.695,0.791c-0.139-0.105-0.264-0.164-0.375-0.178c-0.184-0.021-0.35,0.041-0.498,0.191
				c-0.111,0.111-0.172,0.225-0.182,0.336c-0.008,0.113,0.023,0.203,0.094,0.273c0.064,0.064,0.152,0.094,0.262,0.09
				c0.109-0.006,0.291-0.092,0.547-0.256c0.42-0.266,0.768-0.406,1.041-0.426c0.275-0.02,0.512,0.068,0.711,0.268
				c0.129,0.131,0.213,0.291,0.254,0.48c0.041,0.191,0.02,0.396-0.064,0.613c-0.086,0.219-0.262,0.459-0.523,0.723
				c-0.324,0.322-0.631,0.51-0.922,0.561c-0.289,0.049-0.582-0.041-0.877-0.271l0.693-0.781c0.135,0.096,0.258,0.137,0.371,0.127
				c0.115-0.012,0.229-0.072,0.338-0.184c0.092-0.09,0.141-0.18,0.146-0.264c0.008-0.084-0.016-0.154-0.07-0.209
				c-0.041-0.041-0.098-0.059-0.166-0.053c-0.068,0.004-0.188,0.061-0.354,0.17c-0.418,0.268-0.736,0.438-0.959,0.512
				c-0.225,0.072-0.426,0.086-0.605,0.041c-0.178-0.043-0.336-0.135-0.475-0.273c-0.162-0.16-0.268-0.355-0.314-0.584
				c-0.047-0.225-0.025-0.453,0.064-0.688c0.092-0.23,0.26-0.471,0.504-0.715c0.43-0.432,0.812-0.646,1.145-0.646
				C47.15,45.062,47.455,45.179,47.73,45.414z"/>
		</g>
		<g display="none">
			<path display="inline" d="M47.078,9.573l2.096,2.096l-0.539,0.54l-1.312-1.312L46.92,11.3l1.217,1.217l-0.516,0.516l-1.217-1.217
				l-0.5,0.5l1.35,1.35l-0.572,0.573l-2.133-2.134L47.078,9.573z"/>
		</g>
	</g>
</g>
</svg>
