<?xml version="1.0" encoding="utf-8"?>
<!-- Generator: Adobe Illustrator 16.0.0, SVG Export Plug-In . SVG Version: 6.00 Build 0)  -->
<!DOCTYPE svg PUBLIC "-//W3C//DTD SVG 1.1//EN" "http://www.w3.org/Graphics/SVG/1.1/DTD/svg11.dtd">
<svg version="1.1" id="Layer_1" xmlns="http://www.w3.org/2000/svg" xmlns:xlink="http://www.w3.org/1999/xlink" x="0px" y="0px"
	 width="65px" height="65px" viewBox="-3.155 -3.155 65 65" enable-background="new -3.155 -3.155 65 65" xml:space="preserve">
<path display="none" d="M54.796,39.336c0,0.02-0.01,0.04-0.021,0.06c-0.05,0.15-0.109,0.311-0.18,0.45
	c-0.06,0.14-0.12,0.28-0.18,0.42l0.93,0.39l0.39-0.93l-0.93-0.39H54.796z M54.796,19.345l0.93-0.38l-0.38-0.93l-0.93,0.39
	c0.109,0.24,0.21,0.47,0.3,0.71C54.746,19.205,54.775,19.276,54.796,19.345z M48.676,48.676c-0.11,0.12-0.23,0.24-0.35,0.35
	l0.72,0.721l0.71-0.71l-0.72-0.721L48.676,48.676z M48.676,10.026c0.13,0.11,0.24,0.23,0.35,0.35l0.721-0.72l-0.71-0.7l-0.71,0.71
	c0.119,0.11,0.239,0.23,0.35,0.35V10.026z M39.775,54.626c-0.14,0.06-0.279,0.12-0.42,0.17l0.391,0.93l0.92-0.38l-0.391-0.93
	C40.115,54.485,39.945,54.555,39.775,54.626z M39.985,4.156c0.101,0.04,0.2,0.08,0.29,0.12l0.38-0.92l-0.92-0.39l-0.39,0.93
	c0.19,0.08,0.39,0.15,0.58,0.23C39.945,4.135,39.966,4.145,39.985,4.156z M18.046,55.345l0.92,0.38l0.38-0.93
	c-0.31-0.12-0.62-0.24-0.92-0.38L18.046,55.345z M18.035,3.355l0.38,0.92c0.31-0.13,0.61-0.26,0.93-0.38l-0.38-0.92L18.035,3.355z
	 M8.955,49.046l0.71,0.7l0.72-0.721c-0.24-0.22-0.48-0.46-0.71-0.699L8.955,49.046z M10.015,10.026c0.11-0.12,0.24-0.24,0.36-0.35
	l-0.72-0.72l-0.7,0.71l0.71,0.71C9.776,10.256,9.885,10.145,10.015,10.026z M2.966,18.966l0.93,0.38c0.12-0.31,0.24-0.62,0.38-0.92
	l-0.92-0.38L2.966,18.966z M2.975,39.735l0.38,0.931l0.92-0.38c-0.13-0.311-0.26-0.61-0.38-0.931L2.975,39.735z"/>
<circle fill="#FFFFFF" cx="29.345" cy="29.345" r="30.333"/>
<path d="M60.265-1.565c-0.13-0.12-0.26-0.24-0.39-0.35c-0.13-0.11-0.271-0.22-0.41-0.31c-0.29-0.19-0.601-0.37-0.92-0.5
	c-0.49-0.2-1.01-0.34-1.55-0.4c-0.181-0.01-0.37-0.02-0.551-0.02c-0.189,0-0.38,0.01-0.56,0.02c0.18-0.02,0.37-0.03,0.56-0.03H2.236
	c0.19,0,0.38,0.01,0.56,0.03c-0.18-0.01-0.37-0.02-0.56-0.02s-0.36,0.01-0.55,0.02c-0.54,0.06-1.06,0.2-1.54,0.4
	c-0.32,0.13-0.63,0.31-0.92,0.5c-0.14,0.09-0.28,0.2-0.41,0.31c-0.13,0.11-0.26,0.23-0.39,0.35c-0.98,0.98-1.58,2.32-1.58,3.8v54.22
	c0,1.479,0.6,2.819,1.58,3.8c0.13,0.12,0.26,0.24,0.39,0.35c0.13,0.11,0.27,0.221,0.41,0.311c0.29,0.189,0.6,0.37,0.92,0.5
	c0.48,0.21,1,0.34,1.54,0.399c0.19,0.011,0.36,0.021,0.55,0.021s0.38-0.01,0.56-0.021c-0.18,0.021-0.37,0.03-0.56,0.03h54.209
	c2.99,0,5.4-2.41,5.4-5.4V2.236C61.845,0.756,61.246-0.585,60.265-1.565z"/>
<path fill="#FFFFFF" d="M45.695,7.446c0.08,0.05,0.16,0.11,0.23,0.17c0.22,0.16,0.439,0.32,0.65,0.51
	c0.14,0.11,0.279,0.23,0.42,0.35c0.25,0.19,0.489,0.41,0.729,0.63c0.2,0.18,0.41,0.37,0.601,0.56l0.71-0.71l0.71,0.7l-0.721,0.72
	c0.16,0.15,0.311,0.31,0.46,0.47c0.04,0.04,0.07,0.08,0.101,0.12v0.01c0.31,0.32,0.58,0.64,0.859,0.98
	c0.28,0.34,0.551,0.69,0.811,1.04c0.27,0.35,0.52,0.71,0.76,1.07c0.26,0.37,0.49,0.74,0.71,1.11c0.23,0.36,0.43,0.72,0.62,1.08
	c0.04,0.06,0.07,0.11,0.09,0.16c0.19,0.34,0.37,0.68,0.53,1.02c0.149,0.32,0.3,0.63,0.43,0.95c0.01,0.01,0.01,0.03,0.021,0.04
	l0.93-0.39l0.38,0.93l-0.93,0.38c0.05,0.12,0.1,0.24,0.14,0.36c0.07,0.17,0.13,0.34,0.19,0.52c0.1,0.26,0.189,0.52,0.27,0.78
	c0.04,0.14,0.09,0.27,0.13,0.41c0.07,0.24,0.141,0.48,0.2,0.73c0.08,0.27,0.15,0.54,0.21,0.82c0.09,0.34,0.16,0.68,0.23,1.02
	c0.06,0.31,0.12,0.63,0.17,0.95c0.02,0.09,0.029,0.19,0.04,0.28c0.04,0.22,0.069,0.44,0.09,0.66c0.01,0.03,0.01,0.05,0.01,0.08
	c0.04,0.25,0.07,0.5,0.09,0.76c0.04,0.4,0.07,0.81,0.09,1.22c0.03,0.47,0.04,0.94,0.04,1.41s-0.01,0.94-0.04,1.41
	c-0.02,0.34-0.029,0.689-0.069,1.03c-0.01,0.05-0.01,0.1-0.021,0.149c-0.01,0.17-0.02,0.33-0.05,0.49c0,0.04,0,0.08-0.01,0.12
	c-0.03,0.3-0.07,0.6-0.12,0.899c-0.01,0.091-0.03,0.19-0.05,0.28c-0.04,0.28-0.09,0.561-0.15,0.851v0.01
	c-0.04,0.22-0.08,0.439-0.14,0.66c-0.01,0.069-0.021,0.13-0.04,0.199c-0.021,0.091-0.04,0.17-0.061,0.261
	c-0.01,0.029-0.01,0.06-0.02,0.09c-0.07,0.28-0.14,0.55-0.22,0.819c-0.04,0.171-0.091,0.341-0.141,0.511
	c-0.06,0.189-0.12,0.39-0.18,0.58c-0.07,0.229-0.15,0.46-0.24,0.689c-0.05,0.181-0.12,0.351-0.189,0.53
	c-0.011,0.04-0.021,0.09-0.04,0.13c-0.03,0.09-0.07,0.19-0.11,0.28l0.93,0.39l-0.39,0.93l-0.93-0.39c0,0.01-0.011,0.021-0.011,0.03
	c-0.04,0.09-0.069,0.17-0.119,0.26c-0.12,0.28-0.25,0.56-0.391,0.83c-0.069,0.15-0.149,0.31-0.24,0.46
	c-0.109,0.23-0.229,0.46-0.359,0.69c-0.181,0.329-0.37,0.659-0.57,0.979c-0.22,0.37-0.46,0.74-0.71,1.11
	c-0.24,0.359-0.49,0.72-0.76,1.069c-0.15,0.21-0.311,0.42-0.48,0.62c-0.02,0.021-0.04,0.05-0.06,0.07
	c-0.14,0.19-0.29,0.36-0.44,0.54c-0.17,0.21-0.34,0.41-0.52,0.6c-0.101,0.12-0.21,0.24-0.33,0.36c-0.12,0.15-0.26,0.29-0.39,0.43
	l0.72,0.721l-0.71,0.71l-0.72-0.721c-0.19,0.19-0.4,0.38-0.601,0.561c-0.26,0.24-0.53,0.47-0.8,0.689
	c-0.09,0.08-0.17,0.15-0.26,0.23c-0.311,0.26-0.641,0.51-0.971,0.75c-0.33,0.25-0.649,0.49-0.989,0.7c0,0.01-0.011,0.01-0.011,0.01
	c-0.04,0.03-0.08,0.06-0.13,0.09c-0.29,0.2-0.59,0.39-0.89,0.57c-0.13,0.09-0.26,0.17-0.4,0.239c-0.189,0.12-0.38,0.23-0.569,0.33
	c-0.29,0.17-0.58,0.33-0.88,0.471c-0.07,0.05-0.15,0.09-0.221,0.12c-0.38,0.199-0.77,0.38-1.16,0.55
	c-0.02,0.01-0.04,0.02-0.06,0.029c-0.04,0.021-0.07,0.03-0.11,0.051l0.391,0.93l-0.92,0.38l-0.391-0.93
	c-0.069,0.03-0.13,0.05-0.2,0.08c-0.029,0.01-0.06,0.02-0.09,0.029c-0.18,0.07-0.35,0.141-0.529,0.2
	c-0.221,0.08-0.44,0.15-0.66,0.221c-0.05,0.02-0.101,0.039-0.15,0.05c-0.16,0.06-0.33,0.109-0.49,0.16
	c-0.279,0.079-0.55,0.159-0.83,0.229c-0.18,0.05-0.35,0.1-0.529,0.14c-0.28,0.07-0.57,0.131-0.851,0.19
	c-0.1,0.02-0.199,0.04-0.31,0.06c-0.311,0.07-0.61,0.131-0.92,0.171c-0.021,0-0.03,0.01-0.05,0.01c-0.24,0.04-0.48,0.08-0.721,0.1
	c-0.18,0.04-0.359,0.061-0.529,0.07c-0.2,0.03-0.4,0.05-0.601,0.07c-0.38,0.039-0.76,0.069-1.14,0.079
	c-0.47,0.03-0.94,0.04-1.41,0.04c-3.53,0-6.9-0.67-10-1.899l-0.38,0.93l-0.92-0.38l0.38-0.93c-3-1.311-5.72-3.141-8.04-5.391
	l-0.72,0.721l-0.71-0.7l0.72-0.72c-2.25-2.32-4.08-5.04-5.4-8.04l-0.92,0.38l-0.38-0.931l0.92-0.38c-1.23-3.1-1.9-6.479-1.9-10.01
	c0-3.53,0.67-6.9,1.9-10l-0.93-0.38l0.39-0.92l0.92,0.38c1.2-2.75,2.84-5.27,4.83-7.46c0.19-0.2,0.37-0.4,0.56-0.59l-0.71-0.71
	l0.7-0.71l0.72,0.72c1.14-1.11,2.37-2.11,3.69-3c0.73-0.49,1.48-0.95,2.25-1.37c0.69-0.37,1.39-0.72,2.1-1.03l-0.38-0.92l0.93-0.38
	l0.38,0.92c3.1-1.23,6.47-1.9,10-1.9c0.94,0,1.87,0.05,2.79,0.15h0.06c0.44,0.05,0.881,0.1,1.311,0.18c0.03,0,0.06,0,0.09,0.01
	c0.47,0.06,0.93,0.15,1.39,0.25c0.4,0.08,0.79,0.17,1.181,0.28c0.279,0.07,0.56,0.15,0.83,0.23c0.159,0.04,0.319,0.09,0.47,0.14
	c0.18,0.05,0.35,0.11,0.52,0.17c0.25,0.08,0.5,0.17,0.75,0.26c0.2,0.07,0.41,0.15,0.61,0.23l0.39-0.93l0.92,0.39l-0.38,0.92
	c0.28,0.13,0.561,0.26,0.84,0.39c0.23,0.11,0.461,0.22,0.681,0.34c0.06,0.03,0.12,0.06,0.17,0.09c0.24,0.12,0.479,0.25,0.71,0.39
	c0.01,0,0.02,0,0.03,0.01c0.159,0.09,0.319,0.18,0.47,0.28c0.2,0.1,0.39,0.21,0.57,0.33c0.22,0.14,0.439,0.27,0.649,0.42
	c0.16,0.1,0.311,0.2,0.46,0.31"/>
<g>
	<path d="M29.345,51.972c-12.214,0-22.149-10.149-22.149-22.625c0-12.477,9.936-22.625,22.149-22.625
		c12.213,0,22.147,10.148,22.147,22.625C51.493,41.823,41.558,51.972,29.345,51.972z M29.345,7.722
		c-11.662,0-21.149,9.7-21.149,21.625c0,11.924,9.488,21.625,21.149,21.625c11.66,0,21.147-9.701,21.147-21.625
		C50.493,17.423,41.007,7.722,29.345,7.722z"/>
	<polygon points="55.725,18.966 54.796,19.345 50.046,21.316 49.586,21.506 49.195,20.586 49.676,20.385 54.416,18.426 
		55.345,18.035 	"/>
	<polygon points="49.746,9.656 49.025,10.375 49.015,10.385 45.496,13.906 45.036,14.365 44.336,13.656 44.815,13.176 48.315,9.676 
		48.326,9.665 49.036,8.955 	"/>
	<polygon points="40.655,3.355 40.275,4.276 40.265,4.285 38.426,8.725 38.105,9.506 37.185,9.115 37.515,8.325 39.345,3.906 
		39.345,3.895 39.735,2.966 	"/>
	<polygon points="21.515,9.115 20.595,9.506 20.265,8.716 18.426,4.285 18.415,4.276 18.035,3.355 18.966,2.975 19.345,3.895 
		19.355,3.906 21.185,8.325 	"/>
	<polygon points="14.365,13.665 13.665,14.365 13.196,13.895 9.676,10.385 8.955,9.665 9.656,8.955 10.375,9.676 13.875,13.176 	"/>
	<polygon points="9.506,20.586 9.125,21.515 8.645,21.316 3.895,19.345 2.966,18.966 3.355,18.046 4.276,18.426 9.015,20.385 	"/>
	<polygon points="9.506,38.105 9.015,38.305 4.276,40.286 3.355,40.666 2.975,39.735 3.895,39.355 8.645,37.376 9.115,37.185 	"/>
	<polygon points="14.365,45.046 13.885,45.525 10.385,49.025 9.665,49.746 8.955,49.046 9.676,48.326 13.196,44.805 13.665,44.336 	
		"/>
	<polygon points="21.515,49.576 21.185,50.376 19.345,54.796 18.966,55.725 18.046,55.345 18.426,54.416 20.265,49.985 
		20.595,49.195 	"/>
	<polygon points="40.666,55.345 39.746,55.725 39.355,54.796 37.515,50.365 37.195,49.586 38.115,49.195 38.435,49.975 
		40.275,54.416 	"/>
	<polygon points="49.756,49.036 49.046,49.746 48.326,49.025 48.315,49.015 44.815,45.525 44.336,45.046 45.046,44.336 
		45.506,44.796 49.025,48.305 49.036,48.315 	"/>
	<polygon points="55.735,39.725 55.345,40.655 54.416,40.265 49.676,38.305 49.195,38.105 49.586,37.185 50.046,37.376 
		54.796,39.336 54.805,39.336 	"/>
	<path d="M54.796,39.336c0,0.02-0.01,0.04-0.021,0.06c-0.05,0.15-0.109,0.311-0.18,0.45c-0.05,0.14-0.11,0.28-0.18,0.42l0.93,0.39
		l0.39-0.93l-0.93-0.39H54.796z M54.796,19.345l0.93-0.38l-0.38-0.93l-0.93,0.39c0.109,0.24,0.21,0.47,0.3,0.71
		C54.746,19.205,54.775,19.276,54.796,19.345z M50.445,11.955c-0.279-0.34-0.55-0.66-0.859-0.98
		C49.876,11.296,50.155,11.625,50.445,11.955z M49.426,47.885c-0.12,0.14-0.25,0.28-0.4,0.42c-0.109,0.12-0.229,0.25-0.35,0.37
		s-0.24,0.24-0.36,0.34c-0.189,0.2-0.39,0.38-0.59,0.57c0.2-0.181,0.41-0.37,0.601-0.561l0.72,0.721l0.71-0.71l-0.72-0.721
		C49.166,48.176,49.305,48.036,49.426,47.885z M48.676,10.026c0.12,0.12,0.24,0.24,0.34,0.36c0.2,0.19,0.38,0.38,0.57,0.58
		c-0.03-0.04-0.061-0.08-0.101-0.12c-0.149-0.16-0.3-0.32-0.46-0.47l0.721-0.72l-0.71-0.7l-0.71,0.71
		c-0.19-0.19-0.4-0.38-0.601-0.56c-0.24-0.22-0.479-0.44-0.729-0.63c0.449,0.39,0.89,0.78,1.319,1.2
		C48.435,9.785,48.555,9.906,48.676,10.026z M45.926,7.615c-0.07-0.06-0.15-0.12-0.23-0.17c0.301,0.22,0.591,0.45,0.881,0.68
		C46.365,7.935,46.145,7.776,45.926,7.615z M45.555,7.336c-0.229-0.18-0.46-0.34-0.7-0.5c0.29,0.2,0.57,0.4,0.84,0.61
		C45.645,7.406,45.605,7.365,45.555,7.336z M39.775,54.626c-0.14,0.06-0.279,0.12-0.42,0.17l0.391,0.93l0.92-0.38l-0.391-0.93
		C40.105,54.485,39.945,54.555,39.775,54.626z M40.655,3.355l-0.92-0.39l-0.39,0.93c-0.2-0.08-0.41-0.16-0.61-0.23
		c0.21,0.07,0.41,0.15,0.61,0.24c0.2,0.07,0.39,0.15,0.58,0.22c0.02,0.01,0.04,0.02,0.06,0.03c0.091,0.04,0.19,0.08,0.28,0.13
		c0.28,0.12,0.57,0.25,0.85,0.38c-0.279-0.13-0.56-0.26-0.84-0.39L40.655,3.355z M34.985,2.586C34.957,2.58,34.928,2.576,34.9,2.571
		c0.426,0.087,0.849,0.185,1.266,0.295C35.775,2.756,35.385,2.665,34.985,2.586z M34.9,2.571c-0.163-0.034-0.328-0.059-0.491-0.088
		C34.572,2.513,34.738,2.535,34.9,2.571z M33.506,2.325c0.303,0.043,0.603,0.102,0.903,0.157C34.138,2.43,33.87,2.37,33.595,2.336
		C33.565,2.325,33.536,2.325,33.506,2.325z M32.135,2.145c0.46,0.05,0.92,0.11,1.37,0.18c-0.43-0.08-0.87-0.13-1.311-0.18H32.135z
		 M19.345,3.895l-0.38-0.92l-0.93,0.38l0.38,0.92c-0.71,0.31-1.41,0.66-2.1,1.03c0.69-0.37,1.39-0.71,2.11-1.02
		c0.31-0.14,0.61-0.27,0.93-0.38c3.09-1.23,6.47-1.9,9.99-1.9c0.94,0,1.87,0.05,2.79,0.14c-0.92-0.1-1.85-0.15-2.79-0.15
		C25.816,1.995,22.446,2.665,19.345,3.895z M18.046,55.345l0.92,0.38l0.38-0.93c-0.31-0.12-0.62-0.24-0.92-0.38L18.046,55.345z
		 M14.066,6.676c-1.32,0.89-2.55,1.89-3.69,3C11.515,8.575,12.745,7.566,14.066,6.676z M8.955,49.046l0.71,0.7l0.72-0.721
		c-0.24-0.22-0.48-0.46-0.71-0.699L8.955,49.046z M8.955,9.665l0.71,0.71c-0.19,0.19-0.37,0.39-0.56,0.59
		c0.19-0.2,0.37-0.39,0.57-0.58c0.1-0.12,0.22-0.24,0.34-0.36c0.11-0.12,0.24-0.24,0.36-0.35l-0.72-0.72L8.955,9.665z M2.966,18.966
		l0.93,0.38c0.12-0.31,0.24-0.62,0.38-0.92l-0.92-0.38L2.966,18.966z M2.975,39.735l0.38,0.931l0.92-0.38
		c-0.13-0.311-0.26-0.61-0.38-0.931L2.975,39.735z"/>
	<path d="M29.349,51.977c-0.276,0-0.5-0.225-0.5-0.5V7.221c0-0.276,0.224-0.5,0.5-0.5c0.275,0,0.5,0.224,0.5,0.5v44.256
		C29.849,51.753,29.626,51.977,29.349,51.977z"/>
	<path d="M51,29.849H7.697c-0.276,0-0.5-0.225-0.5-0.5c0-0.276,0.224-0.5,0.5-0.5H51c0.276,0,0.5,0.224,0.5,0.5
		C51.5,29.625,51.276,29.849,51,29.849z"/>
	<g>
		<path d="M27.64,2.594h1.031l1.349,1.98v-1.98h1.043v3.579H30.02l-1.34-1.965v1.965h-1.04V2.594z"/>
	</g>
	<g>
		<path d="M2.834,31.857v-1.05l2.004-0.38l-2.004-0.553v-1.047l2.001-0.556l-2.001-0.379V26.85l3.579,0.789v1.084L4.16,29.351
			l2.253,0.625v1.085L2.834,31.857z"/>
	</g>
	<g>
		<path d="M30.987,53.711l-1.052,0.065c-0.023-0.171-0.07-0.301-0.142-0.392c-0.112-0.145-0.274-0.217-0.486-0.217
			c-0.157,0-0.28,0.037-0.364,0.109c-0.086,0.074-0.129,0.16-0.129,0.259c0,0.093,0.041,0.176,0.122,0.249
			c0.081,0.072,0.271,0.143,0.564,0.207c0.485,0.108,0.831,0.254,1.038,0.436c0.208,0.181,0.312,0.41,0.312,0.69
			c0,0.185-0.056,0.356-0.16,0.521c-0.107,0.162-0.27,0.292-0.48,0.386c-0.215,0.095-0.508,0.142-0.881,0.142
			c-0.457,0-0.806-0.086-1.046-0.256s-0.383-0.439-0.428-0.812l1.044-0.06c0.025,0.162,0.086,0.278,0.174,0.353
			c0.089,0.073,0.211,0.109,0.367,0.109c0.129,0,0.227-0.026,0.291-0.082c0.062-0.054,0.098-0.12,0.098-0.197
			c0-0.059-0.025-0.109-0.08-0.154c-0.053-0.047-0.176-0.092-0.371-0.132c-0.482-0.104-0.83-0.21-1.04-0.315
			c-0.209-0.105-0.359-0.239-0.456-0.396c-0.096-0.157-0.143-0.335-0.143-0.53c0-0.229,0.062-0.439,0.189-0.635
			c0.127-0.192,0.305-0.34,0.531-0.439c0.229-0.101,0.518-0.148,0.861-0.148c0.609,0,1.031,0.116,1.266,0.353
			C30.824,53.057,30.957,53.35,30.987,53.711z"/>
	</g>
	<g>
		<path d="M55.867,27.906v2.964h-0.764v-1.855h-0.569v1.721h-0.729v-1.721h-0.706v1.908h-0.812v-3.017H55.867z"/>
	</g>
</g>
<path fill="#FFFFFF" d="M4.015,56.466c0,1-0.8,1.8-1.79,1.8c-1,0-1.8-0.8-1.8-1.8c0-0.99,0.8-1.79,1.8-1.79
	C3.216,54.676,4.015,55.475,4.015,56.466z"/>
<path fill="#FFFFFF" d="M4.015,2.225c0,0.99-0.8,1.79-1.79,1.79c-1,0-1.8-0.8-1.8-1.79c0-1,0.8-1.8,1.8-1.8
	C3.216,0.426,4.015,1.225,4.015,2.225z"/>
<path fill="#FFFFFF" d="M58.265,2.225c0,0.99-0.8,1.79-1.8,1.79c-0.99,0-1.79-0.8-1.79-1.79c0-1,0.8-1.8,1.79-1.8
	C57.466,0.426,58.265,1.225,58.265,2.225z"/>
<path fill="#FFFFFF" d="M58.265,56.466c0,1-0.8,1.8-1.8,1.8c-0.99,0-1.79-0.8-1.79-1.8c0-0.99,0.8-1.79,1.79-1.79
	C57.466,54.676,58.265,55.475,58.265,56.466z"/>
</svg>
