<?xml version="1.0" encoding="utf-8"?>
<!-- Generator: Adobe Illustrator 16.0.0, SVG Export Plug-In . SVG Version: 6.00 Build 0)  -->
<!DOCTYPE svg PUBLIC "-//W3C//DTD SVG 1.1//EN" "http://www.w3.org/Graphics/SVG/1.1/DTD/svg11.dtd">
<svg version="1.1" id="Layer_1" xmlns="http://www.w3.org/2000/svg" xmlns:xlink="http://www.w3.org/1999/xlink" x="0px" y="0px"
	 width="65px" height="65px" viewBox="-3.15 -3.156 65 65" enable-background="new -3.15 -3.156 65 65" xml:space="preserve">
<path d="M30.77,29.344c0,0.78-0.64,1.42-1.42,1.42c-0.78,0-1.42-0.64-1.42-1.42c0-0.78,0.64-1.42,1.42-1.42
	C30.13,27.925,30.77,28.565,30.77,29.344z"/>
<path d="M60.27-1.57c-0.13-0.12-0.26-0.24-0.39-0.35s-0.27-0.22-0.41-0.31c-0.29-0.19-0.6-0.37-0.92-0.5
	c-0.49-0.2-1.01-0.34-1.55-0.4c-0.18-0.01-0.37-0.02-0.55-0.02c-0.19,0-0.38,0.01-0.561,0.02c0.181-0.02,0.37-0.03,0.561-0.03H2.24
	c0.19,0,0.38,0.01,0.56,0.03C2.62-3.14,2.43-3.15,2.24-3.15c-0.19,0-0.36,0.01-0.55,0.02c-0.54,0.06-1.06,0.2-1.54,0.4
	c-0.32,0.13-0.63,0.31-0.92,0.5c-0.14,0.09-0.28,0.2-0.41,0.31c-0.13,0.11-0.26,0.23-0.39,0.35c-0.98,0.98-1.58,2.32-1.58,3.8v54.22
	c0,1.479,0.6,2.819,1.58,3.8c0.13,0.12,0.26,0.24,0.39,0.35c0.13,0.11,0.27,0.23,0.41,0.32c0.29,0.18,0.6,0.37,0.92,0.5
	c0.48,0.2,1,0.33,1.54,0.39c0.19,0.021,0.36,0.021,0.55,0.021h0.14c-0.04,0.01-0.09,0.01-0.14,0.01h54.21
	c2.99,0,5.399-2.41,5.399-5.399V2.23C61.85,0.75,61.25-0.59,60.27-1.57z M29.75,2.01c2.1,0.02,4.14,0.29,6.1,0.77l-0.64,2.39
	c-0.07,0.27,0.09,0.54,0.36,0.61c0.04,0.01,0.08,0.02,0.13,0.02c0.22,0,0.42-0.15,0.479-0.37l0.641-2.39
	c2,0.57,3.899,1.35,5.68,2.34l-1.23,2.13c-0.14,0.24-0.06,0.54,0.181,0.68c0.08,0.05,0.17,0.07,0.25,0.07
	c0.18,0,0.34-0.09,0.439-0.25l1.221-2.13c1.77,1.05,3.409,2.3,4.89,3.73l-1.73,1.72l-1.369,1.36c-0.19,0.2-0.19,0.51,0,0.71
	c0.1,0.1,0.229,0.14,0.359,0.14c0.12,0,0.25-0.04,0.351-0.14l3.1-3.1c1.43,1.46,2.69,3.09,3.771,4.85l-2.141,1.23
	c-0.24,0.14-0.32,0.45-0.18,0.69c0.09,0.16,0.26,0.25,0.43,0.25c0.09,0,0.18-0.03,0.25-0.07l2.141-1.23
	c1,1.77,1.789,3.67,2.369,5.66l-2.369,0.64c-0.28,0.07-0.431,0.36-0.36,0.61c0.06,0.23,0.26,0.37,0.479,0.37
	c0.04,0,0.091,0,0.131-0.01l2.399-0.64c0.5,1.96,0.771,3.99,0.811,6.09H47.7c-0.311-9.92-8.21-17.93-17.95-18.14V2.01z M29.75,11.6
	c9.19,0.21,16.64,7.77,16.95,17.14h-9.21c-0.29-4.18-3.62-7.53-7.74-7.73V11.6z M46.7,29.75c-0.2,9.39-7.59,17.03-16.75,17.34v-9.42
	c4.09-0.33,7.359-3.71,7.55-7.92H46.7z M8.12,16.65c-0.03-0.03-0.07-0.07-0.11-0.09l-2.13-1.23c1.05-1.77,2.31-3.39,3.73-4.87
	l3.1,3.1c0.09,0.09,0.22,0.13,0.35,0.13s0.26-0.04,0.35-0.13c0.2-0.21,0.2-0.52,0-0.72l-3.1-3.09c1.47-1.44,3.1-2.71,4.86-3.77
	l1.23,2.14c0.09,0.15,0.26,0.25,0.43,0.25c0.09,0,0.17-0.04,0.25-0.08c0.24-0.13,0.32-0.45,0.19-0.67l-1.23-2.16
	c1.77-1,3.67-1.79,5.66-2.37l0.64,2.39c0.06,0.23,0.26,0.37,0.48,0.37c0.04,0,0.09-0.01,0.13-0.02c0.27-0.06,0.43-0.35,0.35-0.6
	l-0.64-2.4c1.47-0.37,2.98-0.62,4.54-0.74c0.51-0.04,1.04-0.06,1.56-0.07v8.58C19.04,10.92,11.2,19,11,28.96H2.01v-0.02
	c0.02-2.09,0.29-4.13,0.78-6.09l2.38,0.65H5.3c0.23,0,0.43-0.13,0.49-0.37c0.07-0.25-0.09-0.54-0.36-0.61l-2.39-0.64
	c0.57-2,1.35-3.9,2.34-5.67l2.13,1.23c0.08,0.02,0.17,0.06,0.25,0.06c0.18,0,0.35-0.08,0.44-0.25C8.31,17.05,8.28,16.81,8.12,16.65z
	 M28.76,11.6v9.43c-4.1,0.3-7.37,3.71-7.56,7.92H12C12.2,19.54,19.59,11.92,28.76,11.6z M0.96,0.95c0.08-0.09,0.17-0.16,0.26-0.22
	c0.29-0.2,0.64-0.31,1.01-0.31s0.72,0.11,1,0.31c0.1,0.06,0.19,0.14,0.27,0.22c0.32,0.33,0.52,0.77,0.52,1.27S3.82,3.16,3.5,3.49
	C3.42,3.57,3.33,3.64,3.23,3.71c-0.29,0.2-0.63,0.31-1,0.31S1.51,3.91,1.22,3.71C1.13,3.64,1.04,3.57,0.96,3.49
	C0.63,3.16,0.43,2.72,0.43,2.22S0.63,1.28,0.96,0.95z M3.5,57.74c-0.08,0.08-0.17,0.16-0.27,0.22c-0.29,0.2-0.63,0.31-1,0.31
	s-0.72-0.109-1.01-0.31c-0.09-0.06-0.18-0.14-0.26-0.22c-0.33-0.33-0.53-0.78-0.53-1.28c0-0.99,0.8-1.79,1.8-1.79
	c0.99,0,1.79,0.8,1.79,1.79C4.02,56.96,3.82,57.41,3.5,57.74z M28.95,56.68c-2.09-0.029-4.13-0.29-6.09-0.779l0.63-2.391
	c0.08-0.26-0.08-0.54-0.35-0.609c-0.27-0.07-0.54,0.1-0.61,0.35l-0.64,2.4c-2-0.57-3.9-1.36-5.68-2.341l1.23-2.13
	c0.13-0.239,0.05-0.54-0.19-0.68c-0.24-0.15-0.54-0.07-0.68,0.18l-1.23,2.13c-1.77-1.06-3.4-2.31-4.88-3.729L13.55,46
	c0.2-0.2,0.2-0.53,0-0.71c-0.2-0.19-0.51-0.19-0.71,0l-1.36,1.35l-1.73,1.74c-1.44-1.46-2.7-3.09-3.77-4.86l2.13-1.229
	c0.24-0.14,0.33-0.43,0.19-0.68c-0.14-0.23-0.45-0.32-0.69-0.181L5.48,42.65C4.47,40.89,3.67,39,3.1,37l2.39-0.64
	c0.26-0.07,0.42-0.351,0.35-0.61c-0.07-0.28-0.35-0.42-0.61-0.36l-2.4,0.65c-0.5-1.96-0.78-3.98-0.81-6.08v-0.03l4.39,0.03H11
	c0.31,9.92,8.21,17.92,17.95,18.13V56.68z M28.95,47.09C19.76,46.88,12.32,39.33,12,29.96v-0.01h9.21v0.01
	c0.3,4.18,3.62,7.5,7.74,7.71V47.09z M29.45,34.71c-0.28,0-0.5,0.23-0.5,0.5v1.44c-0.22-0.011-0.44-0.03-0.66-0.07
	c-0.38-0.061-0.75-0.14-1.11-0.26c-0.36-0.11-0.71-0.261-1.04-0.431c-0.34-0.17-0.65-0.37-0.95-0.59c-0.3-0.22-0.58-0.46-0.84-0.72
	c-1.2-1.2-1.99-2.82-2.13-4.64h1.26c0.28,0,0.5-0.23,0.5-0.5c0-0.28-0.22-0.5-0.5-0.5h-1.27c0.18-3.66,3-6.62,6.55-6.91v1.44
	c0,0.28,0.22,0.5,0.5,0.5c0.27,0,0.49-0.22,0.49-0.5v-1.45c3.57,0.2,6.45,3.09,6.73,6.72H35.22c-0.27,0-0.5,0.22-0.5,0.5
	c0,0.28,0.23,0.5,0.5,0.5h1.271c-0.181,3.649-3,6.609-6.54,6.899v-1.43C29.95,34.93,29.73,34.71,29.45,34.71z M50.69,42.13
	l2.13,1.23c-1.051,1.77-2.301,3.399-3.73,4.89l-1.729-1.73L46,45.14c-0.2-0.18-0.51-0.18-0.71,0c-0.19,0.19-0.19,0.53,0,0.721
	l1.36,1.35l1.729,1.73c-1.46,1.439-3.09,2.699-4.85,3.77l-1.23-2.13c-0.13-0.25-0.439-0.33-0.68-0.19
	c-0.24,0.15-0.32,0.46-0.18,0.69l1.22,2.13c-1.771,1-3.67,1.79-5.66,2.37l-0.64-2.37c-0.08-0.27-0.351-0.42-0.62-0.36
	c-0.26,0.07-0.42,0.36-0.351,0.61l0.641,2.39c-1.96,0.5-3.99,0.78-6.09,0.82v-8.59c9.71-0.311,17.55-8.39,17.75-18.33h8.989
	c-0.02,2.1-0.29,4.13-0.77,6.08l-2.391-0.62c-0.27-0.08-0.539,0.08-0.609,0.34C52.85,35.83,53,36.11,53.27,36.17l2.391,0.64
	c-0.561,2-1.351,3.9-2.34,5.69l-2.13-1.23c-0.04-0.02-0.091-0.039-0.141-0.05c-0.17-0.04-0.34,0.011-0.46,0.13
	c-0.03,0.03-0.06,0.07-0.08,0.11C50.37,41.69,50.45,42,50.69,42.13z M57.74,57.74c-0.08,0.08-0.17,0.16-0.26,0.22
	c-0.29,0.2-0.641,0.31-1.011,0.31s-0.71-0.109-1-0.31c-0.1-0.06-0.189-0.14-0.27-0.22c-0.32-0.33-0.521-0.78-0.521-1.28
	c0-0.99,0.801-1.79,1.79-1.79c1,0,1.8,0.8,1.8,1.79C58.27,56.96,58.07,57.41,57.74,57.74z M57.74,3.49
	c-0.08,0.08-0.17,0.15-0.26,0.22c-0.29,0.2-0.641,0.31-1.011,0.31s-0.71-0.11-1-0.31c-0.1-0.07-0.189-0.14-0.27-0.22
	c-0.32-0.33-0.521-0.77-0.521-1.27s0.2-0.94,0.521-1.27c0.08-0.08,0.17-0.16,0.27-0.22c0.28-0.2,0.63-0.31,1-0.31
	s0.721,0.11,1.011,0.31c0.1,0.06,0.189,0.14,0.26,0.22c0.33,0.33,0.529,0.77,0.529,1.27S58.07,3.16,57.74,3.49z"/>
<path fill="#FFFFFF" d="M4.02,2.22c0,0.5-0.2,0.94-0.52,1.27C3.42,3.57,3.33,3.64,3.23,3.71c-0.29,0.19-0.63,0.3-1,0.3
	S1.51,3.9,1.22,3.71C1.13,3.64,1.04,3.57,0.96,3.49C0.63,3.16,0.43,2.72,0.43,2.22s0.2-0.94,0.53-1.27
	c0.08-0.09,0.17-0.16,0.26-0.22c0.29-0.2,0.64-0.31,1.01-0.31s0.72,0.11,1,0.31c0.1,0.06,0.19,0.14,0.27,0.22
	C3.82,1.28,4.02,1.72,4.02,2.22z"/>
<path fill="#FFFFFF" d="M58.27,2.22c0,0.5-0.199,0.94-0.529,1.27c-0.08,0.08-0.17,0.15-0.26,0.22c-0.29,0.19-0.641,0.3-1.011,0.3
	s-0.71-0.11-1-0.3c-0.1-0.07-0.189-0.14-0.27-0.22c-0.32-0.33-0.521-0.77-0.521-1.27s0.2-0.94,0.521-1.27
	c0.08-0.08,0.17-0.16,0.27-0.22c0.28-0.2,0.63-0.31,1-0.31s0.721,0.11,1.011,0.31c0.1,0.06,0.189,0.14,0.26,0.22
	C58.07,1.28,58.27,1.72,58.27,2.22z"/>
<path fill="#FFFFFF" d="M58.27,56.46c0,0.5-0.199,0.95-0.529,1.28c-0.08,0.08-0.17,0.16-0.26,0.22c-0.29,0.2-0.641,0.31-1.011,0.31
	s-0.71-0.109-1-0.31c-0.1-0.06-0.189-0.14-0.27-0.22c-0.32-0.33-0.521-0.78-0.521-1.28c0-0.99,0.801-1.79,1.79-1.79
	C57.47,54.67,58.27,55.47,58.27,56.46z"/>
<path fill="#FFFFFF" d="M4.02,56.46c0,0.5-0.2,0.95-0.52,1.28c-0.08,0.08-0.17,0.16-0.27,0.22c-0.29,0.2-0.63,0.31-1,0.31
	s-0.72-0.109-1.01-0.31c-0.09-0.06-0.18-0.14-0.26-0.22c-0.33-0.33-0.53-0.78-0.53-1.28c0-0.99,0.8-1.79,1.8-1.79
	C3.22,54.67,4.02,55.47,4.02,56.46z"/>
</svg>
