<?xml version="1.0" encoding="utf-8"?>
<!-- Generator: Adobe Illustrator 22.0.0, SVG Export Plug-In . SVG Version: 6.00 Build 0)  -->
<svg version="1.1" xmlns="http://www.w3.org/2000/svg" xmlns:xlink="http://www.w3.org/1999/xlink" x="0px" y="0px"
	 viewBox="0 0 3610.8 1993.2" style="enable-background:new 0 0 3610.8 1993.2;" xml:space="preserve">
<style type="text/css">
	.st0{fill:#21194B;stroke:#000000;stroke-miterlimit:10;}
	.st1{fill:none;stroke:#3E3769;stroke-width:0.25;stroke-miterlimit:10;}
	.st2{display:none;}
	.st3{display:inline;}
	.st4{stroke:#000000;stroke-miterlimit:10;}
	.st5{font-family:'RobotoCondensed-Regular';}
	.st6{font-size:286px;}
	.st7{font-size:240px;}
	.st8{font-size:163px;}
	.st9{font-family:'RobotoCondensed-BoldItalic';}
	.st10{display:inline;fill:none;}
	.st11{display:inline;stroke:#000000;stroke-miterlimit:10;}
	.st12{font-family:'Michroma';}
	.st13{font-size:170px;}
	.st14{display:inline;fill:none;stroke:#000000;stroke-width:16;stroke-miterlimit:10;}
	.st15{font-size:120px;}
	.st16{display:inline;fill:#C13344;}
	.st17{display:inline;fill:#FFFFFF;}
	.st18{font-size:50px;}
	.st19{fill:#FFFFFF;}
	.st20{display:none;fill:#FFFFFF;}
	.st21{display:inline;fill:none;stroke:#525491;stroke-width:5;stroke-linecap:round;stroke-linejoin:round;stroke-miterlimit:10;}
	.st22{display:inline;fill:none;stroke:#525491;stroke-width:5;stroke-miterlimit:10;}
	.st23{fill:#3E3769;stroke:#525491;stroke-width:5;stroke-linecap:round;stroke-linejoin:round;stroke-miterlimit:10;}
	.st24{fill:#3E3769;stroke:#525491;stroke-width:2;stroke-linecap:round;stroke-linejoin:round;stroke-miterlimit:10;}
	.st25{fill:none;stroke:#525491;stroke-width:5;stroke-linecap:round;stroke-linejoin:round;stroke-miterlimit:10;}
	.st26{fill:#373062;}
	.st27{display:inline;fill:#525491;}
	.st28{display:inline;fill:#373062;}
	.st29{display:inline;fill:#30285A;}
	.st30{display:inline;fill:#282153;}
	.st31{display:inline;fill:#21194B;}
	.st32{display:inline;fill:#3E3769;}
	.st33{font-size:30px;}
	.st34{fill:#30285A;stroke:#525491;stroke-width:5;stroke-linecap:round;stroke-linejoin:round;stroke-miterlimit:10;}
</style>
<g id="BP_BG">
	<rect x="0" class="st0" width="3610.8" height="1993.2"/>
	<g>
		<g>
			<line class="st1" x1="1805.4" y1="-46" x2="1805.4" y2="2014.3"/>
			<line class="st1" x1="1805.4" y1="2014.2" x2="-55.5" y2="2014.2"/>
			<line class="st1" x1="1805.4" y1="1981" x2="-55.5" y2="1981"/>
			<line class="st1" x1="1805.4" y1="1947.8" x2="-55.5" y2="1947.8"/>
			<line class="st1" x1="1805.4" y1="1914.6" x2="-55.5" y2="1914.6"/>
			<line class="st1" x1="1805.4" y1="1881.3" x2="-55.5" y2="1881.3"/>
			<line class="st1" x1="1805.4" y1="1848.1" x2="-55.5" y2="1848.1"/>
			<line class="st1" x1="1805.4" y1="1814.9" x2="-55.5" y2="1814.9"/>
			<line class="st1" x1="1805.4" y1="1781.7" x2="-55.5" y2="1781.7"/>
			<line class="st1" x1="1805.4" y1="1748.4" x2="-55.5" y2="1748.4"/>
			<line class="st1" x1="1805.4" y1="1715.2" x2="-55.5" y2="1715.2"/>
			<line class="st1" x1="1805.4" y1="1682" x2="-55.5" y2="1682"/>
			<line class="st1" x1="1805.4" y1="1648.7" x2="-55.5" y2="1648.7"/>
			<line class="st1" x1="1805.4" y1="1615.5" x2="-55.5" y2="1615.5"/>
			<line class="st1" x1="1805.4" y1="1582.3" x2="-55.5" y2="1582.3"/>
			<line class="st1" x1="1805.4" y1="1549" x2="-55.5" y2="1549"/>
			<line class="st1" x1="1805.4" y1="1515.8" x2="-55.5" y2="1515.8"/>
			<line class="st1" x1="1805.4" y1="1482.6" x2="-55.5" y2="1482.6"/>
			<line class="st1" x1="1805.4" y1="1449.3" x2="-55.5" y2="1449.3"/>
			<line class="st1" x1="1805.4" y1="1416.1" x2="-55.5" y2="1416.1"/>
			<line class="st1" x1="1805.4" y1="1382.9" x2="-55.5" y2="1382.9"/>
			<line class="st1" x1="1805.4" y1="1349.7" x2="-55.5" y2="1349.7"/>
			<line class="st1" x1="1805.4" y1="1316.4" x2="-55.5" y2="1316.4"/>
			<line class="st1" x1="1805.4" y1="1283.2" x2="-55.5" y2="1283.2"/>
			<line class="st1" x1="1805.4" y1="1250" x2="-55.5" y2="1250"/>
			<line class="st1" x1="1805.4" y1="1216.7" x2="-55.5" y2="1216.7"/>
			<line class="st1" x1="1805.4" y1="1183.5" x2="-55.5" y2="1183.5"/>
			<line class="st1" x1="1805.4" y1="1150.3" x2="-55.5" y2="1150.3"/>
			<line class="st1" x1="1805.4" y1="1117.1" x2="-55.5" y2="1117.1"/>
			<line class="st1" x1="1805.4" y1="1083.8" x2="-55.5" y2="1083.8"/>
			<line class="st1" x1="1805.4" y1="1050.6" x2="-55.5" y2="1050.6"/>
			<line class="st1" x1="1805.4" y1="1017.4" x2="-55.5" y2="1017.4"/>
			<line class="st1" x1="1805.4" y1="984.1" x2="-55.5" y2="984.1"/>
			<line class="st1" x1="1805.4" y1="950.9" x2="-55.5" y2="950.9"/>
			<line class="st1" x1="1805.4" y1="917.7" x2="-55.5" y2="917.7"/>
			<line class="st1" x1="1805.4" y1="884.4" x2="-55.5" y2="884.4"/>
			<line class="st1" x1="1805.4" y1="851.2" x2="-55.5" y2="851.2"/>
			<line class="st1" x1="1805.4" y1="818" x2="-55.5" y2="818"/>
			<line class="st1" x1="1805.4" y1="784.8" x2="-55.5" y2="784.8"/>
			<line class="st1" x1="1805.4" y1="751.5" x2="-55.5" y2="751.5"/>
			<line class="st1" x1="1805.4" y1="718.3" x2="-55.5" y2="718.3"/>
			<line class="st1" x1="1805.4" y1="685.1" x2="-55.5" y2="685.1"/>
			<line class="st1" x1="1805.4" y1="651.8" x2="-55.5" y2="651.8"/>
			<line class="st1" x1="1805.4" y1="618.6" x2="-55.5" y2="618.6"/>
			<line class="st1" x1="1805.4" y1="585.4" x2="-55.5" y2="585.4"/>
			<line class="st1" x1="1805.4" y1="552.1" x2="-55.5" y2="552.1"/>
			<line class="st1" x1="1805.4" y1="518.9" x2="-55.5" y2="518.9"/>
			<line class="st1" x1="1805.4" y1="485.7" x2="-55.5" y2="485.7"/>
			<line class="st1" x1="1805.4" y1="452.5" x2="-55.5" y2="452.5"/>
			<line class="st1" x1="1805.4" y1="419.2" x2="-55.5" y2="419.2"/>
			<line class="st1" x1="1805.4" y1="386" x2="-55.5" y2="386"/>
			<line class="st1" x1="1805.4" y1="352.8" x2="-55.5" y2="352.8"/>
			<line class="st1" x1="1805.4" y1="319.5" x2="-55.5" y2="319.5"/>
			<line class="st1" x1="1805.4" y1="286.3" x2="-55.5" y2="286.3"/>
			<line class="st1" x1="1805.4" y1="253.1" x2="-55.5" y2="253.1"/>
			<line class="st1" x1="1805.4" y1="219.9" x2="-55.5" y2="219.9"/>
			<line class="st1" x1="1805.4" y1="186.6" x2="-55.5" y2="186.6"/>
			<line class="st1" x1="1805.4" y1="153.4" x2="-55.5" y2="153.4"/>
			<line class="st1" x1="1805.4" y1="120.2" x2="-55.5" y2="120.2"/>
			<line class="st1" x1="1805.4" y1="86.9" x2="-55.5" y2="86.9"/>
			<line class="st1" x1="1805.4" y1="53.7" x2="-55.5" y2="53.7"/>
			<line class="st1" x1="1805.4" y1="20.5" x2="-55.5" y2="20.5"/>
			<line class="st1" x1="1805.4" y1="-12.8" x2="-55.5" y2="-12.8"/>
			<line class="st1" x1="1805.4" y1="-46" x2="-55.5" y2="-46"/>
			<line class="st1" x1="1772.2" y1="-46" x2="1772.2" y2="2014.2"/>
			<line class="st1" x1="1738.9" y1="-46" x2="1738.9" y2="2014.2"/>
			<line class="st1" x1="1705.7" y1="-46" x2="1705.7" y2="2014.2"/>
			<line class="st1" x1="1672.5" y1="-46" x2="1672.5" y2="2014.2"/>
			<line class="st1" x1="1639.3" y1="-46" x2="1639.3" y2="2014.2"/>
			<line class="st1" x1="1606" y1="-46" x2="1606" y2="2014.2"/>
			<line class="st1" x1="1572.8" y1="-46" x2="1572.8" y2="2014.2"/>
			<line class="st1" x1="1539.6" y1="-46" x2="1539.6" y2="2014.2"/>
			<line class="st1" x1="1506.3" y1="-46" x2="1506.3" y2="2014.2"/>
			<line class="st1" x1="1473.1" y1="-46" x2="1473.1" y2="2014.2"/>
			<line class="st1" x1="1439.9" y1="-46" x2="1439.9" y2="2014.2"/>
			<line class="st1" x1="1406.6" y1="-46" x2="1406.6" y2="2014.2"/>
			<line class="st1" x1="1373.4" y1="-46" x2="1373.4" y2="2014.2"/>
			<line class="st1" x1="1340.2" y1="-46" x2="1340.2" y2="2014.2"/>
			<line class="st1" x1="1307" y1="-46" x2="1307" y2="2014.2"/>
			<line class="st1" x1="1273.7" y1="-46" x2="1273.7" y2="2014.2"/>
			<line class="st1" x1="1240.5" y1="-46" x2="1240.5" y2="2014.2"/>
			<line class="st1" x1="1207.3" y1="-46" x2="1207.3" y2="2014.2"/>
			<line class="st1" x1="1174" y1="-46" x2="1174" y2="2014.2"/>
			<line class="st1" x1="1140.8" y1="-46" x2="1140.8" y2="2014.2"/>
			<line class="st1" x1="1107.6" y1="-46" x2="1107.6" y2="2014.2"/>
			<line class="st1" x1="1074.3" y1="-46" x2="1074.3" y2="2014.2"/>
			<line class="st1" x1="1041.1" y1="-46" x2="1041.1" y2="2014.2"/>
			<line class="st1" x1="1007.9" y1="-46" x2="1007.9" y2="2014.2"/>
			<line class="st1" x1="974.7" y1="-46" x2="974.7" y2="2014.2"/>
			<line class="st1" x1="941.4" y1="-46" x2="941.4" y2="2014.2"/>
			<line class="st1" x1="908.2" y1="-46" x2="908.2" y2="2014.2"/>
			<line class="st1" x1="875" y1="-46" x2="875" y2="2014.2"/>
			<line class="st1" x1="841.7" y1="-46" x2="841.7" y2="2014.2"/>
			<line class="st1" x1="808.5" y1="-46" x2="808.5" y2="2014.2"/>
			<line class="st1" x1="775.3" y1="-46" x2="775.3" y2="2014.2"/>
			<line class="st1" x1="742" y1="-46" x2="742" y2="2014.2"/>
			<line class="st1" x1="708.8" y1="-46" x2="708.8" y2="2014.2"/>
			<line class="st1" x1="675.6" y1="-46" x2="675.6" y2="2014.2"/>
			<line class="st1" x1="642.4" y1="-46" x2="642.4" y2="2014.2"/>
			<line class="st1" x1="609.1" y1="-46" x2="609.1" y2="2014.2"/>
			<line class="st1" x1="575.9" y1="-46" x2="575.9" y2="2014.2"/>
			<line class="st1" x1="542.7" y1="-46" x2="542.7" y2="2014.2"/>
			<line class="st1" x1="509.4" y1="-46" x2="509.4" y2="2014.2"/>
			<line class="st1" x1="476.2" y1="-46" x2="476.2" y2="2014.2"/>
			<line class="st1" x1="443" y1="-46" x2="443" y2="2014.2"/>
			<line class="st1" x1="409.7" y1="-46" x2="409.7" y2="2014.2"/>
			<line class="st1" x1="376.5" y1="-46" x2="376.5" y2="2014.2"/>
			<line class="st1" x1="343.3" y1="-46" x2="343.3" y2="2014.2"/>
			<line class="st1" x1="310.1" y1="-46" x2="310.1" y2="2014.2"/>
			<line class="st1" x1="276.8" y1="-46" x2="276.8" y2="2014.2"/>
			<line class="st1" x1="243.6" y1="-46" x2="243.6" y2="2014.2"/>
			<line class="st1" x1="210.4" y1="-46" x2="210.4" y2="2014.2"/>
			<line class="st1" x1="177.1" y1="-46" x2="177.1" y2="2014.2"/>
			<line class="st1" x1="143.9" y1="-46" x2="143.9" y2="2014.2"/>
			<line class="st1" x1="110.7" y1="-46" x2="110.7" y2="2014.2"/>
			<line class="st1" x1="77.4" y1="-46" x2="77.4" y2="2014.2"/>
			<line class="st1" x1="44.2" y1="-46" x2="44.2" y2="2014.2"/>
			<line class="st1" x1="11" y1="-46" x2="11" y2="2014.2"/>
			<line class="st1" x1="-22.2" y1="-46" x2="-22.2" y2="2014.2"/>
			<path class="st1" d="M-55.5-46"/>
			<polyline class="st1" points="-55.5,2014.3 -55.5,2014.2 -55.5,1981 -55.5,1947.8 -55.5,1914.6 -55.5,1881.3 -55.5,1848.1 
				-55.5,1814.9 -55.5,1781.7 -55.5,1748.4 -55.5,1715.2 -55.5,1682 -55.5,1648.7 -55.5,1615.5 -55.5,1582.3 -55.5,1549 
				-55.5,1515.8 -55.5,1482.6 -55.5,1449.3 -55.5,1416.1 -55.5,1382.9 -55.5,1349.7 -55.5,1316.4 -55.5,1283.2 -55.5,1250 
				-55.5,1216.7 -55.5,1183.5 -55.5,1150.3 -55.5,1117.1 -55.5,1083.8 -55.5,1050.6 -55.5,1017.4 -55.5,984.1 -55.5,950.9 
				-55.5,917.7 -55.5,884.4 -55.5,851.2 -55.5,818 -55.5,784.8 -55.5,751.5 -55.5,718.3 -55.5,685.1 -55.5,651.8 -55.5,618.6 
				-55.5,585.4 -55.5,552.1 -55.5,518.9 -55.5,485.7 -55.5,452.5 -55.5,419.2 -55.5,386 -55.5,352.8 -55.5,319.5 -55.5,286.3 
				-55.5,253.1 -55.5,219.9 -55.5,186.6 -55.5,153.4 -55.5,120.2 -55.5,86.9 -55.5,53.7 -55.5,20.5 -55.5,-12.8 -55.5,-46 			"/>
		</g>
		<g>
			<line class="st1" x1="3633" y1="2014.2" x2="1805.4" y2="2014.2"/>
			<line class="st1" x1="3633" y1="1981" x2="1805.4" y2="1981"/>
			<line class="st1" x1="3633" y1="1947.8" x2="1805.4" y2="1947.8"/>
			<line class="st1" x1="3633" y1="1914.6" x2="1805.4" y2="1914.6"/>
			<line class="st1" x1="3633" y1="1881.3" x2="1805.4" y2="1881.3"/>
			<line class="st1" x1="3633" y1="1848.1" x2="1805.4" y2="1848.1"/>
			<line class="st1" x1="3633" y1="1814.9" x2="1805.4" y2="1814.9"/>
			<line class="st1" x1="3633" y1="1781.7" x2="1805.4" y2="1781.7"/>
			<line class="st1" x1="3633" y1="1748.4" x2="1805.4" y2="1748.4"/>
			<line class="st1" x1="3633" y1="1715.2" x2="1805.4" y2="1715.2"/>
			<line class="st1" x1="3633" y1="1682" x2="1805.4" y2="1682"/>
			<line class="st1" x1="3633" y1="1648.7" x2="1805.4" y2="1648.7"/>
			<line class="st1" x1="3633" y1="1615.5" x2="1805.4" y2="1615.5"/>
			<line class="st1" x1="3633" y1="1582.3" x2="1805.4" y2="1582.3"/>
			<line class="st1" x1="3633" y1="1549" x2="1805.4" y2="1549"/>
			<line class="st1" x1="3633" y1="1515.8" x2="1805.4" y2="1515.8"/>
			<line class="st1" x1="3633" y1="1482.6" x2="1805.4" y2="1482.6"/>
			<line class="st1" x1="3633" y1="1449.3" x2="1805.4" y2="1449.3"/>
			<line class="st1" x1="3633" y1="1416.1" x2="1805.4" y2="1416.1"/>
			<line class="st1" x1="3633" y1="1382.9" x2="1805.4" y2="1382.9"/>
			<line class="st1" x1="3633" y1="1349.7" x2="1805.4" y2="1349.7"/>
			<line class="st1" x1="3633" y1="1316.4" x2="1805.4" y2="1316.4"/>
			<line class="st1" x1="3633" y1="1283.2" x2="1805.4" y2="1283.2"/>
			<line class="st1" x1="3633" y1="1250" x2="1805.4" y2="1250"/>
			<line class="st1" x1="3633" y1="1216.7" x2="1805.4" y2="1216.7"/>
			<line class="st1" x1="3633" y1="1183.5" x2="1805.4" y2="1183.5"/>
			<line class="st1" x1="3633" y1="1150.3" x2="1805.4" y2="1150.3"/>
			<line class="st1" x1="3633" y1="1117.1" x2="1805.4" y2="1117.1"/>
			<line class="st1" x1="3633" y1="1083.8" x2="1805.4" y2="1083.8"/>
			<line class="st1" x1="3633" y1="1050.6" x2="1805.4" y2="1050.6"/>
			<line class="st1" x1="3633" y1="1017.4" x2="1805.4" y2="1017.4"/>
			<line class="st1" x1="3633" y1="984.1" x2="1805.4" y2="984.1"/>
			<line class="st1" x1="3633" y1="950.9" x2="1805.4" y2="950.9"/>
			<line class="st1" x1="3633" y1="917.7" x2="1805.4" y2="917.7"/>
			<line class="st1" x1="3633" y1="884.4" x2="1805.4" y2="884.4"/>
			<line class="st1" x1="3633" y1="851.2" x2="1805.4" y2="851.2"/>
			<line class="st1" x1="3633" y1="818" x2="1805.4" y2="818"/>
			<line class="st1" x1="3633" y1="784.8" x2="1805.4" y2="784.8"/>
			<line class="st1" x1="3633" y1="751.5" x2="1805.4" y2="751.5"/>
			<line class="st1" x1="3633" y1="718.3" x2="1805.4" y2="718.3"/>
			<line class="st1" x1="3633" y1="685.1" x2="1805.4" y2="685.1"/>
			<line class="st1" x1="3633" y1="651.8" x2="1805.4" y2="651.8"/>
			<line class="st1" x1="3633" y1="618.6" x2="1805.4" y2="618.6"/>
			<line class="st1" x1="3633" y1="585.4" x2="1805.4" y2="585.4"/>
			<line class="st1" x1="3633" y1="552.1" x2="1805.4" y2="552.1"/>
			<line class="st1" x1="3633" y1="518.9" x2="1805.4" y2="518.9"/>
			<line class="st1" x1="3633" y1="485.7" x2="1805.4" y2="485.7"/>
			<line class="st1" x1="3633" y1="452.5" x2="1805.4" y2="452.5"/>
			<line class="st1" x1="3633" y1="419.2" x2="1805.4" y2="419.2"/>
			<line class="st1" x1="3633" y1="386" x2="1805.4" y2="386"/>
			<line class="st1" x1="3633" y1="352.8" x2="1805.4" y2="352.8"/>
			<line class="st1" x1="3633" y1="319.5" x2="1805.4" y2="319.5"/>
			<line class="st1" x1="3633" y1="286.3" x2="1805.4" y2="286.3"/>
			<line class="st1" x1="3633" y1="253.1" x2="1805.4" y2="253.1"/>
			<line class="st1" x1="3633" y1="219.9" x2="1805.4" y2="219.9"/>
			<line class="st1" x1="3633" y1="186.6" x2="1805.4" y2="186.6"/>
			<line class="st1" x1="3633" y1="153.4" x2="1805.4" y2="153.4"/>
			<line class="st1" x1="3633" y1="120.2" x2="1805.4" y2="120.2"/>
			<line class="st1" x1="3633" y1="86.9" x2="1805.4" y2="86.9"/>
			<line class="st1" x1="3633" y1="53.7" x2="1805.4" y2="53.7"/>
			<line class="st1" x1="3633" y1="20.5" x2="1805.4" y2="20.5"/>
			<line class="st1" x1="3633" y1="-12.8" x2="1805.4" y2="-12.8"/>
			<line class="st1" x1="3633" y1="-46" x2="1805.4" y2="-46"/>
			<line class="st1" x1="3599.8" y1="-46" x2="3599.8" y2="2014.2"/>
			<line class="st1" x1="3566.6" y1="-46" x2="3566.6" y2="2014.2"/>
			<line class="st1" x1="3533.4" y1="-46" x2="3533.4" y2="2014.2"/>
			<line class="st1" x1="3500.1" y1="-46" x2="3500.1" y2="2014.2"/>
			<line class="st1" x1="3466.9" y1="-46" x2="3466.9" y2="2014.2"/>
			<line class="st1" x1="3433.7" y1="-46" x2="3433.7" y2="2014.2"/>
			<line class="st1" x1="3400.4" y1="-46" x2="3400.4" y2="2014.2"/>
			<line class="st1" x1="3367.2" y1="-46" x2="3367.2" y2="2014.2"/>
			<line class="st1" x1="3334" y1="-46" x2="3334" y2="2014.2"/>
			<line class="st1" x1="3300.7" y1="-46" x2="3300.7" y2="2014.2"/>
			<line class="st1" x1="3267.5" y1="-46" x2="3267.5" y2="2014.2"/>
			<line class="st1" x1="3234.3" y1="-46" x2="3234.3" y2="2014.2"/>
			<line class="st1" x1="3201.1" y1="-46" x2="3201.1" y2="2014.2"/>
			<line class="st1" x1="3167.8" y1="-46" x2="3167.8" y2="2014.2"/>
			<line class="st1" x1="3134.6" y1="-46" x2="3134.6" y2="2014.2"/>
			<line class="st1" x1="3101.4" y1="-46" x2="3101.4" y2="2014.2"/>
			<line class="st1" x1="3068.1" y1="-46" x2="3068.1" y2="2014.2"/>
			<line class="st1" x1="3034.9" y1="-46" x2="3034.9" y2="2014.2"/>
			<line class="st1" x1="3001.7" y1="-46" x2="3001.7" y2="2014.2"/>
			<line class="st1" x1="2968.4" y1="-46" x2="2968.4" y2="2014.2"/>
			<line class="st1" x1="2935.2" y1="-46" x2="2935.2" y2="2014.2"/>
			<line class="st1" x1="2902" y1="-46" x2="2902" y2="2014.2"/>
			<line class="st1" x1="2868.8" y1="-46" x2="2868.8" y2="2014.2"/>
			<line class="st1" x1="2835.5" y1="-46" x2="2835.5" y2="2014.2"/>
			<line class="st1" x1="2802.3" y1="-46" x2="2802.3" y2="2014.2"/>
			<line class="st1" x1="2769.1" y1="-46" x2="2769.1" y2="2014.2"/>
			<line class="st1" x1="2735.8" y1="-46" x2="2735.8" y2="2014.2"/>
			<line class="st1" x1="2702.6" y1="-46" x2="2702.6" y2="2014.2"/>
			<line class="st1" x1="2669.4" y1="-46" x2="2669.4" y2="2014.2"/>
			<line class="st1" x1="2636.1" y1="-46" x2="2636.1" y2="2014.2"/>
			<line class="st1" x1="2602.9" y1="-46" x2="2602.9" y2="2014.2"/>
			<line class="st1" x1="2569.7" y1="-46" x2="2569.7" y2="2014.2"/>
			<line class="st1" x1="2536.5" y1="-46" x2="2536.5" y2="2014.2"/>
			<line class="st1" x1="2503.2" y1="-46" x2="2503.2" y2="2014.2"/>
			<line class="st1" x1="2470" y1="-46" x2="2470" y2="2014.2"/>
			<line class="st1" x1="2436.8" y1="-46" x2="2436.8" y2="2014.2"/>
			<line class="st1" x1="2403.5" y1="-46" x2="2403.5" y2="2014.2"/>
			<line class="st1" x1="2370.3" y1="-46" x2="2370.3" y2="2014.2"/>
			<line class="st1" x1="2337.1" y1="-46" x2="2337.1" y2="2014.2"/>
			<line class="st1" x1="2303.8" y1="-46" x2="2303.8" y2="2014.2"/>
			<line class="st1" x1="2270.6" y1="-46" x2="2270.6" y2="2014.2"/>
			<line class="st1" x1="2237.4" y1="-46" x2="2237.4" y2="2014.2"/>
			<line class="st1" x1="2204.2" y1="-46" x2="2204.2" y2="2014.2"/>
			<line class="st1" x1="2170.9" y1="-46" x2="2170.9" y2="2014.2"/>
			<line class="st1" x1="2137.7" y1="-46" x2="2137.7" y2="2014.2"/>
			<line class="st1" x1="2104.5" y1="-46" x2="2104.5" y2="2014.2"/>
			<line class="st1" x1="2071.2" y1="-46" x2="2071.2" y2="2014.2"/>
			<line class="st1" x1="2038" y1="-46" x2="2038" y2="2014.2"/>
			<line class="st1" x1="2004.8" y1="-46" x2="2004.8" y2="2014.2"/>
			<line class="st1" x1="1971.5" y1="-46" x2="1971.5" y2="2014.2"/>
			<line class="st1" x1="1938.3" y1="-46" x2="1938.3" y2="2014.2"/>
			<line class="st1" x1="1905.1" y1="-46" x2="1905.1" y2="2014.2"/>
			<line class="st1" x1="1871.9" y1="-46" x2="1871.9" y2="2014.2"/>
			<line class="st1" x1="1838.6" y1="-46" x2="1838.6" y2="2014.2"/>
		</g>
	</g>
</g>
<g id="PHOTO" class="st2">
	
		<image style="display:inline;overflow:visible;" width="3009" height="1661" xlink:href="../../../../Desktop/Airship x Ollie/ollie8 (1 of 1).jpg"  transform="matrix(1.2 0 0 1.2 0 0)">
	</image>
</g>
<g id="PHOTO_FG" class="st2">
	<text transform="matrix(1 0 0 1 2128.5032 386.8795)" class="st3"><tspan x="0" y="0" class="st4 st5 st6">STICKAGE</tspan><tspan x="0" y="280" class="st4 st5 st7">MOST GUYS</tspan><tspan x="0" y="443" class="st4 st5 st8">SUFFER ALL DAY</tspan></text>
	<text transform="matrix(1 0 0 1 2138.5029 516.8795)" class="st3"><tspan x="0" y="0" class="st4 st9 st7">MOST GUYS</tspan><tspan x="0" y="200" class="st4 st9 st7">SILENTLY</tspan><tspan x="0" y="400" class="st4 st9 st7">SUFFER FROM</tspan><tspan x="0" y="800" class="st4 st9 st7">ALL DAY.</tspan></text>
	<rect x="2142.6" y="979.3" class="st10" width="1487" height="352.5"/>
	<text transform="matrix(1 0 0 1 2142.5781 1106.7656)" class="st11 st12 st13">STICKAGE</text>
	<line class="st14" x1="2814.2" y1="1416.1" x2="3107.5" y2="1416.1"/>
	<text transform="matrix(1 0 0 1 2137.3943 1459.4128)" class="st11 st9 st15">WE GOT YOUR BACK SACK</text>
	<path class="st16" d="M2718,1664.6h-521.4c-23.7,0-42.9-19.2-42.9-42.9v-56.3c0-23.7,19.2-42.9,42.9-42.9H2718
		c23.7,0,42.9,19.2,42.9,42.9v56.3C2760.9,1645.4,2741.7,1664.6,2718,1664.6z"/>
	<text transform="matrix(1 0 0 1 2253.1919 1610.7893)" class="st17 st12 st18">SHOP NOW</text>
	<g id="Fit_1_" class="st3">
		<path class="st19" d="M1160.9,1092.1c-193.3,0-350.6-157.3-350.6-350.6c0-193.3,157.3-350.6,350.6-350.6
			c193.3,0,350.6,157.3,350.6,350.6C1511.5,934.8,1354.2,1092.1,1160.9,1092.1z M1160.9,414.8c-180.1,0-326.7,146.6-326.7,326.7
			c0,180.1,146.6,326.7,326.7,326.7s326.7-146.6,326.7-326.7C1487.6,561.3,1341,414.8,1160.9,414.8z"/>
		<path class="st20" d="M1177.8,741.5c0,9.4-7.6,16.9-16.9,16.9c-9.3,0-16.9-7.6-16.9-16.9c0-9.3,7.6-16.9,16.9-16.9
			C1170.2,724.6,1177.8,732.1,1177.8,741.5z"/>
		<path class="st19" d="M1160.9,965.5c-120.9,0-219.3-100.5-219.3-224c0-123.5,98.4-224,219.3-224c120.9,0,219.3,100.5,219.3,224
			C1380.2,865,1281.8,965.5,1160.9,965.5z M1160.9,529.4c-114.4,0-207.4,95.1-207.4,212.1c0,116.9,93,212.1,207.4,212.1
			c114.3,0,207.4-95.1,207.4-212.1C1368.3,624.6,1275.3,529.4,1160.9,529.4z"/>
		<path class="st20" d="M1160.9,841c-53.8,0-97.5-44.6-97.5-99.5c0-54.9,43.7-99.5,97.5-99.5c53.8,0,97.5,44.7,97.5,99.5
			C1258.4,796.4,1214.7,841,1160.9,841z M1160.9,653.9c-47.2,0-85.6,39.3-85.6,87.6c0,48.3,38.4,87.6,85.6,87.6s85.6-39.3,85.6-87.6
			C1246.5,693.2,1208.1,653.9,1160.9,653.9z"/>
		<path class="st19" d="M1090.8,748.7H822.3c-3.3,0-6-2.7-6-6s2.7-6,6-6h268.6c3.3,0,6,2.7,6,6S1094.1,748.7,1090.8,748.7z"/>
		<path class="st19" d="M1162.1,1086.2c-3.3,0-6-2.7-6-6V811.6c0-3.3,2.7-6,6-6c3.3,0,6,2.7,6,6v268.6
			C1168.1,1083.5,1165.4,1086.2,1162.1,1086.2z"/>
		<path class="st19" d="M1499.6,746.3h-268.6c-3.3,0-6-2.7-6-6c0-3.3,2.7-6,6-6h268.6c3.3,0,6,2.7,6,6
			C1505.6,743.7,1502.9,746.3,1499.6,746.3z"/>
		<path class="st19" d="M1159.8,677.4c-3.3,0-6-2.7-6-6V402.8c0-3.3,2.7-6,6-6c3.3,0,6,2.7,6,6v268.6
			C1165.7,674.7,1163.1,677.4,1159.8,677.4z"/>
		<path class="st19" d="M1159.8,473.4c-3.3,0-6-2.7-6-6v-64.6c0-3.3,2.7-6,6-6c3.3,0,6,2.7,6,6v64.6
			C1165.7,470.7,1163.1,473.4,1159.8,473.4z"/>
		<path class="st19" d="M966.3,554.5c-1.5,0-3.1-0.6-4.2-1.8l-45.7-45.7c-2.3-2.3-2.3-6.1,0-8.4c2.3-2.3,6.1-2.3,8.4,0l45.7,45.7
			c2.3,2.3,2.3,6.1,0,8.4C969.4,553.9,967.8,554.5,966.3,554.5z"/>
		<path class="st19" d="M886.8,748.7L886.8,748.7l-64.6,0c-3.3,0-6-2.7-6-6c0-3.3,2.7-6,6-6l0,0l64.6,0c3.3,0,6,2.7,6,6
			C892.8,746,890.1,748.7,886.8,748.7z"/>
		<path class="st19" d="M922.3,987.8c-1.5,0-3.1-0.6-4.2-1.8c-2.3-2.3-2.3-6.1,0-8.4l45.7-45.6c2.3-2.3,6.1-2.3,8.4,0
			c2.3,2.3,2.3,6.1,0,8.4L926.5,986C925.3,987.2,923.8,987.8,922.3,987.8z"/>
		<path class="st19" d="M1162.1,1086.1L1162.1,1086.1c-3.3,0-6-2.7-6-6l0-64.6c0-3.3,2.7-6,6-6l0,0c3.3,0,6,2.7,6,6l0,64.6
			C1168.1,1083.5,1165.4,1086.1,1162.1,1086.1z"/>
		<path class="st19" d="M1401.2,986.1c-1.5,0-3.1-0.6-4.2-1.8l-45.6-45.7c-2.3-2.3-2.3-6.1,0-8.4c2.3-2.3,6.1-2.3,8.4,0l45.6,45.7
			c2.3,2.3,2.3,6.1,0,8.4C1404.3,985.6,1402.7,986.1,1401.2,986.1z"/>
		<path class="st19" d="M1499.6,746.3L1499.6,746.3l-64.6,0c-3.3,0-6-2.7-6-6c0-3.3,2.7-6,6-6l0,0l64.6,0c3.3,0,6,2.7,6,6
			C1505.6,743.7,1502.9,746.3,1499.6,746.3z"/>
		<path class="st19" d="M1353.9,552.8c-1.5,0-3.1-0.6-4.2-1.8c-2.3-2.3-2.3-6.1,0-8.4l45.7-45.6c2.3-2.3,6.1-2.3,8.4,0
			c2.3,2.3,2.3,6.1,0,8.4l-45.7,45.6C1357,552.3,1355.5,552.8,1353.9,552.8z"/>
		<path class="st19" d="M1082.9,460.8c-2.6,0-5.1-1.8-5.8-4.4l-10.8-40.1c-0.9-3.2,1-6.5,4.2-7.3c3.2-0.9,6.5,1,7.3,4.2l10.8,40.1
			c0.9,3.2-1,6.5-4.2,7.3C1083.9,460.7,1083.4,460.8,1082.9,460.8z"/>
		<path class="st19" d="M1011.4,490.7c-2.1,0-4.1-1.1-5.2-3l-20.8-36c-1.7-2.9-0.7-6.5,2.2-8.2c2.8-1.7,6.5-0.7,8.2,2.2l20.8,36
			c1.7,2.9,0.7,6.5-2.2,8.2C1013.4,490.5,1012.4,490.7,1011.4,490.7z"/>
		<path class="st19" d="M950,538.2c-1.5,0-3.1-0.6-4.2-1.7l-29.4-29.4c-2.3-2.3-2.3-6.1,0-8.5c2.3-2.3,6.1-2.3,8.4,0l29.4,29.4
			c2.3,2.3,2.3,6.1,0,8.5C953.1,537.6,951.6,538.2,950,538.2z"/>
		<path class="st19" d="M903,599.9c-1,0-2-0.3-3-0.8l-36-20.8c-2.9-1.7-3.8-5.3-2.2-8.2c1.6-2.9,5.3-3.8,8.2-2.2l36,20.8
			c2.9,1.7,3.8,5.3,2.2,8.2C907.1,598.8,905.1,599.9,903,599.9z"/>
		<path class="st19" d="M873.6,671.7c-0.5,0-1-0.1-1.5-0.2L832,660.8c-3.2-0.9-5.1-4.1-4.2-7.3c0.9-3.2,4.1-5.1,7.3-4.2l40.1,10.7
			c3.2,0.9,5.1,4.1,4.2,7.3C878.7,669.9,876.3,671.7,873.6,671.7z"/>
		<path class="st19" d="M822.3,748.6c-3.3,0-6-2.7-6-6c0-3.3,2.7-6,6-6l41.6,0l0,0c3.3,0,6,2.7,6,6c0,3.3-2.7,6-6,6L822.3,748.6
			L822.3,748.6z"/>
		<path class="st19" d="M834.1,836.3c-2.6,0-5.1-1.8-5.8-4.4c-0.9-3.2,1-6.5,4.2-7.3l40.1-10.8c3.2-0.8,6.5,1,7.3,4.2
			c0.9,3.2-1,6.5-4.2,7.3L835.7,836C835.2,836.2,834.7,836.3,834.1,836.3z"/>
		<path class="st19" d="M868.3,917.8c-2.1,0-4.1-1.1-5.2-3c-1.7-2.9-0.7-6.5,2.2-8.2l36-20.8c2.9-1.7,6.5-0.7,8.2,2.2
			c1.7,2.9,0.7,6.5-2.2,8.2l-36,20.8C870.3,917.5,869.3,917.8,868.3,917.8z"/>
		<path class="st19" d="M922.3,987.8c-1.5,0-3.1-0.6-4.2-1.8c-2.3-2.3-2.3-6.1,0-8.4l29.4-29.4c2.3-2.3,6.1-2.3,8.4,0
			c2.3,2.3,2.3,6.1,0,8.4L926.5,986C925.4,987.2,923.8,987.8,922.3,987.8z"/>
		<path class="st19" d="M992.6,1041.3c-1,0-2-0.3-3-0.8c-2.9-1.6-3.8-5.3-2.2-8.2l20.8-36c1.6-2.9,5.3-3.8,8.2-2.2
			c2.9,1.7,3.8,5.3,2.2,8.2l-20.8,36C996.7,1040.3,994.7,1041.3,992.6,1041.3z"/>
		<path class="st19" d="M1074.4,1074.9c-0.5,0-1-0.1-1.5-0.2c-3.2-0.9-5.1-4.1-4.2-7.3l10.7-40.1c0.9-3.2,4.1-5.1,7.3-4.2
			c3.2,0.9,5.1,4.1,4.2,7.3l-10.7,40.1C1079.5,1073.1,1077.1,1074.9,1074.4,1074.9z"/>
		<path class="st19" d="M1162.1,1086.1c-3.3,0-6-2.7-6-6l0-41.5c0-3.3,2.7-6,6-6l0,0c3.3,0,6,2.7,6,6l0,41.5
			C1168.1,1083.4,1165.4,1086.1,1162.1,1086.1L1162.1,1086.1z"/>
		<path class="st19" d="M1249.7,1074.3c-2.6,0-5.1-1.8-5.8-4.4l-10.8-40.1c-0.9-3.2,1-6.5,4.2-7.3c3.2-0.8,6.5,1,7.3,4.2l10.8,40.1
			c0.9,3.2-1,6.5-4.2,7.3C1250.8,1074.2,1250.3,1074.3,1249.7,1074.3z"/>
		<path class="st19" d="M1331.3,1040.1c-2.1,0-4.1-1.1-5.2-3l-20.8-36c-1.7-2.9-0.7-6.5,2.2-8.2c2.8-1.7,6.5-0.7,8.2,2.2l20.8,36
			c1.7,2.9,0.7,6.5-2.2,8.2C1333.3,1039.9,1332.3,1040.1,1331.3,1040.1z"/>
		<path class="st19" d="M1401.2,986.1c-1.5,0-3.1-0.6-4.2-1.8l-29.4-29.4c-2.3-2.3-2.3-6.1,0-8.4c2.3-2.3,6.1-2.3,8.4,0l29.4,29.4
			c2.3,2.3,2.3,6.1,0,8.4C1404.3,985.5,1402.8,986.1,1401.2,986.1z"/>
		<path class="st19" d="M1454.8,915.7c-1,0-2-0.3-3-0.8l-36-20.7c-2.9-1.6-3.8-5.3-2.2-8.2c1.6-2.9,5.3-3.9,8.2-2.2l36,20.7
			c2.9,1.6,3.8,5.3,2.2,8.2C1458.9,914.7,1456.9,915.7,1454.8,915.7z"/>
		<path class="st19" d="M1488.3,834c-0.5,0-1-0.1-1.5-0.2l-40.1-10.7c-3.2-0.9-5.1-4.1-4.2-7.3c0.9-3.2,4.1-5.1,7.3-4.2l40.1,10.7
			c3.2,0.9,5.1,4.1,4.2,7.3C1493.4,832.2,1491,834,1488.3,834z"/>
		<path class="st19" d="M1458.1,746.3c-3.3,0-6-2.7-6-6c0-3.3,2.7-6,6-6l41.5,0l0,0c3.3,0,6,2.7,6,6c0,3.3-2.7,6-6,6L1458.1,746.3
			L1458.1,746.3z"/>
		<path class="st19" d="M1447.6,669.4c-2.6,0-5.1-1.8-5.8-4.4c-0.9-3.2,1-6.5,4.2-7.3l40.1-10.8c3.2-0.9,6.5,1,7.3,4.2
			c0.9,3.2-1,6.5-4.2,7.3l-40.1,10.8C1448.7,669.4,1448.1,669.4,1447.6,669.4z"/>
		<path class="st19" d="M1417.7,597.9c-2.1,0-4.1-1.1-5.2-3c-1.7-2.9-0.7-6.5,2.2-8.2l36-20.8c2.8-1.7,6.5-0.7,8.2,2.2
			c1.7,2.9,0.7,6.5-2.2,8.2l-36,20.8C1419.7,597.6,1418.7,597.9,1417.7,597.9z"/>
		<path class="st19" d="M1370.2,536.6c-1.5,0-3.1-0.6-4.2-1.8c-2.3-2.3-2.3-6.1,0-8.4l29.4-29.4c2.3-2.3,6.1-2.3,8.4,0
			c2.3,2.3,2.3,6.1,0,8.4l-29.4,29.4C1373.3,536,1371.7,536.6,1370.2,536.6z"/>
		<path class="st19" d="M1308.5,489.6c-1,0-2-0.3-3-0.8c-2.9-1.6-3.8-5.3-2.2-8.2l20.7-36c1.7-2.9,5.3-3.8,8.2-2.2
			c2.9,1.6,3.8,5.3,2.2,8.2l-20.7,36C1312.6,488.5,1310.6,489.6,1308.5,489.6z"/>
		<path class="st19" d="M1236.7,460.2c-0.5,0-1-0.1-1.5-0.2c-3.2-0.9-5.1-4.1-4.2-7.3l10.7-40.1c0.8-3.2,4.1-5.1,7.3-4.2
			c3.2,0.9,5.1,4.1,4.2,7.3l-10.7,40.1C1241.8,458.4,1239.4,460.2,1236.7,460.2z"/>
	</g>
</g>
<g id="BP_FG">
	<g id="DOGGO" class="st2">
		<polygon class="st21" points="1857.5,1669.8 1842.3,1666.9 1825.4,1664.2 1813.9,1657.1 1805,1645.5 1805.8,1627.7 1800.5,1596.6 
			1796.1,1568.1 1791.6,1529 1794.3,1510.3 1798.7,1503.2 1793.4,1452.4 1784.5,1436.4 1777.4,1408.8 1774.7,1369.7 1770.3,1334.1 
			1779.2,1303 1764,1337.7 1733.8,1319.9 1704.4,1298.8 1688.4,1281 1672.4,1264.9 1646.6,1244.2 1627.9,1219.3 1606.5,1206 
			1588.7,1203.3 1566.5,1216.6 1555.8,1230.9 1550.5,1246 1542.5,1267.4 1528.2,1292.3 1513.1,1311.9 1494.4,1334.1 1476.6,1358.1 
			1465,1372.4 1448.1,1399.9 1440.1,1425.8 1437.5,1449.8 1438.3,1479.1 1442.8,1503.2 1449,1521 1462.4,1534.3 1462.4,1545 
			1458.5,1545.7 1456.6,1553.6 1451.2,1557.8 1441.8,1557.8 1436.9,1559.9 1422.4,1559.9 1416.6,1555.4 1412.1,1556.9 
			1406.9,1556.3 1400.6,1551.1 1393.3,1538.7 1393.6,1530.2 1397.8,1522.3 1399.1,1516.6 1403.3,1446.9 1401.8,1439.7 
			1401.8,1414.3 1404.5,1392.9 1403.8,1379.5 1408.5,1373.5 1421.9,1360.1 1433.3,1332.7 1439.9,1305.2 1439.3,1288.5 
			1437.9,1265.8 1437.3,1214.9 1447.3,1164.8 1463.4,1101.9 1475.4,1081.1 1492.1,1067.1 1530.9,1040.3 1557,1027 1596.5,1013.6 
			1623.9,1011.6 1682.1,1016.9 1737,1021.6 1801.8,1031 1840.6,1029.6 1850.7,1024.9 1878.1,968.8 1890.8,939.3 1931.6,907.9 
			1951,898.5 1979.8,895.8 2015.9,899.2 2027.3,903.9 2046,920.6 2060.7,938 2063.4,946.7 2064.1,956.7 2066.1,963.4 2104.2,988.8 
			2121.6,999.5 2130.3,1007.6 2131,1013.6 2129,1024.9 2125.6,1032.3 2113.6,1043 2098.2,1051.7 2092.2,1054.4 2082.1,1057.1 
			2068.7,1055.7 2051.4,1049 2034.6,1041.7 2021.3,1035.7 2007.2,1033 1995.2,1035 1990.5,1037.7 1991.8,1045 1999.2,1052.4 
			2008.5,1058.4 2021.9,1064.4 2041.3,1070.4 2054.7,1072.4 2071.4,1073.8 2078.8,1076.5 2086.1,1076.5 2093.5,1076.5 
			2100.2,1075.8 2096.8,1082.5 2092.8,1087.8 2076.8,1094.5 2060,1094.5 2042.7,1090.5 2033.3,1087.2 2019.2,1083.1 2004.5,1081.8 
			2036.6,1095.2 2018.6,1130 2006.5,1154.7 1994.5,1186.8 1980.4,1225 1983.8,1252.4 1976.4,1279.1 1958.4,1299.2 1933.6,1317.9 
			1899.5,1340 1872.1,1350.1 1859.4,1354.7 1862,1343.4 1874.1,1324.6 1882.1,1316.6 1864.7,1332 1848.7,1363.4 1836.6,1396.9 
			1828.6,1433 1828.6,1457.8 1835.3,1506.6 1833.9,1544.7 1837.3,1568.8 1842,1587.5 1850.7,1612.3 1860.7,1622.3 1872.1,1627 
			1880.1,1634.4 1883.4,1647.7 1881.4,1661.8 1873.4,1667.1 		"/>
		<polygon class="st21" points="1545.2,1260.3 1547.2,1275.9 1550.6,1286.3 1557.2,1293.9 1559.6,1300.3 1562.2,1308.3 
			1554.2,1326.6 1543.9,1339 1535.9,1351.6 1532.5,1361.3 1536.9,1380 1543.6,1405.4 1553.2,1425 1570.9,1460.4 1574.6,1474.1 
			1576.6,1484.4 1576.6,1488.7 1581.9,1495.1 1589.9,1496.8 1594.6,1500.4 1601.6,1502.1 1615.3,1501.8 1619.6,1499.1 
			1627.6,1499.4 1640,1497.1 1643,1494.1 1643,1491.7 1647,1490.7 1651,1486.4 1649.3,1479.4 1644.3,1470.4 1633.6,1464.4 
			1623.6,1460.1 1614.6,1460.7 1610.3,1460.4 1600.3,1449.7 1589.9,1429.7 1582.9,1414.7 1582.2,1398 1584.6,1385 1591.6,1367.3 
			1594.3,1359.7 1594.9,1347 1598.3,1341 1607.9,1331.6 1617.9,1319.6 1626.6,1307 1634.3,1292.6 1645.3,1274.3 1651.6,1260.3 
			1654.3,1250.9 1661.7,1232.5 1674.2,1216 1699.2,1200.9 1751.8,1196.3 1816.3,1210.1 1860.4,1262.1 1872.3,1309.5 1876.2,1362.8 
			1878.9,1470.7 1876.9,1488.5 1878.2,1494.4 1884.8,1505 1896.6,1550.4 1898.6,1564.2 1901.9,1572.8 1909.2,1576.7 1910.5,1583.3 
			1916.4,1586.6 1933.5,1587.3 1942.7,1588.6 1956.5,1586.6 1967.7,1583.3 1973,1578 1977.6,1575.4 1972.3,1563.6 1965.8,1553.7 
			1957.2,1548.4 1936.1,1541.2 1919,1500.4 1915.1,1488.5 1926.9,1420.1 1940.8,1361.5 1948,1325.3 1954.6,1289.1 1959.8,1213.4 
			1892,1121.9 1685.4,1097.5 1552.4,1145.6 1537.9,1212.7 		"/>
		<polygon class="st21" points="1878.4,928.2 1878.4,942 1879.5,958.3 1882.2,973.5 1885.4,984.1 1888.6,987.6 1893.1,989.5 
			1899,986 1903,978.3 1909.3,968.7 1914.9,958.5 1919.5,950.8 1923.2,947.9 1928.5,942.5 1932.8,936.1 1938.7,923.9 1935.7,935.9 
			1939.7,937.2 1943.7,937.7 1947.5,933.2 1952.8,923.1 1957.9,913.5 1962.1,902.6 1962.1,897.8 1960,894 1953.3,892.2 
			1933.1,893.5 1911.5,894 1899.8,892.7 1895.5,894.3 1887.8,899.9 1883.2,906.8 1880.6,917.2 		"/>
		<polygon class="st21" points="2024.7,969.9 2018.8,968.8 2016.3,965.6 2014.5,962.9 2012.6,960.6 2010.3,959.8 2006.9,960.3 
			2003,962.5 1999.3,964.2 1996.5,966 1995.3,966.9 1997.2,968.6 2000.1,969.4 2002.9,970.2 2005.2,971 2007.4,971.1 2010.3,971.1 
			2012.9,970.8 2015.4,970.2 2017.1,969.4 		"/>
		<polyline class="st21" points="2119.8,1002 2114.7,1002 2109.7,1002.5 2104.9,1004.6 2102.2,1007.5 2100.6,1009.9 2098.6,1013 
			2098.9,1016.2 2100.8,1019 2103.2,1021.2 2108,1022.6 2111.4,1022.9 2113.8,1021.9 2113.8,1019 2115,1017.4 2117.1,1017.1 
			2119.1,1017.1 2120.3,1018.8 2121,1021.7 2119.5,1024.6 2115.7,1025.5 2111.9,1025.5 2108.2,1025.5 2103.9,1024.3 2101.8,1023.4 
			2098.9,1021.4 2097.7,1019 2098.9,1024.6 2102,1027.9 2105.8,1031.5 2108,1033 2111.4,1035.8 2113.5,1037.3 2115.7,1037.8 		"/>
		<polygon class="st22" points="1567.8,1026.5 1555.8,1024.4 1544.8,1023.4 1533.8,1023.4 1518.4,1023.4 1509.8,1027.2 1500.6,1033 
			1494.7,1038.8 1489.2,1046.4 1486.5,1053.6 1484.1,1060.4 1483.1,1068.7 1483.1,1076.2 1485.5,1086.9 1491.6,1089.6 
			1501.2,1088.2 1506.7,1079.3 1512.9,1069.7 1518.4,1064.9 1523.2,1063.5 1544.8,1069 1558.2,1064.6 1572.6,1038.5 		"/>
		<polygon class="st21" points="1989.4,901.1 1998.7,890.6 2015.8,887.6 2026,888.2 2039.5,895.7 2048.5,902 2052.4,913.7 
			2051.5,918.2 2044,930.2 2008.3,923.9 		"/>
	</g>
	<g id="TARGETS" class="st2">
		<g class="st3">
			<line class="st23" x1="1113.1" y1="1668.9" x2="1113.1" y2="1747.2"/>
			<line class="st23" x1="980.2" y1="1688.5" x2="980.2" y2="1747.2"/>
			<line class="st23" x1="847.4" y1="1747.2" x2="847.4" y2="1668.9"/>
			<g>
				<line class="st23" x1="1046.6" y1="1708.1" x2="1046.6" y2="1747.2"/>
				<line class="st23" x1="1378.7" y1="1747.2" x2="1378.7" y2="1668.9"/>
				<line class="st23" x1="1245.9" y1="1747.2" x2="1245.9" y2="1688.5"/>
				<line class="st23" x1="1312.3" y1="1708.1" x2="1312.3" y2="1747.2"/>
				<line class="st23" x1="913.8" y1="1708.1" x2="913.8" y2="1747.2"/>
				<line class="st23" x1="1179.5" y1="1708.1" x2="1179.5" y2="1747.2"/>
			</g>
			<g>
				<line class="st24" x1="1079.9" y1="1708.1" x2="1079.9" y2="1747.2"/>
				<line class="st24" x1="1345.5" y1="1747.2" x2="1345.5" y2="1708.1"/>
				<line class="st24" x1="947" y1="1708.1" x2="947" y2="1747.2"/>
				<line class="st24" x1="1212.7" y1="1708.1" x2="1212.7" y2="1747.2"/>
			</g>
			<g>
				<line class="st24" x1="1013.4" y1="1708.1" x2="1013.4" y2="1747.2"/>
				<line class="st24" x1="1279.1" y1="1747.2" x2="1279.1" y2="1708.1"/>
				<line class="st24" x1="880.6" y1="1708.1" x2="880.6" y2="1747.2"/>
				<line class="st24" x1="1146.3" y1="1708.1" x2="1146.3" y2="1747.2"/>
			</g>
		</g>
		<g class="st3">
			<rect x="847.4" y="1770.5" class="st25" width="531.4" height="78.4"/>
			<rect x="861.6" y="1784.7" class="st26" width="503" height="50"/>
		</g>
		<g class="st3">
			<rect x="1452.7" y="1770.5" class="st25" width="531.4" height="78.4"/>
			<rect x="1466.9" y="1784.7" class="st26" width="503" height="50"/>
		</g>
		<g class="st3">
			<line class="st23" x1="1718.4" y1="1668.9" x2="1718.4" y2="1747.2"/>
			<line class="st23" x1="1585.6" y1="1688.5" x2="1585.6" y2="1747.2"/>
			<line class="st23" x1="1452.7" y1="1747.2" x2="1452.7" y2="1668.9"/>
			<g>
				<line class="st23" x1="1652" y1="1708.1" x2="1652" y2="1747.2"/>
				<line class="st23" x1="1984.1" y1="1747.2" x2="1984.1" y2="1668.9"/>
				<line class="st23" x1="1851.3" y1="1747.2" x2="1851.3" y2="1688.5"/>
				<line class="st23" x1="1917.7" y1="1708.1" x2="1917.7" y2="1747.2"/>
				<line class="st23" x1="1519.2" y1="1708.1" x2="1519.2" y2="1747.2"/>
				<line class="st23" x1="1784.8" y1="1708.1" x2="1784.8" y2="1747.2"/>
			</g>
			<g>
				<line class="st24" x1="1685.2" y1="1708.1" x2="1685.2" y2="1747.2"/>
				<line class="st24" x1="1950.9" y1="1747.2" x2="1950.9" y2="1708.1"/>
				<line class="st24" x1="1552.4" y1="1708.1" x2="1552.4" y2="1747.2"/>
				<line class="st24" x1="1818.1" y1="1708.1" x2="1818.1" y2="1747.2"/>
			</g>
			<g>
				<line class="st24" x1="1618.8" y1="1708.1" x2="1618.8" y2="1747.2"/>
				<line class="st24" x1="1884.5" y1="1747.2" x2="1884.5" y2="1708.1"/>
				<line class="st24" x1="1486" y1="1708.1" x2="1486" y2="1747.2"/>
				<line class="st24" x1="1751.6" y1="1708.1" x2="1751.6" y2="1747.2"/>
			</g>
		</g>
	</g>
	<g id="SOLUTION" class="st2">
		<line class="st21" x1="1344.6" y1="749.6" x2="2139.3" y2="749.6"/>
		<text transform="matrix(1 0 0 1 2134.189 389.8235)" class="st27 st12 st18">SOLUTION:</text>
		<g class="st3">
			<rect x="2139.4" y="412" class="st25" width="1166.7" height="456.4"/>
			<rect x="2153.6" y="426.1" class="st26" width="1138.3" height="428.1"/>
		</g>
	</g>
	<g id="LEGEND" class="st2">
		<rect x="160.4" y="81.9" class="st3" width="410.4" height="340.2"/>
		<rect x="160.4" y="251.9" class="st28" width="56.7" height="56.7"/>
		<rect x="160.4" y="365.3" class="st27" width="56.7" height="56.7"/>
		<rect x="160.4" y="195.2" class="st29" width="56.7" height="56.7"/>
		<rect x="160.4" y="138.6" class="st30" width="56.7" height="56.7"/>
		<rect x="160.4" y="81.9" class="st31" width="56.7" height="56.7"/>
		<rect x="160.4" y="308.6" class="st32" width="56.7" height="56.7"/>
		<text transform="matrix(1 0 0 1 238.1152 405.0956)" class="st27 st12 st33">OUTLINES</text>
		<text transform="matrix(1 0 0 1 238.1152 121.631)" class="st31 st12 st33">BACKGROUND</text>
		<text transform="matrix(1 0 0 1 238.1152 178.3239)" class="st30 st12 st33">BG GRID</text>
		<text transform="matrix(1 0 0 1 238.1152 291.7098)" class="st28 st12 st33">BOX FILL</text>
	</g>
	<path class="st25" d="M1132.8,877.4l18.8,66l12.1,66.8l9.1,48.6l12.1,33.4l4.6,19.7l-1.5,16.7l-3,34.9l-1.5,45.5l7.6,54.6
		l15.2,72.8l12.1,48.6l3,25.8l-1.5,22.8l-6.1,15.2l-3,16.7l4.4,13.2l5.6,7l11.2,5.6l16.7,9.1l16.7,12.1l13.7,16.7l19.7,15.2
		l24.3,10.6h30.3l21.1-13.8l9.8-16.1l-5.2-9.5l-13.7-13.7l-18.2-9.1l-28.8-16.7l-24.3-27.3l-9.1-33.4v-54.6l4.6-109.2v-94.1l-3-31.9
		l-4.6-25.8l4.6-19.7l3-19.7l-1.5-22.8l13.7-62.2l4.6-47.3c0,0,9-69.9,9-133.3c0-92.8-43.5-233.8-43.5-233.8l-8.6-36.7l-11.5-52.3
		l-7.1-54v-36.3l4.4-37.2l12.4-35.4l15.1-35.4l8.9-44.3l-9.7-32.8l-16.8-20.4l-23.9-19.5l-30.1-24.8l-24.8-21.3l-14.2-14.2L1172,69
		l-7.1,3.5l-11.5,2.7l-15.1-0.9l-16.8-5.3L1104.7,53l-15.1-15.1l-15.9-22.1l-12.4-17.7l-8,19.5l-9.7,12.4l-15.1,8.9l-27.5,7.1
		l-25.7,9.7l-30.1,8.9l-25.7,15.1l-14.2,25.7l-8,29.2v46.9l17.7,46.9l28.3,70.9l23,147.9l2.7,68.2l-4.9,43.6
		c0,0-25.8,119.1-25.8,206.6s7.1,150.1,7.1,150.1l4,118.7l-4,18.8l-18.8,67.5l-13.9,48.6l-6,57.5v46.6l6.9,120l-6.9,36.7l-17.9,49.6
		l-23.9,41.7l-3,20.8l5,7.9l14.8,9.7l30.8,8.2h14.4l16.4-10.9l14.9-20.9l7.9-48.6l14.9-28.8l3-22.8l-8-16.8l-4-34.8l13.9-68.4
		l26.8-73.4l11.9-35.7l6-38.7l3-23.8l7.9-17.9l14.9-24.8l19.8-49.6l30.8-89.3L1132.8,877.4c0,0,15.6-52.4,15.6-85.8
		C1148.4,824.9,1132.8,877.4,1132.8,877.4z"/>
	<polyline class="st25" points="954.7,797 956.1,803.2 957.6,810.2 958.7,821.3 959.8,830.4 963.5,838.9 967.5,846.6 973.8,855.8 
		978.9,861.3 983.4,863.9 989.2,865.4 995.1,863.5 997.7,858.8 996.6,853.3 992.5,848.5 988.9,844.4 984.8,829 982.2,815.4 
		980.8,802.5 980,795.1 982.6,795.9 983.4,798.5 985.2,805.4 987.4,813.5 989.2,822.7 991.8,829.7 994.4,837.4 995.9,842.2 
		997.7,849.9 1000.6,856.2 1005.8,862.1 1009.8,863.9 1014.2,863.2 1017.6,859.1 1018.7,852.9 1016.4,839.3 1016.1,830.8 
		1015.7,818.3 1015.3,813.2 1014.2,804 1011.7,794.4 1009.8,790 1009.8,782.6 1009.8,774.2 1009.8,767.2 1007.3,758.7 1012,810.2 
		1019.4,817.6 1026.7,823.1 1034.1,823.8 1037,821.3 1036.7,813.5 1033.4,805.4 1030.4,796.6 1025.6,781.5 1023.8,772.3 
		1021.6,766.8 1021.6,754.7 1020.1,749.5 1014.2,739.6 998.1,706.1 991.4,701 983.7,687 969.4,653.9 953.2,599.5 947.3,530.7 
		941.4,485.1 933,449.4 927.4,428.8 934.4,415.2 945.1,392.8 958,357.1 964.2,330.3 972.7,295 977.5,269.6 981.1,227.7 983.6,223.6 
		986.6,209.8 989.7,188.9 991.8,167.3 988.8,147.9 984.1,132.8 972.6,106.2 957.9,87 940.9,76.2 929.8,74.9 898.9,86.3 879.4,100.8 
		868,117.6 858.5,141.2 855.8,162.5 854.4,184.8 854.9,198.4 848.5,214.3 842.6,231.1 837.6,255.2 835.3,287.4 836.7,320.1 
		837.2,375.9 834.9,390.5 833.1,406.4 830.8,423.2 838.1,465.4 850.3,513.5 867.9,572.6 883.7,614.9 896.9,644.7 906,661.1 
		908.7,667 913,682.9 913.4,688.3 917.1,703.3 916.2,715.1 914.8,727.6 913.7,741.2 914.6,769.3 916.1,777 916.7,780.5 916.7,800.8 
		917,806.4 921.1,816.7 931.2,830.1 933.1,832.1 940.5,835.7 943.9,834.9 945.2,832.3 943.9,828.4 940,823.9 937.2,818.7 
		935.3,809.8 934.9,800.3 934.2,794.1 931.6,788 	"/>
	<polyline class="st25" points="990,1105.6 998.4,1117.5 1012.4,1122.4 1026.4,1123.1 1038.3,1119.6 1047.4,1114.7 	"/>
	<polyline class="st25" points="1282,1099.6 1275.4,1105.4 1264.4,1110.6 1252.6,1109.1 	"/>
	<g id="COCKPIT">
		<path class="st23" d="M1315.4,794.7c0,50.2-5.7,104.4-8,124.8c-4.9,7.5-27,36.6-78.7,36.6c-35.3,0-68.8-17-82.6-32.1l-13.3-46.6
			l-19.7,66.3l-1.7,2.2l-10.1,7.2l-10.3,5.3l-10.6,3.2l-13.9,1.6l-13.8-0.4l-13.7-1.7l-14.5-3.9l-16.5-5.2l-16.3-7.2l-14.9-8.4
			l-13.9-9.8l-9.2-8.7l-8-9.4l-0.9-1.8c-1.9-20.1-6.2-73.1-6.2-141.3c0-51.8,9-114.8,16.4-157.4c5.2,10.1,42.7,23.6,128.1,28.6
			l7.2,43.6l9.4,43.8l7.1,23.5l8.5,17.3l12.3,16l12.2,8l15.1,4.5l14.8-1.1l8.8-3.1l8.5-6.2l6.1-9.2l4.4-10.1l4.7-14.1l3.2-12.5
			l3.3-24.8l1.6-19.4l1.6-19.4l0.2-37.5c39-4.2,70.3-13.3,73.1-27.9C1297.8,657.3,1315.4,735.7,1315.4,794.7z"/>
		<path class="st25" d="M1132.8,877.4c0,0,15.6-52.4,15.6-85.8"/>
		<path class="st34" d="M1285,607.9c-2.7,14.6-34.1,23.6-73.1,27.9c-17.7,1.9-37,2.9-55.9,2.9c-27.5,0-51.7-0.7-73-2
			c-85.4-5-122.9-18.5-128.1-28.6c2.9-16.9,5.6-30.6,7.3-39.2c5.7,12.6,58.9,30.7,188,30.7c68.8,0,121.8-9.9,123.8-31.6
			C1276.3,576,1280.4,590,1285,607.9z"/>
	</g>
</g>
</svg>
